<svg xmlns="http://www.w3.org/2000/svg" viewBox="0 0 381.02 394.9"><defs><style>.cls-1,.cls-109,.cls-112,.cls-113,.cls-114,.cls-124,.cls-126,.cls-128,.cls-14,.cls-15,.cls-17,.cls-18,.cls-2,.cls-21,.cls-24,.cls-25,.cls-26,.cls-28,.cls-3,.cls-30,.cls-43,.cls-44,.cls-59,.cls-60,.cls-63,.cls-64,.cls-76,.cls-8,.cls-87,.cls-90{fill:none;}.cls-1,.cls-100,.cls-105,.cls-106,.cls-107,.cls-11,.cls-112,.cls-113,.cls-114,.cls-118,.cls-122,.cls-125,.cls-126,.cls-128,.cls-2,.cls-24,.cls-25,.cls-26,.cls-3,.cls-74,.cls-94{stroke:#fff;}.cls-1,.cls-10,.cls-100,.cls-101,.cls-102,.cls-103,.cls-104,.cls-105,.cls-106,.cls-107,.cls-108,.cls-11,.cls-110,.cls-111,.cls-112,.cls-113,.cls-114,.cls-115,.cls-116,.cls-117,.cls-118,.cls-119,.cls-12,.cls-121,.cls-122,.cls-123,.cls-124,.cls-127,.cls-128,.cls-13,.cls-15,.cls-16,.cls-2,.cls-21,.cls-24,.cls-25,.cls-26,.cls-27,.cls-28,.cls-29,.cls-3,.cls-31,.cls-32,.cls-33,.cls-34,.cls-35,.cls-36,.cls-37,.cls-38,.cls-39,.cls-4,.cls-40,.cls-41,.cls-42,.cls-43,.cls-44,.cls-45,.cls-46,.cls-47,.cls-48,.cls-49,.cls-5,.cls-50,.cls-51,.cls-52,.cls-53,.cls-54,.cls-55,.cls-56,.cls-57,.cls-58,.cls-59,.cls-6,.cls-60,.cls-61,.cls-62,.cls-65,.cls-66,.cls-67,.cls-68,.cls-69,.cls-7,.cls-70,.cls-71,.cls-72,.cls-73,.cls-74,.cls-75,.cls-76,.cls-77,.cls-78,.cls-79,.cls-8,.cls-80,.cls-81,.cls-82,.cls-83,.cls-84,.cls-86,.cls-87,.cls-88,.cls-89,.cls-9,.cls-90,.cls-93,.cls-94,.cls-95,.cls-96,.cls-97,.cls-99{stroke-miterlimit:22.93;}.cls-1{stroke-width:5.67px;}.cls-110,.cls-2,.cls-21,.cls-3,.cls-97{stroke-width:0.57px;}.cls-10,.cls-100,.cls-101,.cls-102,.cls-103,.cls-104,.cls-105,.cls-106,.cls-107,.cls-108,.cls-109,.cls-11,.cls-110,.cls-111,.cls-113,.cls-114,.cls-115,.cls-116,.cls-117,.cls-118,.cls-119,.cls-12,.cls-120,.cls-121,.cls-122,.cls-123,.cls-124,.cls-125,.cls-126,.cls-127,.cls-128,.cls-13,.cls-14,.cls-16,.cls-17,.cls-18,.cls-19,.cls-20,.cls-21,.cls-23,.cls-24,.cls-26,.cls-27,.cls-28,.cls-29,.cls-3,.cls-30,.cls-31,.cls-32,.cls-33,.cls-34,.cls-35,.cls-36,.cls-37,.cls-38,.cls-39,.cls-4,.cls-40,.cls-41,.cls-42,.cls-44,.cls-45,.cls-46,.cls-47,.cls-48,.cls-49,.cls-5,.cls-50,.cls-51,.cls-52,.cls-53,.cls-54,.cls-55,.cls-56,.cls-57,.cls-58,.cls-59,.cls-6,.cls-60,.cls-61,.cls-62,.cls-63,.cls-64,.cls-65,.cls-66,.cls-67,.cls-68,.cls-69,.cls-7,.cls-70,.cls-71,.cls-72,.cls-73,.cls-75,.cls-76,.cls-77,.cls-78,.cls-79,.cls-8,.cls-80,.cls-81,.cls-82,.cls-83,.cls-84,.cls-85,.cls-86,.cls-87,.cls-88,.cls-89,.cls-9,.cls-90,.cls-91,.cls-92,.cls-93,.cls-94,.cls-95,.cls-96,.cls-97,.cls-98,.cls-99{fill-rule:evenodd;}.cls-4{fill:#21543c;}.cls-10,.cls-101,.cls-102,.cls-103,.cls-108,.cls-109,.cls-110,.cls-111,.cls-115,.cls-116,.cls-117,.cls-119,.cls-12,.cls-123,.cls-127,.cls-13,.cls-15,.cls-16,.cls-17,.cls-18,.cls-19,.cls-21,.cls-27,.cls-28,.cls-29,.cls-30,.cls-31,.cls-32,.cls-33,.cls-34,.cls-35,.cls-36,.cls-37,.cls-38,.cls-39,.cls-4,.cls-40,.cls-41,.cls-42,.cls-43,.cls-44,.cls-46,.cls-47,.cls-48,.cls-49,.cls-5,.cls-50,.cls-52,.cls-54,.cls-55,.cls-56,.cls-57,.cls-58,.cls-6,.cls-61,.cls-62,.cls-65,.cls-66,.cls-67,.cls-68,.cls-69,.cls-7,.cls-70,.cls-71,.cls-72,.cls-73,.cls-75,.cls-76,.cls-77,.cls-78,.cls-79,.cls-8,.cls-80,.cls-81,.cls-82,.cls-83,.cls-85,.cls-86,.cls-89,.cls-9,.cls-91,.cls-93,.cls-95,.cls-96,.cls-97,.cls-99{stroke:#1a1a18;}.cls-10,.cls-11,.cls-116,.cls-117,.cls-119,.cls-12,.cls-121,.cls-123,.cls-124,.cls-127,.cls-13,.cls-15,.cls-16,.cls-17,.cls-18,.cls-19,.cls-33,.cls-36,.cls-4,.cls-42,.cls-45,.cls-46,.cls-47,.cls-5,.cls-52,.cls-53,.cls-54,.cls-56,.cls-57,.cls-58,.cls-6,.cls-60,.cls-62,.cls-63,.cls-7,.cls-71,.cls-72,.cls-78,.cls-8,.cls-80,.cls-81,.cls-82,.cls-84,.cls-9,.cls-91,.cls-95,.cls-99{stroke-width:0.43px;}.cls-11,.cls-5{fill:#e3000f;}.cls-37,.cls-6{fill:#bc8b6d;}.cls-7,.cls-86{fill:#1f1400;}.cls-9{fill:#655146;}.cls-10,.cls-27{fill:#e8ccba;}.cls-12{fill:#752f00;}.cls-13,.cls-39,.cls-41,.cls-67{fill:#c5c6c6;}.cls-108,.cls-16,.cls-29{fill:#84746c;}.cls-126,.cls-17,.cls-30,.cls-44,.cls-63,.cls-64{stroke-linecap:round;}.cls-109,.cls-125,.cls-126,.cls-17,.cls-18,.cls-19,.cls-30,.cls-63,.cls-64,.cls-85,.cls-91{stroke-linejoin:round;}.cls-19,.cls-20,.cls-47,.cls-68,.cls-85{fill:#fff;}.cls-22,.cls-23{fill:#f08481;}.cls-24,.cls-25{stroke-width:2.83px;}.cls-26{stroke-width:1.42px;}.cls-100,.cls-101,.cls-102,.cls-104,.cls-109,.cls-27,.cls-28,.cls-29,.cls-30,.cls-31,.cls-34,.cls-35,.cls-37,.cls-38,.cls-39,.cls-40,.cls-43,.cls-44,.cls-49,.cls-50,.cls-51,.cls-55,.cls-59,.cls-61,.cls-64,.cls-65,.cls-68,.cls-69,.cls-70,.cls-77,.cls-79,.cls-83,.cls-85,.cls-86,.cls-87,.cls-88,.cls-89,.cls-93,.cls-96{stroke-width:0.42px;}.cls-31,.cls-32,.cls-48{fill:#3b3b3a;}.cls-108,.cls-32,.cls-41{stroke-width:0.42px;}.cls-33,.cls-34{fill:#a55300;}.cls-35,.cls-36{fill:#d6c091;}.cls-38,.cls-56{fill:#432713;}.cls-40,.cls-42{fill:#575656;}.cls-45,.cls-49,.cls-52{fill:#160017;}.cls-45{stroke:#160017;}.cls-121,.cls-122,.cls-125,.cls-46,.cls-50,.cls-51,.cls-53{fill:#a21e06;}.cls-48{stroke-width:0.5px;}.cls-51,.cls-53,.cls-59,.cls-60,.cls-63,.cls-64{stroke:#fcd5a5;}.cls-54,.cls-55{fill:#b9b2ac;}.cls-57{fill:#0a0004;}.cls-58{fill:#61484b;}.cls-61,.cls-62{fill:#fcd5a5;}.cls-65,.cls-71,.cls-73,.cls-75{fill:#b68d3f;}.cls-66,.cls-72,.cls-77{fill:#592c00;}.cls-114,.cls-118,.cls-66,.cls-67,.cls-75,.cls-76{stroke-width:0.57px;}.cls-69{fill:#4f5f09;}.cls-70{fill:#8f311f;}.cls-73{stroke-width:0.5px;}.cls-74{fill:#d9dada;}.cls-112,.cls-113,.cls-74,.cls-94{stroke-width:0.39px;}.cls-102,.cls-103,.cls-78{fill:#8f7a60;}.cls-79,.cls-81{fill:#431e00;}.cls-80,.cls-88,.cls-89{fill:#d1bba5;}.cls-82,.cls-83{fill:#182237;}.cls-84{fill:#c8b396;}.cls-104,.cls-121,.cls-84{stroke:#100000;}.cls-87,.cls-88{stroke:#d1bba5;}.cls-90{stroke:#a65a44;stroke-width:3.95px;}.cls-91,.cls-93{fill:#938e92;}.cls-92{fill:#a65a44;}.cls-94,.cls-95,.cls-96{fill:#adbdc8;}.cls-111,.cls-117,.cls-97{fill:#b4ac96;}.cls-105,.cls-118,.cls-98{fill:#2b5e3e;}.cls-101,.cls-115,.cls-99{fill:#7f511d;}.cls-100{fill:#4b0500;}.cls-103,.cls-111{stroke-width:0.43px;}.cls-104{fill:#745936;}.cls-105{stroke-width:0.6px;}.cls-106,.cls-107{fill:#b42a11;}.cls-106{stroke-width:1.03px;}.cls-107{stroke-width:2.65px;}.cls-110{fill:#230000;}.cls-115{stroke-width:0.86px;}.cls-116{fill:#ececed;}.cls-119{fill:#753e15;}.cls-120{fill:#182f72;}.cls-122,.cls-125,.cls-126,.cls-128{stroke-width:0.85px;}.cls-123{fill:#a1d9f8;}.cls-124{stroke:#a1d9f8;}.cls-127{fill:#babcbc;}</style></defs><title>Ресурс 1</title><g id="Слой_2" data-name="Слой 2"><g id="Слой_1-2" data-name="Слой 1"><circle class="cls-1" cx="190.51" cy="204.39" r="60.53" transform="translate(-88.73 194.58) rotate(-45)"/><circle class="cls-2" cx="190.51" cy="204.39" r="190.23" transform="translate(-88.73 194.58) rotate(-45)"/><path class="cls-3" d="M205.55,174.13l67.9-141m-165.88,0,67.9,141M4.8,163l151.91,34.67m6.7,29.33L42.26,323.6M190.51,240V394.62M376.22,163,224.31,197.65M217.61,227,338.76,323.6"/><path class="cls-4" d="M158.47,53.35c-6.09,1.77-12.08,3.85-18,5.76A22.32,22.32,0,0,0,142,66a119.68,119.68,0,0,0,22.27-4.52v-6.6Z"/><path class="cls-5" d="M145.68,57.41l-5.19,1.7A22.32,22.32,0,0,0,142,66q2.76-.27,5.54-.71C147,63.8,145.87,58.53,145.68,57.41Z"/><path class="cls-6" d="M140.39,59.7a55.16,55.16,0,0,0-6.47-.94c-2.18-.08-3.2.47-2.81,1.19s1.74.23,1.57,1-3.19,1.34-4,1.9-2.63,2.91.33,4.47c3.24,1.7,10.53-.86,12.64-2.06a28.14,28.14,0,0,1-1.15-5.35Z"/><path class="cls-7" d="M144.48,57.8l-4,1.31A22.32,22.32,0,0,0,142,66c1.41-.14,2.83-.31,4.24-.51A69.32,69.32,0,0,1,144.48,57.8Z"/><path class="cls-6" d="M195.71,120.87a110.71,110.71,0,0,0,.6,12c.05.35.74.87.64,1.34-.15.76-1.15,1.47-1.13,1.63.15,1.43-.26,3,.64,3.41a5.63,5.63,0,0,0,2.87,1.34c.1,3.37,5.57,6.3,7.74,7.18,1.05.42,3,.75,4.26-.2s.3-3.45-1.45-5.5a39.17,39.17,0,0,1-4.95-8l-.06-.9.84-1.32.95-12.48Z"/><path class="cls-8" d="M196.91,133.87c.64.41,6.75.33,8-.68"/><path class="cls-6" d="M184.71,120.87a111.66,111.66,0,0,1-.61,12c0,.35-.74.87-.64,1.34.16.76,1.15,1.47,1.13,1.63-.14,1.43.27,3-.63,3.41a5.77,5.77,0,0,1-2.88,1.34c-.1,3.37-5.56,6.3-7.74,7.18-1,.42-3,.75-4.26-.2s-.29-3.45,1.45-5.5a39.17,39.17,0,0,0,4.95-8l.06-.9-.84-1.32-.94-12.48Z"/><path class="cls-8" d="M183.5,133.87c-.63.41-6.74.33-8-.68"/><path class="cls-9" d="M205.62,40.18a10.09,10.09,0,0,0-5-2.21c-2.72-.22-17.09-1-17.09-1s-6.7.21-8.29,1.33-.68-2.89-.68-2.89l3.69-5.22,9,2.78,16.88-1.5s1.44.69,1.59,1.1S205.62,40.18,205.62,40.18Z"/><path class="cls-7" d="M201.62,39.22a10.89,10.89,0,0,1-3.31,5.85c-2.73,2.34-12.95,3.52-15,1.16a19.14,19.14,0,0,1-4.05-8.59Z"/><polygon class="cls-10" points="195.27 44.34 194.97 41.13 185.97 39.82 186.45 44.34 186.85 48.94 188.94 51.04 193.91 50.94 196.38 45.72 195.27 44.34"/><path class="cls-7" d="M205.49,58.37c.84,5.72,3.56,24.43,5,29.31s3.58,18.56,3.58,18.56l-25.54,5.54-20.88-6L172,83.09l5.61-26.5c1.72-2.09,5-5.19,5-5.19a14.39,14.39,0,0,0,.54-2.39l7,.52h1.33l9.15-.33.24-.28c.64,1.33,1.18,2.29,1.18,2.29A58.6,58.6,0,0,0,205.49,58.37Z"/><path class="cls-4" d="M172,83.09l5.61-26.5c1.72-2.09,5-5.19,5-5.19a10.74,10.74,0,0,0,.3-1.11l2.14,2.51L183.6,71.1l-3.45,15.3Z"/><path class="cls-4" d="M205.49,58.37c.71,4.82,2.75,18.86,4.23,26.08l-8.28,2.41L197.71,71.4l-.14-22.09,3.11-.11.24-.28c.64,1.33,1.18,2.29,1.18,2.29A58.6,58.6,0,0,0,205.49,58.37Z"/><path class="cls-11" d="M211.63,92.58c.67,3.24,1.19,6.26,1.65,9a125.77,125.77,0,0,1-15.94,1.27c-.73-.07-1.13-1-1.13-1.38l-1-46.8,3.19-1.55s1.47,17.95,1.85,22.72,1.94,17.23,1.94,17.23A81.14,81.14,0,0,0,211.63,92.58Z"/><path class="cls-12" d="M189.37,108.45s-.34-1-1.89-1c-6.76-.09-19.85-1.62-19.85-1.62s-2.63-.26-3,3.19-.94,8.43-.94,8.43-.29,1.37,1.79,2.51,18.79,2.7,20.46,2.52,2.16-.29,2.75-1.15c-.48-2,.28-8.23.28-10a6.67,6.67,0,0,1,.42-2.85Z"/><path class="cls-4" d="M223.68,53.92c6.08,1.77,12.07,3.85,18,5.76a22.32,22.32,0,0,1-1.47,6.84A120.47,120.47,0,0,1,217.91,62v-6.6Z"/><path class="cls-5" d="M236.46,58l5.19,1.7a22.32,22.32,0,0,1-1.47,6.84c-1.84-.18-3.69-.42-5.54-.7C235.14,64.37,236.27,59.1,236.46,58Z"/><path class="cls-6" d="M241.76,60.27a57.19,57.19,0,0,1,6.46-.94c2.18-.07,3.2.47,2.81,1.19s-1.74.23-1.57,1,3.19,1.33,4,1.89,2.62,2.91-.34,4.47c-3.24,1.7-10.53-.86-12.63-2.06a28.92,28.92,0,0,0,1.14-5.35Z"/><path class="cls-12" d="M190.18,107.44c-2.45,0-2.2,14.65-.93,14.85,7.93,1.27,27-1.19,28.08-3.14s-.68-7.87-.77-9.65-1.58-3.33-2.51-3.26C206.87,106.81,201.16,107.59,190.18,107.44Z"/><path class="cls-13" d="M190.87,62.73a3.52,3.52,0,1,0-3.51-3.51A3.52,3.52,0,0,0,190.87,62.73Z"/><path class="cls-8" d="M193.2,63.08l1.2,0c0,.5,0,1,0,1.51l-1.22,0V63.08Zm0,2.44h1.24c0,.52,0,1,0,1.58h-1.25c0-.52,0-1,0-1.57Zm0,2.44h1.26c0,.54,0,1.09,0,1.64h-1.27c0-.55,0-1.09,0-1.63Zm0,2.74h1.29c0,.8,0,1.62,0,2.44s0,1.69,0,2.55l-.66.42-.68-.43c0-.86,0-1.71,0-2.54s0-1.64,0-2.44Zm-2-7.17h1.21c0,.5,0,1,0,1.51h-1.22c0-.5,0-1,0-1.51Zm0,2.46h1.23c0,.52,0,1,0,1.58h-1.24c0-.53,0-1,0-1.57Zm0,2.44h1.25c0,.55,0,1.09,0,1.65h-1.27l0-1.64Zm0,2.75h1.28c0,.81,0,1.63,0,2.46s0,1.69,0,2.55l-.68.5-.65-.51,0-2.55c0-.82,0-1.64,0-2.45Zm-1.9-7.62,1.2,0,0,1.51h-1.21c0-.5,0-1,0-1.5ZM189.11,66h1.22c0,.52,0,1.05,0,1.58h-1.23c0-.52,0-1,.05-1.57ZM189,68.44h1.25c0,.54,0,1.09,0,1.64H189c0-.55,0-1.09.05-1.63ZM189,71.18h1.27c0,.81,0,1.62-.05,2.45s0,1.68,0,2.54l-.68.53-.65-.54c0-.85.05-1.7.08-2.54s0-1.63.08-2.44Zm-1.73-8,1.18,0-.06,1.5h-1.19c0-.5,0-1,.07-1.49Zm-.12,2.42h1.21q0,.77-.06,1.56H187c0-.53.05-1,.07-1.56ZM187,68h1.22l-.06,1.62h-1.24c0-.55.05-1.09.08-1.62Zm-.13,2.71h1.25c0,.8-.06,1.6-.09,2.42s-.06,1.67-.1,2.52l-.66.5-.64-.51c0-.85.08-1.69.12-2.51S186.82,71.5,186.86,70.7Z"/><path class="cls-14" d="M193.2,63.08l1.2,0c0,.5,0,1,0,1.51l-1.22,0V63.08Zm0,2.44h1.24c0,.52,0,1,0,1.58h-1.25c0-.52,0-1,0-1.57Zm0,2.44h1.26c0,.54,0,1.09,0,1.64h-1.27c0-.55,0-1.09,0-1.63Zm0,2.74h1.29c0,.8,0,1.62,0,2.44s0,1.69,0,2.55l-.66.42-.68-.43c0-.86,0-1.71,0-2.54s0-1.64,0-2.44Zm-2-7.17h1.21c0,.5,0,1,0,1.51h-1.22c0-.5,0-1,0-1.51Zm0,2.46h1.23c0,.52,0,1,0,1.58h-1.24c0-.53,0-1,0-1.57Zm0,2.44h1.25c0,.55,0,1.09,0,1.65h-1.27l0-1.64Zm0,2.75h1.28c0,.81,0,1.63,0,2.46s0,1.69,0,2.55l-.68.5-.65-.51,0-2.55c0-.82,0-1.64,0-2.45Zm-1.9-7.62,1.2,0,0,1.51h-1.21c0-.5,0-1,0-1.5ZM189.11,66h1.22c0,.52,0,1.05,0,1.58h-1.23c0-.52,0-1,.05-1.57ZM189,68.44h1.25c0,.54,0,1.09,0,1.64H189c0-.55,0-1.09.05-1.63ZM189,71.18h1.27c0,.81,0,1.62-.05,2.45s0,1.68,0,2.54l-.68.53-.65-.54c0-.85.05-1.7.08-2.54s0-1.63.08-2.44Zm-1.73-8,1.18,0-.06,1.5h-1.19c0-.5,0-1,.07-1.49Zm-.12,2.42h1.21q0,.77-.06,1.56H187c0-.53.05-1,.07-1.56ZM187,68h1.22l-.06,1.62h-1.24c0-.55.05-1.09.08-1.62Zm-.13,2.71h1.25c0,.8-.06,1.6-.09,2.42s-.06,1.67-.1,2.52l-.66.5-.64-.51c0-.85.08-1.69.12-2.51S186.82,71.5,186.86,70.7Z"/><path class="cls-13" d="M193.3,56.69l.85-.57,0-1.83a6.71,6.71,0,0,1-2.89-3.09l0-.15-.29-.19,0,0a1,1,0,0,1-.06.25,6.69,6.69,0,0,1-3.07,3.15l-.08,1.62.68.89a3.49,3.49,0,0,1,5-.12Z"/><line class="cls-15" x1="190.66" y1="76.46" x2="190.18" y2="107.44"/><polygon class="cls-12" points="201.68 73.8 208.27 76.44 208.99 73.46 202.54 70.76 201.68 73.8"/><path class="cls-12" d="M180,41.63s-3-1.45-7.07,1.53-11.72,5.53-13,5.53c-.78,0-1.4,1.49-1.65,3.58-.33,2.83.92,6.47,2.44,9.21.42.76,1.69.76,2.88,1.09,3.32.94,12.4-2.18,13.51-3.57s5.53-6.73,5.53-6.73,2.69-7.84-2.64-10.64Zm21.4,10.76s1.38,2.41,2.94,4.68c2,2.91,7.85,5.09,10,5.73,5.57,1.67,6.72-2.81,8.74-6.72s-1.14-6.67-3.76-8c-1.85-.94-9.45-4.45-11.49-5.13s-6.34-1.07-7.83.73S201.38,52.39,201.38,52.39Z"/><polygon class="cls-12" points="178.99 74.33 173.94 76.54 173.28 73.56 178.2 71.29 178.99 74.33"/><path class="cls-4" d="M176.29,37.14c2.52-3.85,2.72-9,5-12.48,4.38-6.79,15-5.51,18.9-.07,2.62,3.67,2.88,10.55,4.65,14.25S209,41.6,208,37.4s-2.2-7.89-2.58-12.33c-.48-5.56-.2-11.32-6.17-15.52l1.54-7c-4.41-3.32-16.32-3-19.61.13l1.65,6.92c-5.23,3-7.4,10.2-7.47,17.21a20.8,20.8,0,0,1-2.4,9.34C171.55,39,174.45,40,176.29,37.14Z"/><path class="cls-16" d="M176.29,37.14c2.52-3.85,2.72-9,5-12.48,4.38-6.79,15-5.51,18.9-.07,2.62,3.67,2.88,10.55,4.65,14.25S209,41.6,208,37.4a77.87,77.87,0,0,1-2.48-11.31h0c-.61-6.13-7.3-10.86-14.53-10.88S176.78,18.34,176.29,37.14Zm0,0c-1.84,2.84-4.74,1.85-3.33-1a21.15,21.15,0,0,0,2.39-8.75Z"/><path class="cls-10" d="M178,33.52c1.36,13.95,24.75,13.41,25.36.68h0c-.78-3.38-1.48-7.19-3.21-9.61-3.89-5.44-14.52-6.72-18.9.07-1.59,2.47-2.16,5.78-3.25,8.86Z"/><path class="cls-17" d="M189.86,35.74a2,2,0,0,0,1.93,0c.58-.41,0-1.11,0-1.11"/><path class="cls-8" d="M193.77,31.33a6.21,6.21,0,0,1,5.69-.75,4.61,4.61,0,0,0-.61.45"/><path class="cls-16" d="M196.56,31.92a.83.83,0,1,0-.83-.83A.83.83,0,0,0,196.56,31.92Z"/><path class="cls-18" d="M200,28.41a4.66,4.66,0,0,0-2.74-.84"/><path class="cls-8" d="M184.45,27.47a3.61,3.61,0,0,0-2.33,1"/><path class="cls-13" d="M180.69,25.65s8.29.38,12.79.19c2.88-.12,5.53-.46,7.05-.68-.12-.2-.24-.39-.37-.57-3.89-5.44-14.52-6.72-18.9.07Q181,25.14,180.69,25.65Z"/><path class="cls-19" d="M187.32,38.17a6.42,6.42,0,0,0,1.6,1.34,4.53,4.53,0,0,0,3.11.41c.95-.15,2.28-1.61,2.28-1.61C193.71,39.06,188,39.06,187.32,38.17Z"/><path class="cls-20" d="M196.25,31.18a.27.27,0,1,0-.27-.27A.27.27,0,0,0,196.25,31.18Z"/><path class="cls-13" d="M200.84,25.7c.74,1.79,1.13,18.86,1,22.86a5.33,5.33,0,0,1,1.51-.55l-.2-2.68.13,0,.55,2.6c.5-.09,1.23-.2,1.73-.25-1.5-2.74-2-6.91-2.34-10.45-.23-2.25-1-7.86-1-7.86Z"/><path class="cls-8" d="M201.88,28.27s.91,16.32,1.5,18.91"/><line class="cls-15" x1="201.85" y1="45.58" x2="204.49" y2="45.07"/><path class="cls-13" d="M180.67,25.7c-.75,1.79-1.14,18.86-1,22.86a5.22,5.22,0,0,0-1.51-.55l.2-2.68-.13,0-.55,2.6c-.5-.09-1.23-.2-1.73-.25,1.5-2.74,2-6.91,2.34-10.45.23-2.25,1-7.86,1-7.86Z"/><path class="cls-8" d="M179.62,28.27s-.91,16.32-1.5,18.91"/><line class="cls-15" x1="179.66" y1="45.58" x2="177.01" y2="45.07"/><polyline class="cls-21" points="197.58 22.15 190.62 25.89 183.69 22.07"/><path class="cls-7" d="M237.66,58.38l4,1.3a22.32,22.32,0,0,1-1.47,6.84c-1.41-.14-2.83-.31-4.24-.51A69.67,69.67,0,0,0,237.66,58.38Z"/><path class="cls-11" d="M168.42,101.69l1.73-9.06a50.61,50.61,0,0,0,8,.44s1.7-12.32,2.08-17.08,3.36-22.87,3.36-22.87l3.19,1.55-2.72,47s0,1.07-.8,1.14A146.57,146.57,0,0,1,168.42,101.69Z"/><path class="cls-12" d="M186.45,44.34c.06,3.94,1.64,3.85,3.75,5.19a1.62,1.62,0,0,1,.58,1.62,6.58,6.58,0,0,1-6.88,3.75c-3.64-.67-5.37-10.29-2.56-11,1.36-.34,3.75-1.19,5.11.43Zm8.82,0c-.05,3.94-1.65,3.83-3.74,5.19a1.5,1.5,0,0,0-.3,1.67,6.24,6.24,0,0,0,6.6,3.7c3.64-.67,5.36-10.29,2.55-11C199,43.57,196.64,42.72,195.27,44.34Z"/><circle class="cls-22" cx="198.55" cy="36.24" r="1.59"/><path class="cls-23" d="M182.57,37.83A1.59,1.59,0,1,0,181,36.24,1.59,1.59,0,0,0,182.57,37.83Z"/><path class="cls-8" d="M187.83,31.33a6.21,6.21,0,0,0-5.69-.75,4.61,4.61,0,0,1,.61.45"/><path class="cls-16" d="M185,31.92a.83.83,0,1,0-.83-.83A.83.83,0,0,0,185,31.92Z"/><path class="cls-20" d="M184.81,31.18a.27.27,0,1,0,0-.54.27.27,0,0,0,0,.54Z"/><path class="cls-24" d="M190.51,212.67a8.28,8.28,0,1,0-8.28-8.28A8.3,8.3,0,0,0,190.51,212.67Z"/><circle class="cls-25" cx="190.51" cy="204.39" r="33.8" transform="translate(-87.73 229.89) rotate(-52.25)"/><path class="cls-26" d="M183.34,237.43c9.7-2.76,15.37-17.28,9.26-25m-35.13-15.19c2.77,9.7,17.28,15.37,25,9.26m15.18-35.13c-9.7,2.77-15.37,17.29-9.25,25m35.12,15.19c-2.77-9.71-17.28-15.38-25-9.26"/><path class="cls-26" d="M200.82,236.59c7-7.24,4.67-22.65-4.5-26.3m-38,4.41c7.25,7,22.66,4.67,26.3-4.49m-4.41-38c-7,7.25-4.67,22.66,4.5,26.31m38-4.42c-7.25-7-22.65-4.67-26.3,4.5"/><path class="cls-26" d="M215.54,227.13c2.45-9.79-7.28-22-17-20.54m-30.71,22.83c9.78,2.46,22-7.28,20.53-17m-22.83-30.71c-2.45,9.79,7.28,22,17.05,20.53m30.71-22.82c-9.78-2.46-22,7.28-20.53,17"/><path class="cls-27" d="M322.91,83.08c-.43.41-.91.87-1.39,1.35.47-.47,1.21-1.17,1.39-1.35Zm-1.46,1.41c.3.78,1.56.07,2.25-.37,1.63-1.05,4.39-5.07,6-5.11,2.78-.06,11.2,6.45,11.91,8.45s4.83,9.72,3.14,11.26-5.87,3.63-6.52,4.46a1.68,1.68,0,0,0-.41,1.51c-2.27,1.89-5.76,4.66-9.9,3.36s-8.7-7.09-10.23-11.39a11.36,11.36,0,0,1,1-9.18A25.09,25.09,0,0,1,321.45,84.49Z"/><path class="cls-28" d="M331.94,97.69c.91-.11,3.36.27,3.82,4.08a2.45,2.45,0,0,1-.66-.1"/><path class="cls-29" d="M334.51,99a.84.84,0,1,1-1.18-.14A.84.84,0,0,1,334.51,99Z"/><path class="cls-20" d="M334,99a.27.27,0,0,1-.05.38.26.26,0,0,1-.38,0,.27.27,0,0,1,.05-.38A.26.26,0,0,1,334,99Z"/><path class="cls-28" d="M322.88,95.62c-.57,1.51,2.34,6.28,5.21,6.79"/><path class="cls-30" d="M326.36,96.93c-.14.38.73,1.86,1.71,2.15s1.27-1,1.27-1"/><path class="cls-28" d="M328.08,92.72c.33-.85.58-3.33-3-4.72a3.05,3.05,0,0,0-.07.67"/><path class="cls-16" d="M327.41,89.9a.83.83,0,0,0-1.17-.15.83.83,0,1,0,1.17.15Z"/><path class="cls-20" d="M326.91,89.87a.28.28,0,1,0-.05.38A.28.28,0,0,0,326.91,89.87Z"/><path class="cls-31" d="M336.56,96.16a3.16,3.16,0,0,1,1.14,1,3.63,3.63,0,0,1,.39,2.12c-.21.37-.84.1-.89-.42a4.18,4.18,0,0,0-1-1.79C335.86,96.8,335.81,95.87,336.56,96.16Z"/><path class="cls-32" d="M330.17,88a3.14,3.14,0,0,0-.65-1.33,3.65,3.65,0,0,0-1.91-.88c-.4.11-.3.77.18.94a4,4,0,0,1,1.44,1.42C329.4,88.47,330.26,88.75,330.17,88Z"/><path class="cls-27" d="M322.91,83.08c-.43.41-.91.87-1.39,1.35.47-.47,1.21-1.17,1.39-1.35Zm-3.72,3.73c-2.22-2.29.92-5.32,2.49-5.43S323,83,323,83l.44,1.27c-.71.41-1.69.86-1.95.18C320.59,85.33,319.73,86.19,319.19,86.81Z"/><path class="cls-33" d="M325.45,110.64s2.76,2.09,3.37,4,4.56,18.44,6.3,21.31a106.86,106.86,0,0,1,4.65,9.8L334,148.52c-.39.18-2.67,1.52-4.21,2.59-.6-.92-4.22-6.56-5.88-9.42-1.82-3.11-5.32-8.14-6.72-11.34-1.1.14-11.53,8.36-13.22,10.4a38.21,38.21,0,0,1-2.81,3.6c-1.11.79-2.86.76-5.49-.49-5.72-2.71-18-20.07-20.75-24.88s-2.48-9,1.3-10,14.58-8.74,15.48-9.76c-11.58-7.33-13.3-10.23-22.08-18,1-1,2.31-2.58,2.74-3,.58-.59,4.66-5.37,5.59-6.81,6.73,5.19,17.24,12.62,24.45,16.38,2,1,6.56,1,8.47,3.62s.15,6.72.15,6.72-1.18,6.4-.44,7.49,9.48,4.32,9.48,4.32Z"/><path class="cls-34" d="M295.71,143.86c-2.06,5.49-7.38,12.24-10.3,17.46,0,0-12.38-9.45-16.73-15.37s-15.24-25.27-13.8-25.39c3.63-.28,13.13-5.46,18.44-5.74A15.1,15.1,0,0,0,275,119C277.67,123.79,290,141.15,295.71,143.86Z"/><path class="cls-35" d="M296.39,144.15c-.2.53-1.1.77-1.36,1.31-8.2-4.55-22.24-24.28-23.73-30.36.72-.15,1.27-1.08,1.89-1.11a10.78,10.78,0,0,0,1.77,5C276.73,122.12,290.67,141.44,296.39,144.15Z"/><path class="cls-36" d="M339.77,145.8s2.18-.56,2.78.41,1.06,2.27-.31,3.18-7.46,4.27-8.09,4.7-3.36,2.49-4.31,2-1.86-3-1.42-3.78,5.05-3.5,5.62-3.76Z"/><path class="cls-35" d="M274.66,67.79s1.93-.33,2.86.74,1,1.61.63,2.46a79.62,79.62,0,0,1-5.75,7.1c-.62.64-2.89,3.56-3.89,3.86a2.9,2.9,0,0,1-3.07-2.1c-.18-1.34,3.53-6.12,4-6.75S272.1,69,274.66,67.79Z"/><path class="cls-37" d="M340.19,150.82c.1.1,1.39,1.45,1.9,1.86s3.2,3,3.11,4.29-.76.77-1.05.63a8.61,8.61,0,0,1-.9-.58s.21,1.27.45,2.09.63,3.18.38,3.64-.5,1.61-1.91,1.72-3.34-1.55-4.69-3.18a45.79,45.79,0,0,1-3.37-5.66,4,4,0,0,1-.45-1.2l.49-.34c.44-.3,3.59-2.05,5.89-3.38Z"/><path class="cls-37" d="M272.05,70.11c-.27-.39-1.13-1.61-1.4-2.11s-2.3-3.7-3.62-3.86-.9.6-.82.9a9,9,0,0,0,.4,1,19.94,19.94,0,0,1-2-.84c-.76-.4-3-1.22-3.5-1.07s-1.67.19-2.05,1.56.89,3.57,2.23,5.2a48.73,48.73,0,0,0,4.92,4.39,4.65,4.65,0,0,0,1.43.79c1-1.55,2.2-3.09,2.46-3.42A29.29,29.29,0,0,1,272.05,70.11Z"/><path class="cls-35" d="M284.34,159.3a15.33,15.33,0,0,1,1.35,1.33c1.11,1.28-.9,2.68-2.49,3.11-5.54,1.5-35.43-33.73-31.08-42.45.87-1.74,3.36-3,3.94-1.46C262.68,136.81,269.89,145.64,284.34,159.3Z"/><path class="cls-35" d="M269.07,125.89a2.28,2.28,0,0,1-.09,2.23,7.17,7.17,0,0,1-2.83,2.44c-.71.35-3.32,1.29-3.93.5s.81-3,1.34-3.61a7.26,7.26,0,0,1,3.05-2.21A2.45,2.45,0,0,1,269.07,125.89Z"/><path class="cls-35" d="M326.14,109c1.73,3.64-.48,6.52-3.72,8.22-4.28,2.24-11.75,3.81-17.42-2.83s-2.81-16.27,4.79-20.52a4.66,4.66,0,0,1,4.94.06c1.42,1.06,1,1.35.32,2.92s-2.44,5.7-1.32,7.93,3.13,4.18,5.51,4.54a7.49,7.49,0,0,0,4.28-.7C323.87,108.53,325.36,107.89,326.14,109Z"/><path class="cls-27" d="M324.71,106.32a7.06,7.06,0,0,0-2.27,1.42c-.16.14.27.72.48,1.13a6.91,6.91,0,0,1-3.68.45c-2.38-.36-4.38-2.32-5.51-4.54-.89-1.77.06-4.74.81-6.68.58.39,1.25.88,1.43.79a4.15,4.15,0,0,0,1.93-1.59,27,27,0,0,0,6.47,8.74Z"/><path class="cls-38" d="M338.91,103.78l.91.37.71.65s.67-.67,1.72-1.52,5.32-3.16,7.23-6.9,1.08-9.64-3.56-13.61c-2-3.22-4.07-5.5-6.44-6.66-10-4.89-15,4.93-18,5.94-.41.14.7.94.7.94L323,83l-1.51,1.45c.3.78,1.56.07,2.25-.37,1.63-1.05,4-4,5.56-4.08,2.77-.07,8.82,7,9.81,8.47s6.47,9.35,4.79,10.9-5,2.94-5.67,3.77a1.68,1.68,0,0,0-.41,1.51Z"/><path class="cls-39" d="M342.65,103c-.39-8.46-9.86-19.85-17.69-22.27l-1.71-.61L325.72,78l.25.09c8.7,2.09,19.15,14.44,19.16,23.4,0,.19-.06.35-.49.57a6.22,6.22,0,0,0-1.48,1.07C343,103.33,342.66,103.32,342.65,103Z"/><path class="cls-27" d="M334.87,106.85c1.74,2.27,5.21.09,5.69-1.35.37-1.08-.61-1.81-1.65-1.72l-1.13.91A25.3,25.3,0,0,1,334.87,106.85Z"/><path class="cls-40" d="M315.11,94.24a10.27,10.27,0,0,1,2.55,2.43c.07.21.15.42.24.64h0A4.15,4.15,0,0,1,316,98.89c-.18.09-.85-.4-1.43-.79.19-.5.13-.33.51-1.25s.76-1.45.06-2.61ZM324.35,106l0,0,0,0Zm.32.3c.79,1.31,1.38,1.84,1.47,2.67a7.3,7.3,0,0,0-2.62-.38,4.62,4.62,0,0,0-.6.25c-.21-.41-.64-1-.48-1.13A7.32,7.32,0,0,1,324.67,106.33Z"/><path class="cls-34" d="M314,99.53s2.23,7,7.4,9.77a6.9,6.9,0,0,1-2.19,0c-2.38-.36-4.38-2.32-5.51-4.54C313,103.4,313.46,101.31,314,99.53Z"/><path class="cls-40" d="M265.31,148a21.79,21.79,0,0,1-2.36,1.57,3.4,3.4,0,0,0-2.65,2.95c-.19,2.16,6.8,11.87,9.36,11.91s3.45-3.16,3.45-3.16l2.72-1.95A104,104,0,0,1,265.31,148Z"/><path class="cls-36" d="M260.57,153.77a3.68,3.68,0,0,0-1,.43,3.44,3.44,0,0,0-1.94,2.44c-.21,1,2.87,6.15,4.19,7.57s3.39,3.18,4.34,2.78,3-1.44,2.77-2.73h0C266.39,163,261.75,156.79,260.57,153.77Z"/><path class="cls-6" d="M264.53,166.56l-7,5.56c-2.83,2.23-2.69,7.19-2.71,8.64s-.65,5.29-3.1,4.55-4.11-3.21-4.74-5-.35-5.29-.23-6.76c-1.1-2.63-1-4.17-.67-5.47a13.16,13.16,0,0,1,4-2.72c1.21-.58,5.84-5.07,8-7.28a30.25,30.25,0,0,0,3.79,6.14,15.45,15.45,0,0,0,2.69,2.33Z"/><path class="cls-41" d="M339.43,87.78a1.79,1.79,0,1,1-2.5-.3A1.78,1.78,0,0,1,339.43,87.78Z"/><path class="cls-42" d="M262,143.79c-1.05.63-2.21,1.35-2.72,1.72-1,.74-1.61,2.6-3.75,2.24s-8.69-7.55-8.33-10.5,5.4-4.48,5.4-4.48l1.68-1.13A83.89,83.89,0,0,0,262,143.79Z"/><path class="cls-35" d="M255.53,147.75a3.29,3.29,0,0,1-.76,1,3.44,3.44,0,0,1-2.85,1.26c-1-.06-5.21-4.35-6.24-6s-2.21-4.1-1.58-4.91,1.91-2.4,3.1-1.88h0C248.16,140.3,253.13,146.26,255.53,147.75Z"/><path class="cls-37" d="M244.08,140.73l-7.84,7c-2.69,2.4-6.92,2.84-9.33,2.69s-5.18.54-5.18,3.1,3.06,4.95,5.73,5.2,5.8-.66,8-1.34a9.7,9.7,0,0,0,3.05.39,8.49,8.49,0,0,0,3-2.44c1-1.14,6.51-4.77,9.1-6.06a29.88,29.88,0,0,1-4.95-5.23A14.59,14.59,0,0,1,244.08,140.73Z"/><line class="cls-15" x1="303.12" y1="111.48" x2="299.78" y2="114.05"/><path class="cls-28" d="M276.18,120.88c-2.34,1.84-4.72,3.31-7.11,5"/><path class="cls-28" d="M278.73,123.48c-1.26,1.18-2.6,2-3.92,3.13"/><path class="cls-36" d="M274.84,126.65a2,2,0,0,1-.08,2,6.45,6.45,0,0,1-2.53,2.19c-.64.31-2.48.74-3,0s.24-2.26.71-2.81a6.43,6.43,0,0,1,2.73-2A2.19,2.19,0,0,1,274.84,126.65Z"/><path class="cls-36" d="M299.89,114.07a2,2,0,0,1-.09,2,6.31,6.31,0,0,1-2.53,2.19c-.63.31-2.48.74-3,0s.23-2.26.7-2.81a6.43,6.43,0,0,1,2.73-2A2.21,2.21,0,0,1,299.89,114.07Z"/><line class="cls-43" x1="302.22" y1="104.01" x2="298.88" y2="106.58"/><path class="cls-36" d="M299,106.6a2,2,0,0,1-.08,2,6.34,6.34,0,0,1-2.54,2.18c-.63.32-2.47.75-3,0s.23-2.26.71-2.81a6.37,6.37,0,0,1,2.73-2A2.17,2.17,0,0,1,299,106.6Z"/><line class="cls-43" x1="307.78" y1="116.93" x2="304.44" y2="119.51"/><path class="cls-35" d="M304.55,119.52a2,2,0,0,1-.09,2,6.38,6.38,0,0,1-2.53,2.18c-.63.31-2.47.75-3,0s.23-2.27.7-2.82a6.54,6.54,0,0,1,2.74-2A2.2,2.2,0,0,1,304.55,119.52Z"/><line class="cls-43" x1="315.59" y1="119.13" x2="312.24" y2="121.71"/><path class="cls-36" d="M312.35,121.73a2,2,0,0,1-.08,2,6.53,6.53,0,0,1-2.53,2.18c-.64.32-2.48.75-3,0s.24-2.27.71-2.82a6.52,6.52,0,0,1,2.73-2A2.17,2.17,0,0,1,312.35,121.73Z"/><path class="cls-28" d="M250.7,164.93s1.9,6.7,6.07,7.86"/><path class="cls-28" d="M259.85,161.05s-9.28,7.81-9.74,9.63.27,10.5-1.53,12.47"/><path class="cls-28" d="M236.24,147.73s2,6.37,5.61,7.29"/><path class="cls-28" d="M225.29,158.09c1.89-1.52,3.31-1.72,5.8-2.1a53.76,53.76,0,0,0,6.23-1.52A129.19,129.19,0,0,0,248,146.8"/><path class="cls-44" d="M336.45,105.76c.64.91,1.52,0,1.86-.54s1.35-.69,1.13.33"/><path class="cls-27" d="M319.19,86.81c-2.08-2.2.88-5.22,2.38-5.42,1.06-.14,1.48.9,1.26,1.77C321.35,84.59,320.52,85.4,319.19,86.81Z"/><path class="cls-44" d="M320.3,85.63c-.76-.81.29-1.49.92-1.71s.95-1.17-.09-1.17"/><path class="cls-45" d="M104.51,344.5a23.28,23.28,0,0,0-9.12,11.38A39.73,39.73,0,0,0,93,371c.55,6.29,10.81,10.39,14.94,9.4,8-1.94,20.41-15.5,16.35-24.33-.79-1.7,1.59-3,.1-4.47-5.12-4.89-16.82-8-16.82-8l-1.11,1.66Z"/><path class="cls-46" d="M94.59,361s-2.53,9.11,7.29,14.11c9.12,4.65,15.37-.25,18-4.31s-8.74,2.83-8.74,2.83l-10.58-3.89-3.6-6.6Z"/><path class="cls-5" d="M104.1,380.31a9.9,9.9,0,0,0,3.44.19l2.9-5.67-2.8-1.44Z"/><path class="cls-5" d="M94.48,374.73a11.72,11.72,0,0,0,2.36,2.3l3.73-7.27-2.81-1.43Z"/><path class="cls-27" d="M121.49,367.23l.69-1.78-.69,1.78Zm.72-1.87c-.6-.58-1.44.59-1.86,1.26-1,1.62-1.8,6.37-3.2,7.05-2.46,1.21-12.79-1.14-14.29-2.64s-8.46-6.71-7.6-8.8,3.73-5.68,4-6.7A1.66,1.66,0,0,0,99,354c1.25-2.63,3.2-6.56,7.47-7.12s10.83,2.77,14,6a11.2,11.2,0,0,1,3,8.64A23.54,23.54,0,0,1,122.21,365.36Z"/><path class="cls-8" d="M107.18,357.87c-.77.47-3.14,1.15-5.17-2.08a2.83,2.83,0,0,1,.63-.18"/><path class="cls-29" d="M104.29,357.72a.83.83,0,0,1-.36-1.12.85.85,0,0,1,1.12-.36.83.83,0,1,1-.76,1.48Z"/><path class="cls-47" d="M104.74,357.53a.29.29,0,0,1-.12-.37.28.28,0,0,1,.37-.11.26.26,0,0,1,.11.36A.28.28,0,0,1,104.74,357.53Z"/><path class="cls-8" d="M116.2,356c-.13-1.6-4.78-4.66-7.57-3.94"/><path class="cls-30" d="M112.88,356.27a2.76,2.76,0,0,0-2.44-1.22c-1,.14-.74,1.37-.74,1.37"/><path class="cls-28" d="M112.75,360.73c.07.9.9,3.22,4.7,3a2.77,2.77,0,0,0-.22-.63"/><path class="cls-16" d="M114.55,363a.83.83,0,1,0,.76-1.47.83.83,0,0,0-.76,1.47Z"/><path class="cls-47" d="M115,362.8a.27.27,0,0,0,.36-.12.26.26,0,0,0-.11-.36.27.27,0,0,0-.37.11A.28.28,0,0,0,115,362.8Z"/><path class="cls-48" d="M104.2,361.74a5.39,5.39,0,0,1-2.08-.65c-.67-.5-1.91-1.81-1.91-2.34s1-.49,1.37.1a7.15,7.15,0,0,0,2.49,1.66C104.61,360.67,105.31,361.74,104.2,361.74Z"/><path class="cls-49" d="M107.51,343.57s-3.37-.73-4.76-2.23S90.83,326.69,88,324.83A105.56,105.56,0,0,1,79.71,318s3.59-4.33,4-4.8,1.75-2.48,2.69-4.08c.92.59,6.57,4.14,9.28,6,3,2,8.24,5.1,10.86,7.39.92-.58,6.1-10.33,6.74-12.86a39.71,39.71,0,0,1,1-4.4c.66-1.16,2.25-1.86,5.15-1.83,6.28.07,24.73,10.53,29.21,13.72s6.06,7.06,3.1,9.55-8.69,11.94-9.06,13.22c13.53,1.78,16.3,3.67,27.51,7.05-.52,1.33-1,3.26-1.18,3.85-.26.76-1.9,6.75-2.12,8.41-8.26-1.85-20.86-4.17-28.94-4.55-2.26-.11-6.31,1.82-9.14.26s-3-6-3-6-1.65-6.23-2.78-6.91-10.35.06-10.35.06Z"/><path class="cls-50" d="M167,345.94c1,.32,2.06.65,3.21,1-.52,1.33-1,3.26-1.18,3.85-.26.76-1.9,6.75-2.12,8.41l-3.48-.75C164.29,355.1,165.88,349.17,167,345.94Z"/><path class="cls-50" d="M81.79,319.81c-.94-.82-1.7-1.5-2.08-1.84,0,0,3.59-4.33,4-4.8s1.75-2.48,2.69-4.08c.33.22,1.3.83,2.53,1.6C87.3,313.11,83.75,317.46,81.79,319.81Z"/><path class="cls-51" d="M129.77,306.11c4.87,2.17,9,5,13,7.37-.61,2.69-3.94,7.8-7.11,14-3.41,6.68-6.86,14.52-10.39,19.64-.58-1.9-4.26-2.78-5-3.22s-1.23-1.78-4-1.62l-4.3-2.44c3-6.92,7.11-14.31,11.21-21.69C125.43,314.12,127.32,309.51,129.77,306.11Z"/><path class="cls-52" d="M120.13,301.47c-.49-5.78,1.43-14,1.84-19.92,0,0,15.14,3.34,21.56,6.84s24.42,16.36,23.18,17.06c-3.14,1.76-9.48,10.33-14.13,12.79a14.74,14.74,0,0,0-3.24-3.05C144.86,312,126.42,301.53,120.13,301.47Z"/><path class="cls-53" d="M121.1,288.75c.21-1.49.42-3,.59-4.35,5.65,2.38,15.51,6,15.54,6l1.92.7-.64,1.95c-.49,1.5-.86,2.81-1.22,4.11a78,78,0,0,1-3.14,9.34c-1.3-.64-2.59-1.26-3.85-1.82a70.87,70.87,0,0,0,2.91-8.68c.22-.76.43-1.53.67-2.32-2.9-1.08-8.55-3.21-12.78-4.95ZM164.7,307c-.91.84-1.94,1.9-3,3-4.78-3.45-9.45-6.61-11.78-8.17a73,73,0,0,0-4.38,6c-.74,1.11-1.49,2.22-2.36,3.43-1.17-.67-2.42-1.37-3.73-2.08.83-1.13,1.7-2.42,2.57-3.72a63.81,63.81,0,0,1,6-7.88l1.22-1.33,1.5,1S157.71,301.93,164.7,307Z"/><path class="cls-54" d="M79.71,318s-1.72,1.4-2.67.79-1.92-1.6-1.08-3,4.89-6.92,5.27-7.57,2-3.62,3-3.55,3,1.94,2.88,2.8-3.05,5.23-3.45,5.71S79.71,318,79.71,318Z"/><path class="cls-55" d="M171.35,361s-1.59,1.1-2.88.53-1.57-1-1.62-1.95,1.87-7.92,2.15-8.75,1.09-4.39,1.86-5.07a2.89,2.89,0,0,1,3.65.61c.73,1.12-.57,6.94-.73,7.7S173.12,358.78,171.35,361Z"/><path class="cls-28" d="M77.2,313.64c-.14,0-1.87-.72-2.5-.88s-4.14-1.33-4.62-2.55.36-1,.67-1a8.65,8.65,0,0,1,1.06.14,21.16,21.16,0,0,0-1.29-1.69c-.57-.63-1.92-2.58-1.89-3.1a2.23,2.23,0,0,1,1-2.34c1.22-.68,3.66,0,5.57.91a48.52,48.52,0,0,1,5.43,3.68,3.89,3.89,0,0,1,.91.9l-.3.5c-.27.46-2.35,3.33-3.85,5.47Z"/><path class="cls-28" d="M173.13,357.11c.41.23,1.7,1,2.15,1.3s3.65,2.37,4.9,2,.55-.91.35-1.15a8.8,8.8,0,0,0-.78-.72,20.08,20.08,0,0,1,2.12-.07c.86,0,3.22-.15,3.6-.49a2.22,2.22,0,0,0,1.19-2.25c-.24-1.38-2.32-2.83-4.22-3.74a47,47,0,0,0-6.29-1.89,4.57,4.57,0,0,0-1.62-.12c-.25,1.81-.66,3.68-.75,4.08A30.76,30.76,0,0,1,173.13,357.11Z"/><path class="cls-10" d="M110,347.14a6.64,6.64,0,0,0,1.44-2.21c.09-.2-.54-.54-.91-.82a6.78,6.78,0,0,1,3.12-1.93c2.29-.66,4.92.27,6.88,1.8,1.55,1.21,2,4.27,2.11,6.32-.69-.12-1.77-.53-1.89-.38-.52.62-1.33,1.4-.79,2.48a27.42,27.42,0,0,0-9.53-5.16Z"/><path class="cls-56" d="M98.33,355.3l-1,0-.91-.28a2.8,2.8,0,0,1,.09,2.41c-.58,1.2-.2,1-.34,5.15s1.86,7.72,7.1,10.1c3.16,2.06,3.69,2.46,6.31,2.38,9-.28,11.42-6.61,12.61-9.74-.6-.58-1.44.59-1.86,1.26-1,1.62-2.55,4.47-3.95,5.15-.8.39-4.35.82-5.09.4-.35-.2,1-.65,1.49-1.28-.87-.68-2.6-.58-3.13-.82-.09-.2,1.14-.08,1.67-.61-1-1.36-4.12-2.92-5.5-3.34-1.79-.55-4.06-1.7-6.8-.51-2.85-.91-2.11-3.81-1.62-5a39.81,39.81,0,0,0,1.8-5.08A1.66,1.66,0,0,0,99,354Z"/><path class="cls-33" d="M122.49,348.8s-5-5.3-10.8-5.69a6.88,6.88,0,0,1,2-.93c2.29-.66,4.92.27,6.88,1.8C121.73,344.92,122.25,347,122.49,348.8Z"/><path class="cls-57" d="M146,291.23c.18-.35,4.13-6.71,4.3-7.43a3.34,3.34,0,0,1,2.38-3.1c2.08-.57,12.86,4.49,13.38,7s-2.43,3.92-2.43,3.92l-3.24,5.81C157,294.81,151,294,146,291.23Z"/><path class="cls-55" d="M153.51,280.68a3.2,3.2,0,0,1,.25-1.23,3.39,3.39,0,0,1,2-2.31c.93-.36,6.54,1.75,8.16,2.79s3.72,2.76,3.5,3.75-.69,2.94-2,3h0C163.3,284.31,156.3,281,153.51,280.68Z"/><path class="cls-58" d="M166.78,282.24l4.43-7.66c1.78-3.08,6.67-3.61,8.1-3.83s5.1-1.36,4-3.66-3.75-3.58-5.61-4-5.25.39-6.68.71c-2.74-.72-4.25-.44-5.47.09a12.45,12.45,0,0,0-2.08,4.31c-.41,1.31-4.43,6.82-6.21,9.05a30.57,30.57,0,0,1,6.67,2.64A14.46,14.46,0,0,1,166.78,282.24Z"/><path class="cls-57" d="M144.71,287.57c.46-1.24,1.85-5.18,2.27-6.06s2.24-2,1.48-4.05-9-7.09-11.81-6.22-3.35,6-3.35,6l-2.19,4.45A102.86,102.86,0,0,1,144.71,287.57Z"/><path class="cls-55" d="M147.76,276.86c.29-.21.12-.92.67-1.78s1.08-1.17.84-2.14-4.49-3.68-6.28-4.39a13.85,13.85,0,0,0-3.75-1c-.71-.05-2.65,3.65-2.26,3.71l-.33-.05C139.81,271.63,145.86,274.79,147.76,276.86Z"/><path class="cls-58" d="M139.46,267.59l5.37-8.87c1.83-3,1.47-7.22.86-9.54s-.44-5.12,2.06-5.58,5.4,2.09,6.15,4.63.44,5.76.21,8.06a9.92,9.92,0,0,1,.95,2.9,8.31,8.31,0,0,1-1.83,3.32,53.28,53.28,0,0,0-4.2,9.92,30.41,30.41,0,0,0-6-3.88A15.09,15.09,0,0,0,139.46,267.59Z"/><path class="cls-8" d="M163.16,268.93s6.85.94,8.61,4.87"/><path class="cls-8" d="M160.69,278.41s6.31-10.15,8-10.85,10.36-1.16,12-3.2"/><path class="cls-8" d="M144.83,258.72s6.59.83,8.16,4.16"/><path class="cls-28" d="M152.88,246.24c-1.13,2.11-1.06,3.52-1,6a53.89,53.89,0,0,1-.32,6.32,125.27,125.27,0,0,1-5.48,11.74"/><path class="cls-55" d="M100,355.18c-3.39,6.13-1,12,4.17,14.73,7.28,3.79,12.26,1.62,15.71-5a15,15,0,0,0,1-9.69c-.51-1.52-1.35-4.94.36-5.1l1.18,1.84a8.34,8.34,0,0,1,.8,2.86,9.49,9.49,0,0,1,1.08,4.32c.67,2-.26,5.14-1.37,6.5a15.41,15.41,0,0,1-5.42,7.41,7.08,7.08,0,0,1-4.94,2.53,9.09,9.09,0,0,1-6.83-.15,13.88,13.88,0,0,1-7.18-4,8.84,8.84,0,0,1-3.31-7.37,8,8,0,0,1,.21-6.77,12.87,12.87,0,0,1,3.1-5.89,8.87,8.87,0,0,1,3.89-3.85,5.69,5.69,0,0,1,2.74-1.3c1-.22,2.56-1.09,3.45-1a18.78,18.78,0,0,0,3.07-.16c-.17.57-.27,1.05-2.5,1.76a12.59,12.59,0,0,0-4.89,2.67C103,350.52,101.74,352.05,100,355.18Z"/><path class="cls-48" d="M111.19,365.33a5.35,5.35,0,0,0,1.73,1.3c.81.26,2.6.5,3,.19s-.16-1.06-.88-1.06a7.13,7.13,0,0,1-2.8-1.05C111.82,364.36,110.54,364.43,111.19,365.33Z"/><path class="cls-49" d="M106.68,345.31s6.31-.27,8-.48,3.8-2.11,3.8-2.11l-1.12-.2c-.93.62-1.93.5-3-.54l-6.48-10.61c-1.48.46-7.27,4.33-9,5.36l-1.37-.32c.81,1.65,5.4,5.36,6.81,7.07C105,344.29,105.22,345.09,106.68,345.31Z"/><path class="cls-53" d="M112.44,345c.94-.06,1.77-.12,2.24-.18a4.13,4.13,0,0,0,1.13-.33,34.74,34.74,0,0,1-5.16-7.27c-.79-1.33-1.57-2.64-2.36-3.81l-.76-1.12-1.15.7c-.78.48-1.7,1.08-2.6,1.67a26.82,26.82,0,0,1-5.33,3c.58.65,1.35,1.4,2.15,2.16a40.31,40.31,0,0,0,4.73-2.81l1.36-.88c.51.81,1,1.67,1.53,2.53A48.71,48.71,0,0,0,112.44,345Z"/><path class="cls-54" d="M97.37,336.55c-.36-.12-1.11-1.2-.35-1.42a6.61,6.61,0,0,0,1.21-.2c.79-.42,1.49-1.5,2.67-1.82a20.2,20.2,0,0,1,4.76-2.73c1.22-.89,3-1.42,3.62-1a4.84,4.84,0,0,1,1.43,2.61,10.39,10.39,0,0,1,3.1,5.49c1.69,1.89,2.14,2.91,2.31,3.71.59.24,1.15,1.11.67,1.65s-1.58,0-2.45-.82l-6.48-10.61c-1.48.46-7.27,4.33-9,5.36A2.25,2.25,0,0,1,97.37,336.55Z"/><path class="cls-54" d="M136.58,305.55c.55-.74,5.58-13.84,5.58-13.84a2.15,2.15,0,0,0-1-2.22c-1.31-.58-19.49-6.88-19.49-6.88s-.35-.14.34-1.64a2.78,2.78,0,0,1,3.17-1.83c1.24.3,13.77,4.62,16.61,6s4.35,3.59,3.08,6.15l-6.94,14Z"/><path class="cls-54" d="M138.54,307.88c.28-.87,8.62-13.6,8.62-13.6a2.15,2.15,0,0,1,2.42-.44c1.23.72,16.95,11.81,16.95,11.81s.32.21,1.14-1.23a2.77,2.77,0,0,0-.36-3.64c-1-.83-11.79-8.49-14.56-10s-5.22-1.4-7,.76-9.8,15-9.8,15Z"/><path class="cls-52" d="M123.8,354.09s-3.47-5.28-4.29-6.78S119,343,119,343l.82.79c0,1.11.72,1.86,2.2,2.14l12.39-.93c.5,1.47.73,8.42.89,10.42l1.06.92c-1.81.31-7.5-1.25-9.71-1.41C125.6,354.86,124.82,355.14,123.8,354.09Z"/><path class="cls-51" d="M120.69,349.27c-.51-.82-1-1.54-1.18-2a4.52,4.52,0,0,1-.38-1.09,34.57,34.57,0,0,0,9,0c1.54-.13,3.06-.26,4.47-.3l1.35,0,.11,1.34c.07.91.11,2,.16,3.09a26.16,26.16,0,0,0,.66,6.06c-.87-.09-1.93-.28-3-.48a38.86,38.86,0,0,1-.47-5.46c0-.53-.05-1.07-.08-1.62-1,.06-1.95.14-2.95.23A49.32,49.32,0,0,1,120.69,349.27Z"/><path class="cls-55" d="M136.34,356.54c.3.22,1.62.2,1.36-.55-.09-.25-.49-.72-.54-1.09-.12-.89.35-2.09-.09-3.23a20,20,0,0,0-.56-5.46c0-1.51-.57-3.23-1.27-3.55a4.88,4.88,0,0,0-2.94.36,10.5,10.5,0,0,0-6.28.69c-2.51-.27-3.61,0-4.36.29-.53-.35-1.57-.29-1.73.41s.91,1.29,2.1,1.52l12.39-.93c.5,1.47.73,8.42.89,10.42A2.29,2.29,0,0,0,136.34,356.54Z"/><path class="cls-59" d="M141.1,317.46a154,154,0,0,0-13.76-7.35"/><path class="cls-60" d="M116.12,341.15s13.4-25.78,15.24-29.1"/><path class="cls-60" d="M121.8,344.07S135.2,318.28,137,315"/><path class="cls-46" d="M118.47,303.28c0-.48.48-1,.69-1.56.07-.17.17-.49.53-.49,9.51,0,29,11.46,33.47,16.88a.45.45,0,0,1-.09.64c-.64.55-.49,1.36-1.08,1.74a29.56,29.56,0,0,0-4.45-3.63C144.67,314.68,125,302.85,118.47,303.28Z"/><path class="cls-60" d="M119.9,333.87a22.61,22.61,0,0,0-4.08-2.06"/><path class="cls-59" d="M123.46,327.1a22.61,22.61,0,0,0-4.08-2.06"/><path class="cls-60" d="M127.36,319.51a22.65,22.65,0,0,0-4.08-2.07"/><path class="cls-60" d="M130,339a22.43,22.43,0,0,0-4.09-2.07"/><path class="cls-59" d="M133.51,332.26a22.65,22.65,0,0,0-4.08-2.07"/><path class="cls-60" d="M137.41,324.67a22,22,0,0,0-4.08-2.07"/><polyline class="cls-60" points="130.76 303.55 134.75 303.62 132.21 300.55 136 299.74 133.34 296.76 137.64 295.4"/><polyline class="cls-59" points="114.88 344.17 111.69 343.11 112.57 341.33 109.87 340.47 111.04 338.36 107.97 337.65 109.02 335 106.73 335.86 104.52 334.33 104.58 337.23 101.94 335.86 102.86 338.61 99.72 337.37 100.85 339.72"/><polyline class="cls-59" points="117.6 339.39 118.8 342.74 122.42 341.7"/><polyline class="cls-60" points="118.21 338.19 119.41 341.54 123.03 340.5"/><polyline class="cls-60" points="118.77 337.1 119.97 340.46 123.59 339.42"/><polyline class="cls-60" points="129.35 316.84 130.56 320.2 134.17 319.16"/><polyline class="cls-60" points="129.9 315.78 131.1 319.14 134.72 318.09"/><polyline class="cls-60" points="130.43 314.75 131.63 318.11 135.25 317.07"/><path class="cls-61" d="M130.48,320.31a1.46,1.46,0,1,0,.63,2A1.46,1.46,0,0,0,130.48,320.31Z"/><polyline class="cls-60" points="125.11 324.68 126.31 328.04 129.93 326.99"/><polyline class="cls-60" points="125.66 323.62 126.86 326.97 130.47 325.93"/><polyline class="cls-60" points="126.18 322.59 127.39 325.94 131 324.9"/><path class="cls-62" d="M126.24,328.15a1.45,1.45,0,1,0,.62,2A1.45,1.45,0,0,0,126.24,328.15Z"/><polyline class="cls-60" points="121.26 332.19 122.46 335.54 126.08 334.5"/><polyline class="cls-60" points="121.81 331.12 123.01 334.48 126.62 333.44"/><polyline class="cls-59" points="122.33 330.1 123.53 333.45 127.15 332.41"/><path class="cls-62" d="M122.38,335.65a1.45,1.45,0,0,0-1.32,2.59,1.45,1.45,0,0,0,1.32-2.59Z"/><polyline class="cls-63" points="117.52 331.18 119.3 330.01 119.51 332.07"/><polyline class="cls-63" points="119.78 326.77 119.87 328.9 121.66 327.87"/><path class="cls-61" d="M119.92,328.79a.74.74,0,0,0-.67,1.32.74.74,0,1,0,.67-1.32Z"/><polyline class="cls-64" points="121.21 324.11 123 322.94 123.2 325"/><polyline class="cls-63" points="123.47 319.7 123.57 321.83 125.36 320.8"/><path class="cls-61" d="M123.62,321.72a.74.74,0,0,0-1,.32.76.76,0,0,0,.32,1,.75.75,0,0,0,1-.33A.73.73,0,0,0,123.62,321.72Z"/><polyline class="cls-64" points="125.38 316.42 127.16 315.25 127.37 317.31"/><polyline class="cls-63" points="127.64 312.01 127.73 314.14 129.53 313.11"/><path class="cls-61" d="M127.79,314a.74.74,0,1,0,.32,1A.74.74,0,0,0,127.79,314Z"/><polyline class="cls-64" points="116.12 338.68 116.03 336.55 114.23 337.58"/><polyline class="cls-63" points="118.38 334.27 116.6 335.44 116.39 333.38"/><path class="cls-61" d="M116.66,335.33a.74.74,0,1,1-1,.32A.74.74,0,0,1,116.66,335.33Z"/><polyline class="cls-64" points="127.25 336.34 129.04 335.18 129.25 337.23"/><polyline class="cls-64" points="129.51 331.93 129.61 334.06 131.4 333.03"/><path class="cls-61" d="M129.66,334a.74.74,0,1,0,.32,1A.75.75,0,0,0,129.66,334Z"/><polyline class="cls-64" points="130.95 329.27 132.73 328.1 132.94 330.16"/><polyline class="cls-64" points="133.21 324.86 133.3 326.99 135.09 325.96"/><path class="cls-62" d="M133.36,326.88a.74.74,0,1,0-.68,1.32.75.75,0,0,0,1-.33A.74.74,0,0,0,133.36,326.88Z"/><polyline class="cls-64" points="135.12 321.58 136.9 320.41 137.11 322.47"/><polyline class="cls-64" points="137.38 317.17 137.47 319.3 139.26 318.27"/><path class="cls-62" d="M137.52,319.19a.74.74,0,1,0,.32,1A.72.72,0,0,0,137.52,319.19Z"/><polyline class="cls-64" points="125.86 343.84 125.76 341.71 123.97 342.74"/><polyline class="cls-64" points="128.12 339.43 126.33 340.6 126.12 338.54"/><path class="cls-62" d="M126.39,340.49a.74.74,0,1,1-1,.32A.74.74,0,0,1,126.39,340.49Z"/><path class="cls-60" d="M121.85,284.66l1.09,4.38,2.48-2.49,1,3.7,2.41-2.39.83,3.7,2.63-2.49,1.11,4,2.91-2.72,1.38,4.67c-1.59-.5-2.59-.9-3.78-1.36"/><path class="cls-60" d="M149.85,301.92c-1.15-.77-2-1.42-3.21-2.19l4.79-1.59-.07,4.73,4.58-2-.8,4.6,4.27-2.2-1,4.48,4.51-2-1.81,3.93,2.5-1.59"/><path class="cls-65" d="M133.48,138.54l10.73,8c2.86,2.11,7.56.66,9,.29s5.22-.78,5.13,1.76-2,4.78-3.57,5.86-5,1.74-6.41,2c-2.23,1.75-3.73,2.1-5.06,2.09a12.84,12.84,0,0,1-3.62-3.13c-1-1.15-10.4-7.18-12.91-8.52a31.24,31.24,0,0,0,5.06-5.07A13.51,13.51,0,0,0,133.48,138.54Z"/><path class="cls-39" d="M133.48,138.54l3,2.21c-.91,4.62-5.08,8-6.42,8.09-1.42-.88-2.63-1.61-3.32-2a31.24,31.24,0,0,0,5.06-5.07A13.51,13.51,0,0,0,133.48,138.54Z"/><path class="cls-65" d="M114.45,162.34l11.86,9.19c2.8,2.17,4.22,6.05,4.58,8.41s1.64,4.88,4.11,4.31,4.13-4.07,3.8-6.7-1.88-5.46-3-7.48a9.92,9.92,0,0,0-.28-3,8.19,8.19,0,0,0-3-2.33c-1.32-.75-9.4-8.4-11.2-10.61a31.32,31.32,0,0,1-4,6A13.49,13.49,0,0,1,114.45,162.34Z"/><path class="cls-39" d="M114.45,162.34l3.58,2.77a15,15,0,0,0,6.43-7.7c-1.4-1.38-2.58-2.61-3.15-3.31a31.32,31.32,0,0,1-4,6A13.49,13.49,0,0,1,114.45,162.34Z"/><path class="cls-66" d="M37.32,75.75a3.54,3.54,0,0,0-1.22-2.7c-1.31-1.08-4.33-3.37-6.73.44S30.25,83.66,32,85.06s5.45-4.39,5.45-4.39Z"/><path class="cls-67" d="M35.61,76.33s-1.23-1.25-2.44-.5-.46,2.63.34,3.19,3.56-1.44,3.56-1.44Z"/><path class="cls-40" d="M116.19,141.33c.3.25,5.68,3.89,6.12,4.48a3.35,3.35,0,0,0,3.42,1.9c2.13-.31,9.26-8.93,8.75-11.41s-3.78-2.63-3.78-2.63L123.54,128C121.48,131.72,119.69,136.85,116.19,141.33Z"/><path class="cls-40" d="M112.33,143.34c.91.95,6.34,5.57,7.08,6.21s2.85,1,3,3.12-5.43,10.09-8.36,10.41-5.48-4.21-5.48-4.21l-6.09-5.12A96.82,96.82,0,0,0,112.33,143.34Z"/><path class="cls-28" d="M133.21,146.94s9.83,6.81,11.69,6.76,10-3,12.31-1.84"/><path class="cls-28" d="M138.84,179.56c-1.88-1.48-2.38-2.81-3.27-5.13a54.21,54.21,0,0,0-2.8-5.67,128,128,0,0,0-9.7-8.6"/><path class="cls-27" d="M43.84,103c.48.33,1,.69,1.59,1.06L43.84,103Zm1.67,1.11c.69-.47-.27-1.53-.84-2.09-1.36-1.34-5.83-3.11-6.21-4.62-.66-2.67,3.83-12.26,5.62-13.4s8.36-6.85,10.21-5.56,4.77,4.85,5.71,5.29a1.65,1.65,0,0,0,1.54.06c2.31,1.77,5.74,4.52,5.37,8.81s-5,10-8.83,12.44A11.2,11.2,0,0,1,49,106.17,25.14,25.14,0,0,1,45.51,104.15Z"/><path class="cls-28" d="M56,91.05c-.3-.86-.46-3.32,3.12-4.61a2.89,2.89,0,0,1,.05.66"/><path class="cls-29" d="M56.78,88.26A.84.84,0,0,1,58,88.15a.83.83,0,0,1-1.05,1.28A.83.83,0,0,1,56.78,88.26Z"/><path class="cls-68" d="M56.88,88.74a.27.27,0,1,1,.42.34.27.27,0,1,1-.42-.34Z"/><path class="cls-28" d="M56,100.26c1.58.22,5.57-3.67,5.45-6.56"/><path class="cls-30" d="M56.89,96.34c.4,0,1.64-1.12,1.71-2.13s-1.19-1-1.19-1"/><path class="cls-28" d="M52.05,95.89c-.9-.13-3.34.19-3.92,4a2.92,2.92,0,0,0,.66-.09"/><path class="cls-29" d="M49.46,97.17a.84.84,0,0,0,.11,1.17.83.83,0,1,0-.11-1.17Z"/><path class="cls-47" d="M49.54,97.66a.28.28,0,0,0,0,.38A.27.27,0,0,0,50,98a.26.26,0,0,0,0-.38A.27.27,0,0,0,49.54,97.66Z"/><path class="cls-31" d="M54,86.67a2.72,2.72,0,0,1,.61-1.14,3.1,3.1,0,0,1,1.69-.73c.34.1.23.67-.19.81a3.77,3.77,0,0,0-1.29,1.21C54.65,87.12,53.89,87.35,54,86.67Z"/><path class="cls-31" d="M46.87,95.33a2.79,2.79,0,0,0-1,.82,3.06,3.06,0,0,0-.39,1.8c.16.32.71.1.76-.34a3.67,3.67,0,0,1,.94-1.51C47.44,95.89,47.51,95.11,46.87,95.33Z"/><path class="cls-27" d="M43.84,103c.48.33,1,.69,1.59,1.06L43.84,103Zm4.39,2.77c-1.73,2.66-5.33.3-5.78-1.19S43.79,103,43.79,103l1.13-.71c.55.59,1.19,1.44.59,1.85C46.51,104.79,47.52,105.42,48.23,105.81Z"/><path class="cls-69" d="M108.39,115.69c5.75.75,12.55,6.52,17.3,9.64.54,6.14-10,15.25-14.25,23.19l-1.15-1.15c-6.59,6.35-7.84,7.61-12.3,11-2.58-3.07-11-10.06-12.88-14.51,1.18-.54,5-1.49,3.67-2.52l-35.17-27.4,5-6.48L71.31,93.85l3.1-2.15L91,108.8Z"/><path class="cls-70" d="M90.77,151.78c-2.6-2.61-5-5.49-5.66-7.95,1.18-.54,5-1.49,3.67-2.52l-12.17-9.48,2.45-6.22,3.17-1.82,2.23-.11,18.76,17.21A124.43,124.43,0,0,1,90.77,151.78Z"/><path class="cls-70" d="M108.39,115.69c3.29.43,6.93,2.5,10.33,4.79a119.16,119.16,0,0,1-12.83,17.82L84.83,119.52l-11.14-1.58c-1.39-3.88-3.55-7.18-7.39-9.19l1.33-6.57,30.44,8.59Z"/><path class="cls-71" d="M105.61,71.15c.07-.13,1.1-1.68,1.4-2.25s2.18-3.76,3.47-4,.9.56.83.86a9.57,9.57,0,0,1-.36,1s1.18-.49,1.92-.91,2.94-1.32,3.43-1.18,1.66.12,2.08,1.46-.79,3.57-2.07,5.25a47.88,47.88,0,0,1-4.75,4.52,4,4,0,0,1-1.07.7l-.43-.39c-.39-.36-2.75-3-4.53-4.93Z"/><path class="cls-71" d="M43.26,153.49c-.32.34-1.32,1.44-1.74,1.82s-3.09,3.06-3,4.36.77.73,1,.59a9.44,9.44,0,0,0,.87-.61,18.14,18.14,0,0,1-.39,2.09,10,10,0,0,0-.28,3.62c.26.45.54,1.58,1.94,1.64s3.26-1.66,4.56-3.33a46.82,46.82,0,0,0,3.18-5.74,4.24,4.24,0,0,0,.46-1.56c-1.72-.63-3.45-1.43-3.83-1.6S44.56,154.17,43.26,153.49Z"/><path class="cls-10" d="M65.91,96.09A6.88,6.88,0,0,0,67.77,98c.17.12.63-.42,1-.72.44.63-1.62,2.35-1.48,4.38s.68,1.47-1,2.89-4.07,3.54-6.1,3.24c.26-.64.58-1.4.46-1.56a4,4,0,0,0-2-1.5,27.41,27.41,0,0,0,7.07-8.21Z"/><path class="cls-38" d="M60.42,83l.16-1,.48-.84a22.06,22.06,0,0,1-1.84-1.32C58.18,79,55,75.4,51,74.39s-9.55,1.12-12.39,6.5c-2.69,2.65-4.45,5.16-5.07,7.72C31,99.33,40,99.84,41.58,102.53c.22.36,1.21.1,1.21.1l1,.38,1.72,1.14c.69-.47-.27-1.53-.84-2.09-1.36-1.34-4.75-3-5.13-4.46-.66-2.66,4.91-10.1,6.09-11.38s7.65-8.36,9.51-7.07,3.92,4.18,4.86,4.62a1.65,1.65,0,0,0,1.54.06Z"/><path class="cls-27" d="M64.19,86.23c1.94-2.2-.95-5.12-2.46-5.27a1.3,1.3,0,0,0-.76.13l.09.06-.48.84-.16,1,1.12.88-.07,0a23.19,23.19,0,0,1,2.72,2.36ZM60,83.78a2.09,2.09,0,0,0,.52.17,2.4,2.4,0,0,1-.53-.13Z"/><path class="cls-8" d="M92.33,136.66c1.41,1,2.44,2.08,3.86,3.09"/><path class="cls-8" d="M139.25,154.66s5.92-3.59,6-7.89"/><path class="cls-8" d="M126.49,171.31s5.72-3.38,5.84-7.06"/><path class="cls-65" d="M76.92,92.35s-5.57-1.07-3.8-2.11,17-8.69,19.25-10.87,11.09-8,12.33-8.94c2.24,2.42,4.36,4.75,6.28,6.66-.76.79-9.76,8.94-12.16,11.19-2.63,2.46-12.6,7.71-15.4,9.78.19.52,9.24,5.36,10.16,8,1.1.68,2.1,2.07,3.29,2.74,3.75.5,13.44,6.11,19,8.78-2.09,4.4-7.9,13-11.62,16L85.53,117.11l-10.59-.93a14.42,14.42,0,0,0-7.1-8.82c.22-1.44,2.7-10.66,2.7-10.66l6.38-4.35Zm22.7,47.79L82.23,123.79l-11-1.94c-.6-4.49-4.52-11.36-13.6-13.44a35.84,35.84,0,0,1-3.33,4.39c-2.12,2.44-1.1,6.81-1.68,9-2.09,7.8-7.25,23.43-10.82,31.1.66.24,7.83,3.4,8.54,3.87,5.68-10.24,9.83-18.2,14.44-31,.14.08,5.91,4.61,8.34,5.69,1,1,1.81,1.8,2.74,2.87,2.14,4.38,11.9,15.6,12,15.75A46.37,46.37,0,0,0,99.62,140.14Z"/><path class="cls-70" d="M44.78,145.76c2.53,1,6.7,2.66,9.37,4-1.2,2.26-2.45,4.55-3.79,7-.71-.47-7.88-3.63-8.54-3.87C42.73,151,43.74,148.48,44.78,145.76Z"/><path class="cls-69" d="M43.85,148.14c2.52,1,6.49,2.59,9.09,3.93-.83,1.53-1.69,3.08-2.58,4.7-.71-.47-7.88-3.63-8.54-3.87C42.46,151.54,43.14,149.92,43.85,148.14Z"/><path class="cls-70" d="M99.2,74.22c1.92-1.34,3.74-2.57,4.77-3.28l6.23,6.89c-.91.85-2.48,2.29-4.19,3.85A74.15,74.15,0,0,1,99.2,74.22Z"/><path class="cls-39" d="M76.92,92.35a20.06,20.06,0,0,1-3-.81l2.9-2,.64,3.83c-.26.13-5.92,4.06-5.92,4.06L69,106.64a18.81,18.81,0,0,1,6.88,8.52l10.53.94,17.74,15.8a94.39,94.39,0,0,0,10.59-14.84c.41.2.8.4,1.17.57-2.09,4.4-7.9,13-11.62,16L85.53,117.11l-10.59-.93a14.42,14.42,0,0,0-7.1-8.82c.22-1.44,2.7-10.66,2.7-10.66Z"/><path class="cls-72" d="M72,90.38c0,1.25.16,1.86.93,2.19A32.07,32.07,0,0,0,77.4,95a21,21,0,0,1,6,3.1c1.07.22,3-1.12,3.89-1.4,2.77-.86,8.07-2,9.53-6.87-2.33-1.43-2.57-3.24-3.83-4.1-2.09-1.43-2.4-3.49-3.27-4.49-1.2-1.37-2.82-1.35-5.67-.34C80.1,82.28,71.9,84.78,72,90.38Z"/><path class="cls-73" d="M66.32,96.66c1.85,2.4.32,5.25.19,7.86l10.62-5.06L71,93.57C69,95,67.82,95.62,66.32,96.66Z"/><polyline class="cls-28" points="110.29 147.38 84.46 123.68 82.23 123.79"/><path class="cls-72" d="M48.74,117.7s2.24-6,5.43-6.54c1.29-.23.74-.11,1.07.56.49,1,1.54,2.84,2.13,3.75,1,1.51,3.54,7,7.43,10.26-.31,2.89-1,10.21-4.43,11.26-1.17.35-5.54-2.46-6.63-3.53-1.8-1.78-2.85-1.28-4-1.94a5.53,5.53,0,0,1-2.45-5.9C48.05,120.43,48.74,117.7,48.74,117.7Z"/><path class="cls-73" d="M59.23,105.17c2.71,1.36,4.75,0,7.28-.65l-2.9,11.39-7-4.86C57.62,108.77,58.76,106.32,59.23,105.17Z"/><path class="cls-31" d="M93.58,106.11l3.49,2.48s-6.5,8.44-8.4,10.56-10,11.93-13,15.42L73,131.82c-.46-.49,7-9,9.63-12.46S93.58,106.11,93.58,106.11Z"/><rect class="cls-74" x="81.55" y="119.13" width="5.5" height="3.69" transform="translate(-62.68 109.27) rotate(-50.58)"/><rect class="cls-74" x="86.14" y="114.84" width="3.52" height="3.35" transform="translate(-57.93 110.43) rotate(-50.58)"/><rect class="cls-74" x="89.18" y="111.03" width="3.52" height="3.35" transform="translate(-53.87 111.38) rotate(-50.58)"/><rect class="cls-74" x="92.18" y="107.66" width="3.22" height="3.35" transform="translate(-50.23 112.35) rotate(-50.58)"/><rect class="cls-74" x="79.04" y="123.48" width="3.52" height="3.35" transform="translate(-67.19 108.1) rotate(-50.58)"/><rect class="cls-74" x="76.22" y="126.92" width="3.52" height="3.35" transform="translate(-70.88 107.17) rotate(-50.58)"/><rect class="cls-74" x="74.21" y="129.94" width="2.52" height="3.35" transform="translate(-74.12 106.32) rotate(-50.57)"/><path class="cls-75" d="M55,74c-6.7-1.87-13.43-2.52-20.4,3.32-2,2.81-3.82,8.5-1.6,15.89s11-4.85,11-4.85Z"/><path class="cls-76" d="M47.3,77.49s-4.73-3.11-12.73-.17"/><path class="cls-76" d="M37.2,89.77s-4-4-2.63-12.45"/><path class="cls-77" d="M43.29,102.82s-1.92-2.3.24-8c1.28-3.36,4.53-8.89,7.42-11,7.76-5.54,10-2.8,10-2.8s2.45-1-.18-5-16.91-7.84-25.51,10c-3.92,8.1-2.44,12.15.25,15.15C38.74,104.81,42.21,105,43.29,102.82Z"/><path class="cls-69" d="M101.19,72.84c1.7-1.17,3.08-2.1,3.51-2.41,2.24,2.42,4.36,4.75,6.28,6.66-.27.28-1.55,1.47-3.21,3A72.93,72.93,0,0,1,101.19,72.84Z"/><path class="cls-78" d="M320.11,285.84a56.3,56.3,0,0,1-.31,6.53c-.34,2.15-1.07,3.05-1.71,2.52s.11-1.74-.66-1.72-1.92,2.87-2.62,3.56-3.36,2-4.32-1.18c-1.06-3.5,2.84-10.17,4.42-12a28.16,28.16,0,0,0,5,2.14Z"/><path class="cls-79" d="M329.1,269.1c-3.14,5.5-5.8,12-8.37,17.17a22,22,0,0,1-6.31-3c1.83-9.5,5.85-16.16,7.41-20.95,1.39-4.3.88-7.77,2.14-11l13.86.78,3.24-.8Z"/><path class="cls-80" d="M322.94,281.64c-.53,1.13-1.05,2.24-1.56,3.31a37.09,37.09,0,0,1-6.72-2.86c.28-1.31.61-2.56.95-3.76,1.85.93,5.57,2.57,7.33,3.31Zm-6.16-.61-.14-1.31-1,.84.2,1.37,1-.9Zm2.94,1.27-.6-1.72-1.64.76.61,1.7,1.63-.74Zm1.89.82-.22-1.36-1.09.82.21,1.36Z"/><path class="cls-81" d="M345.08,206.57c-.31-6.33-.93-12.64-1.41-18.82a22.31,22.31,0,0,0-7-.17,121.54,121.54,0,0,0-.8,22.72c-.07,5.56-2.68,8-2.72,12.63l13.41,4.28Z"/><path class="cls-78" d="M343.12,187.51a55.94,55.94,0,0,0,2.42-6.07c.58-2.1.28-3.22-.51-3s-.62,1.64-1.32,1.3-.55-3.41-.91-4.33-2.22-3.23-4.42-.71c-2.41,2.75-1.62,10.44-.94,12.76a28.55,28.55,0,0,1,5.46.14Z"/><path class="cls-78" d="M272.35,225.59a110.79,110.79,0,0,0-11.8-2.2c-.36,0-1,.51-1.46.31-.7-.33-1.15-1.46-1.32-1.48-1.42-.19-2.82-.95-3.47-.18a5.84,5.84,0,0,0-2,2.49c-3.3-.69-7.42,3.94-8.78,5.85-.65.92-1.44,2.77-.8,4.19s3.29,1.09,5.69-.13a38.89,38.89,0,0,1,8.92-2.95l.9.15,1.08,1.13,11.92,3.82Z"/><path class="cls-8" d="M259.43,223.73c-.55.53-1.9,6.49-1.2,7.9"/><path class="cls-82" d="M270.59,225.19l-3.28-.71c-1.14,2-2.72,6.56-2.56,7.58.09.56.21,1.6.31,2.54l3.22,1A28.48,28.48,0,0,1,268,232C268.08,230.83,270.59,225.19,270.59,225.19Z"/><path class="cls-78" d="M274,220.38A112.67,112.67,0,0,1,262.51,217c-.33-.14-.68-.93-1.16-.94-.77,0-1.69.78-1.84.72-1.36-.48-2.95-.44-3.17-1.42a5.54,5.54,0,0,1-.64-3.1c-3.25-.88-4.83-6.88-5.17-9.2-.17-1.12,0-3.12,1.18-4.1s3.43.52,5,2.69a39.05,39.05,0,0,0,6.61,6.68l.87.27,1.47-.51,12.36,2Z"/><path class="cls-8" d="M261.67,216.19c-.25-.72,1.25-6.64,2.51-7.59"/><path class="cls-83" d="M272.36,220c-.83-.21-1.91-.49-3.08-.81a35.84,35.84,0,0,1-.08-7.28,9.89,9.89,0,0,1,1.67-2.95l3.43.55a11.83,11.83,0,0,0-1.78,3.05C272.16,213.48,272.31,218.53,272.36,220Z"/><path class="cls-7" d="M361.71,255.67a20.82,20.82,0,0,1-20.6-10c-2.45-4.08.72-15.64,4.61-15.32s8.92-.63,12.65.06Z"/><path class="cls-10" d="M346.46,244.75l3.18.46,3.38-8.45-4.51-.59c-1.15-.22-1.67-.77-1.57-1.63l-3.4-1.12L341.42,237l-1.07,4.86-.43,3.51,4.93.1A1.54,1.54,0,0,1,346.46,244.75Z"/><path class="cls-84" d="M330.43,251.42c-5.76-.52-24.59-2.23-29.66-2s-20.25-6.11-20.25-6.11L271,236.74a72.84,72.84,0,0,1,6.09-26.55l16-6.64,21.08,9.51,24.47,11.63c1.63,2.16,3.88,6.11,3.88,6.11a14.19,14.19,0,0,0,2.2,1.08l-2.15,6.73-.31,1.29-1.81,9,.21.3c-1.44.3-2.5.6-2.5.6A57.62,57.62,0,0,0,330.43,251.42Z"/><path class="cls-79" d="M330.43,253.06c-2-.19-6-1.84-10.05-2.52-1.46-.24-3.22-.44-4.72-.58-4.22,1.44-38.06-.8-41.24-.91l.57-16.11,44.58,7.88,24.2,5.45c-.13.21,0,.66-.07.83-1.15,1.65-.95,1.88-3.08,4.87C340.62,252,336.91,253.94,330.43,253.06Z"/><path class="cls-82" d="M279.6,249.33c-2.65-.15-4.54-.26-5.18-.28l.53-14.88,2-.88h0l46.24,8.89,20.46,4.88v0a18.69,18.69,0,0,0-1.11,1.83,160.91,160.91,0,0,1-20.06-3.54c-3-.76-38.3-6.77-42.48-7C279.63,241.93,279.71,245.63,279.6,249.33Z"/><path class="cls-27" d="M354.38,231.87c-7.42,3.53-9.46,15.49-3.57,20.75,2.62,2.34,4.34,2.15,7.51,2.23a15.16,15.16,0,0,0,6.2-.75c6.19-2.51,9.92-12.56,4.34-18.39-1.1-1.15-3.83-2.58-6.1-3.68C359.79,230.59,357.57,230.36,354.38,231.87Z"/><path class="cls-17" d="M356.08,241.49a2,2,0,0,0-.43,1.88c.26.66,1.07.28,1.07.28"/><path class="cls-8" d="M359.28,246.3A6.18,6.18,0,0,1,359,252a7.35,7.35,0,0,0-.33-.68"/><path class="cls-29" d="M359.85,249.23a.83.83,0,1,1-.67-1A.83.83,0,0,1,359.85,249.23Z"/><path class="cls-17" d="M361.31,252.62a6.26,6.26,0,0,0,2-5"/><path class="cls-85" d="M354.3,238.45a6.66,6.66,0,0,0-1.67,1.24,4.57,4.57,0,0,0-1.12,2.93,5.83,5.83,0,0,0,1,2.6C352,244.46,353.3,238.86,354.3,238.45Z"/><path class="cls-20" d="M359.53,248.86a.27.27,0,0,1-.31.22.28.28,0,0,1-.22-.32.28.28,0,0,1,.31-.22A.27.27,0,0,1,359.53,248.86Z"/><path class="cls-23" d="M356.55,249.7c0,.88-.54,1.58-1.16,1.57s-1.12-.74-1.11-1.62.54-1.58,1.17-1.57S356.57,248.82,356.55,249.7Z"/><path class="cls-23" d="M360,235.63c-.4.78-1.18,1.18-1.74.9a1.43,1.43,0,0,1-.27-1.94c.4-.78,1.18-1.18,1.74-.89A1.42,1.42,0,0,1,360,235.63Z"/><path class="cls-28" d="M360.69,240.49a6.22,6.22,0,0,0,2.35-5.24c-.24.2-.43.34-.6.46"/><path class="cls-29" d="M362.51,238.12a.83.83,0,0,0-.55-1,.84.84,0,0,0-1,.56.83.83,0,1,0,1.59.47Z"/><path class="cls-20" d="M362.22,237.79a.27.27,0,0,0-.52-.15.27.27,0,1,0,.52.15Z"/><path class="cls-10" d="M352.68,254c-.45,2.76,3.39,3.84,4.75,3.24a1.61,1.61,0,0,0,.4-2.36C355.74,254.8,354.28,254.81,352.68,254Z"/><path class="cls-10" d="M358.22,230.84c.76-2.81,4.77-2,5.73-.87a1.62,1.62,0,0,1-.71,2.3l-.48-.24A9.68,9.68,0,0,0,358.22,230.84Z"/><path class="cls-86" d="M358.29,255.15s2.3.45,5,1,9.9-3.49,10.55-6.41.34-3.25.34-3.25,1.58-1.55,1.21-5.44-6.35-8.22-8.81-8.91l-2.45-.7-.92.82s4.7,2.19,5.6,5.76-2.11,6.72-2.11,6.72a8.64,8.64,0,0,1-.42,5.55c-1.24,3-3.15,4.28-4,4.38s-4.52.16-4.52.16Z"/><path class="cls-80" d="M302.42,243.88a11.86,11.86,0,0,1-1,5.22c-.1.29-.19.37-.5.37a14.22,14.22,0,0,1-1.71-.07.54.54,0,0,1-.49-.63,25.4,25.4,0,0,0,1-5.21.55.55,0,0,1,.62-.49l1.59.19A.63.63,0,0,1,302.42,243.88Z"/><path class="cls-87" d="M291.18,244.89c-.2,1.67-2,2.82-4.08,2.57s-3.56-1.8-3.36-3.47,2-2.81,4.08-2.56S291.38,243.23,291.18,244.89Z"/><path class="cls-88" d="M288.48,244.57a1.05,1.05,0,0,1-2-.25,1.05,1.05,0,0,1,2,.25Z"/><path class="cls-81" d="M338,221.62c-1.89-.76-6.14-1.06-10.1-2.31-1.41-.45-3.07-1.06-4.47-1.62-3.11-3.2-34.29-16.53-37.18-17.88l-6.78,14.63,43.3,13.17,24,6.1c0-.24.34-.56.31-.76-.27-2,0-2.11-.53-5.74C346.56,227.21,344.13,223.77,338,221.62Z"/><path class="cls-82" d="M291,201.91c-2.43-1.06-4.16-1.83-4.75-2.1L280,213.32l1.42,1.71h0l45.26,13L347.09,233v0a17.13,17.13,0,0,1-.16-2.14,162.9,162.9,0,0,0-19.48-5.94c-3-.67-37.22-11.32-41.06-13C287.63,208.52,289.38,205.26,291,201.91Z"/><path class="cls-89" d="M308.83,217.11a11.71,11.71,0,0,0,1.49-5.09.44.44,0,0,0-.27-.57,13.9,13.9,0,0,0-1.56-.7.53.53,0,0,0-.72.33,25.86,25.86,0,0,1-1.49,5.09.57.57,0,0,0,.33.73l1.5.54A.61.61,0,0,0,308.83,217.11Z"/><path class="cls-87" d="M299.26,211.16c.59-1.57-.49-3.44-2.43-4.17s-4-.06-4.58,1.51.49,3.43,2.42,4.17S298.66,212.73,299.26,211.16Z"/><path class="cls-88" d="M296.71,210.19a.94.94,0,0,0-.66-1.14,1,1,0,0,0-1.26.41,1,1,0,0,0,.67,1.15A.94.94,0,0,0,296.71,210.19Z"/><path class="cls-90" d="M301.53,222.15a125.5,125.5,0,0,0-3.24,13.95"/><path class="cls-91" d="M324.62,241.9l3.39-2.2L325,234.79l5-3.19-.89-2.3c8.13,2,17.41,5.12,18.08,5.33-2.72.52-5,9.56-2.42,11C338.85,244.6,326.79,242.42,324.62,241.9Z"/><path class="cls-8" d="M343.94,233.55c-3.17-.2-5.63,10-2.61,11.61"/><polyline class="cls-8" points="326.31 242.26 329.64 240.05 326.83 235.24 331.69 232.03 330.61 229.8"/><polyline class="cls-28" points="327.88 242.69 331.3 240.38 328.57 235.68 333.44 232.59 332.1 230.11"/><polyline class="cls-8" points="339.97 240.81 332.64 240.13 330.31 236.16 334.26 233.36 341.11 236.62"/><polyline class="cls-28" points="340.1 242.62 332.64 241.12 330.15 243.06"/><path class="cls-92" d="M312.6,225s-1.9,7.77-3.18,13.59l-.69-.16c1.33-6,3.18-13.58,3.18-13.6l.69.17Zm-25.55-6.63a69.12,69.12,0,0,0-3.37,14.56l-.7-.09a69.72,69.72,0,0,1,3.41-14.71l.66.24Zm4.78,1.27A114.79,114.79,0,0,0,288.54,234l-.7-.11a119.1,119.1,0,0,1,3.31-14.42l.68.21Zm-9.55-2.57A42.71,42.71,0,0,0,279,232l-.7,0a43.39,43.39,0,0,1,3.32-15.15l.65.29Zm22.3,5.88s-1.9,7-3.3,13.82l-.69-.14c1.4-6.89,3.3-13.84,3.31-13.86Z"/><path class="cls-93" d="M371.72,233a29.61,29.61,0,0,1-5.61,24.16l-3.79-.91c6.3-6.72,7.7-14.91,5.61-24.16Z"/><polygon class="cls-94" points="371.28 245.86 369.65 246.52 368.5 245.2 370.13 244.54 371.28 245.86"/><path class="cls-95" d="M369.55,249a.6.6,0,1,1-.44-.72A.59.59,0,0,1,369.55,249Z"/><path class="cls-95" d="M368.15,252.06a.6.6,0,1,1-1.16-.27.61.61,0,0,1,.72-.45A.6.6,0,0,1,368.15,252.06Z"/><path class="cls-95" d="M366.85,254.48a.6.6,0,1,1-.44-.72A.59.59,0,0,1,366.85,254.48Z"/><path class="cls-95" d="M371,242.12a.6.6,0,1,1-.45-.72A.6.6,0,0,1,371,242.12Z"/><path class="cls-96" d="M371.25,238.59a.6.6,0,1,1-.44-.72A.59.59,0,0,1,371.25,238.59Z"/><path class="cls-95" d="M370.86,235.05a.6.6,0,1,1-.44-.72A.6.6,0,0,1,370.86,235.05Z"/><path class="cls-39" d="M363.82,254.53c-3.23-.51-8.14-1.5-12.27-2.41a12.14,12.14,0,0,0,.24,1.92c1.23.12,2.46.28,3.61.43,2.05.27,6.93.78,7.76.86Z"/><path class="cls-8" d="M363.36,255.09s-6.27-1.14-11.73-2"/><path class="cls-13" d="M368.38,234.46c-3.11-1-7.8-2.29-11.8-3.33a12.22,12.22,0,0,1,1.08-1.61c1.15.46,2.32.87,3.42,1.26,1.83.64,6,2.24,7.13,2.67C368.27,233.79,368.33,234.13,368.38,234.46Z"/><path class="cls-8" d="M368.46,233.83s-6.11-1.83-11.37-3.53"/><polygon class="cls-92" points="283.81 234.26 286.87 232.89 284.13 230.34 287.64 228.92 284.95 225.95 288.72 224.36 286.14 221.31 289.82 219.96 287.56 217.44 287.98 217.06 290.8 220.2 287.1 221.56 289.65 224.58 285.9 226.16 288.61 229.14 285.17 230.54 287.87 233.06 284.04 234.78 283.81 234.26"/><path class="cls-8" d="M346.18,234.3c-2.93-.09-5.44,9.83-2.46,11.18"/><path class="cls-8" d="M345,233.92c-3.34.19-5.39,9.82-2.6,11.32"/><polyline class="cls-28" points="342.05 234.47 334.72 232.44 333.84 230.54"/><path class="cls-30" d="M365.39,235.56a6.24,6.24,0,0,1-.44,5.35"/><path class="cls-68" d="M275.85,249.8c-.47,2.07-6.07,2.1-6.42-.54.12-3,.22-10.44.42-15,.14-3.12,1.26-3.67,2.81-3.41,17.19,2.82,56.91,12.87,72.21,14.83.12,0,.17.11.07.21-.66.52-1,1.33-1.87,1.48-5-.17-24.67-4.66-29.39-5.39s-28.58-5.67-37.34-6.52C275.53,238.7,276.23,246.82,275.85,249.8Z"/><path class="cls-47" d="M287.83,199.8c.51-2.06-4.46-4.63-6-2.43-1.29,2.77-4.55,9.4-6.43,13.56-1.29,2.84-.54,3.84,1,4.32,16.58,5.26,56.18,14.3,70.76,19.48a.36.36,0,0,0,.41-.33c-.34-.76-.24-1.47-.92-2-4.55-2.13-24.1-7-28.65-8.51s-28-7.9-36.24-11.11C282.52,209.55,286.82,202.63,287.83,199.8Z"/><path class="cls-80" d="M344.1,193c-.07-1.26-.22-2.52-.31-3.67a36.78,36.78,0,0,0-7.32-.16c-.19,1.41-.3,2.77-.39,3.87,2.06-.1,6.11-.08,8,0Zm-6-1.94-.65,1.13-.6-1.17.74-1.18.51,1.22Zm3.2,0L340,192.39,338.85,191l1.25-1.3,1.18,1.34Zm2.07,0-.76,1.16-.67-1.2.75-1.15Z"/><path class="cls-97" d="M256.7,371.49s.61,2.28,1.94,6.76c1.14,3.79,8.51,6.29,15.43,2.93,5-2.41,11.37-8.54,7.67-14.27-.82-1.27-3.44-5.44-3.44-5.44l-12.23,9.08Z"/><path class="cls-98" d="M257,371.57s.26,1,.81,2.88c3,.81,15.39,3.47,22-10l-1.72-2.73-12.08,8.79Z"/><path class="cls-99" d="M225.46,355.24c-6.26,1-12.27,1.77-18.41,2.61a22.18,22.18,0,0,1-1.65-6.79c7.08-2.59,26.66-7.57,34.08-8.77l4.84,7.23-4.57,3.53Z"/><path class="cls-100" d="M213.91,356.93l-5.21.7a30.81,30.81,0,0,1-1.61-7.16c1.42-.47,3.12-1,5-1.54C212.57,351.62,213.17,354.28,213.91,356.93Z"/><path class="cls-101" d="M284.73,327.44c4.71-4.24,9.21-8.72,13.69-13a22.43,22.43,0,0,0-4.29-5.52A120.55,120.55,0,0,0,276,322.66l-11.14,8.82,7.51,8.48Z"/><path class="cls-102" d="M298.26,313.87a55.91,55.91,0,0,0,6.23-2c2-.87,2.68-1.81,2-2.29s-1.66.56-1.84-.2,2.3-2.59,2.78-3.44,1.1-3.76-2.25-3.88c-3.65-.13-9.11,5.34-10.48,7.34a28.32,28.32,0,0,1,3.35,4.32Z"/><path class="cls-103" d="M221.86,282.79a111.56,111.56,0,0,0-5.74-10.54c-.21-.3-1.05-.47-1.17-.93-.19-.76.4-1.82.31-2-.75-1.22-1-2.78-2-2.8a5.83,5.83,0,0,0-3.17,0c-1.56-3-7.75-3.25-10.09-3.1-1.12.08-3.06.63-3.75,2s1.23,3.24,3.69,4.33a38.83,38.83,0,0,1,7.93,5l.45.79-.19,1.55,4.57,11.66Z"/><path class="cls-28" d="M215.14,271.6c-.76-.09-6.23,2.63-6.88,4.07"/><path class="cls-78" d="M231.77,278A112.92,112.92,0,0,1,227.11,267c-.11-.34.28-1.11,0-1.49-.47-.62-1.67-.82-1.72-1-.49-1.35-1.53-2.56-.91-3.36a5.72,5.72,0,0,1,2-2.45c-1.38-3.08,2.27-8.09,3.85-9.82.76-.84,2.4-2,3.92-1.68s1.77,3,1.09,5.59a38.79,38.79,0,0,0-1,9.35l.34.84,1.33.81,6.27,10.84Z"/><path class="cls-28" d="M227.21,265.78c.4-.65,5.93-3.23,7.47-2.85"/><path class="cls-7" d="M256.67,370.26c0-15.85-8.74-16-9.69-21.5s18.29-10.72,19.53-7.62,2,10.26,4.11,12.87Z"/><path class="cls-27" d="M256.66,354.41l9.17-2.84c-1.88-2.79-3-5.24-.95-6.26l-6.6-2.55L253.85,345l-.44,6.17C254.58,351.32,255.92,352.38,256.66,354.41Z"/><path class="cls-104" d="M240.19,343.34C237,338.55,226.37,322.88,223,319.1s-8.07-19.55-8.07-19.55l2.35-13.71c5.79-5,13.71-8.76,22.85-10.53l13.58,8.85,5.95,22.35,6.46,26.31c-.64,2.63-2.28,6.87-2.28,6.87a14.08,14.08,0,0,0,.55,2.38l-6.57,2.59-1.19.57-8.11,4.28-.09.35c-1.15-.92-2-1.55-2-1.55A58.28,58.28,0,0,0,240.19,343.34Z"/><path class="cls-100" d="M216.69,289.17l.29-1.73a103.18,103.18,0,0,1,23.54-11.19l10.9,22.61c-8.47,3.77-16.63,7.67-24.39,11.76Z"/><path class="cls-105" d="M218.05,292l.48-1.36a145.38,145.38,0,0,1,23.52-11.22l7.73,16c-8.44,3.84-16.6,7.75-24.4,11.76Z"/><path class="cls-106" d="M219.44,294.87l.66-1a250.78,250.78,0,0,1,23.5-11.26l4.51,9.37c-8.39,3.92-16.55,7.84-24.39,11.76Z"/><path class="cls-107" d="M220.63,297.34l.82-.65c7.48-3.8,15.35-7.56,23.48-11.29l1.75,3.63c-8.36,4-16.52,7.91-24.39,11.76Z"/><path class="cls-101" d="M238.92,344.37c-1.14-1.69-2.34-5.78-4.41-9.37-.74-1.29-1.69-2.78-2.53-4-3.79-2.37-12.13-13.58-14.06-16.11l10.57-7.72,13,21.07,9.72,19.83-2.76,1.46-.09.35c-1.15-.92-3.44,1.83-3.44,1.83S242.33,350,238.92,344.37Z"/><path class="cls-102" d="M206.7,357.37a58.44,58.44,0,0,1-5.42,3.66c-1.93,1-3.09,1-3.05.14s1.47-.95,1-1.57-3.45.19-4.42,0-3.63-1.48-1.64-4.17c2.18-2.93,9.86-3.8,12.28-3.63a27.87,27.87,0,0,0,1.29,5.32Z"/><path class="cls-10" d="M275.73,353.78c-7.28-12-28.11-1.33-23.14,10.41h0c2.18,2.7,4.46,5.83,7.07,7.26,5.86,3.21,16-.25,17-8.27.37-2.92-.56-6.14-.92-9.4Z"/><path class="cls-17" d="M264.1,356.94a2,2,0,0,0-1.73.85c-.35.63.46,1,.46,1"/><path class="cls-8" d="M262.4,362.46a6.21,6.21,0,0,1-4.61,3.43,6.4,6.4,0,0,0,.32-.69"/><path class="cls-108" d="M260.48,364.75a.82.82,0,0,1-1.12-.32.83.83,0,1,1,1.12.32Z"/><path class="cls-109" d="M258.19,367.92a6.84,6.84,0,0,0,5.55-1.27"/><path class="cls-19" d="M265.33,353.64a6.26,6.26,0,0,0-2-.51,4.51,4.51,0,0,0-3,1,5.8,5.8,0,0,0-1.36,2.44C259.19,355.62,264.37,353.12,265.33,353.64Z"/><path class="cls-20" d="M260.57,364.27a.28.28,0,0,1-.37-.11.27.27,0,0,1,.11-.36.25.25,0,0,1,.36.1A.27.27,0,0,1,260.57,364.27Z"/><path class="cls-23" d="M258,362.49a1.2,1.2,0,1,1,.55-1.88A1.44,1.44,0,0,1,258,362.49Z"/><path class="cls-23" d="M271.08,356.23c-.86.18-1.66-.17-1.79-.78s.47-1.26,1.33-1.44,1.66.17,1.79.79S271.94,356.05,271.08,356.23Z"/><path class="cls-8" d="M267.79,359.88a6.18,6.18,0,0,0,5.54-1.5,5.93,5.93,0,0,1-.74-.17"/><path class="cls-29" d="M270.77,359.79a.83.83,0,0,0-.63-1.53.83.83,0,1,0,.63,1.53Z"/><path class="cls-20" d="M270.84,359.35a.27.27,0,1,0-.35-.14A.26.26,0,0,0,270.84,359.35Z"/><path class="cls-110" d="M227.62,297.2l-8.29-14.52c-6.66,3.86-12.05,7.52-16,12l8.54,12.46,14-6.46Z"/><path class="cls-100" d="M217.92,314.87c-2-2.63-4.47-5.43-6.08-7.7,3.56-2.69,15.08-9.71,15.78-10,8.13,13.36,17.81,31.64,25.18,45.84L248.86,345l-11.54-19.66c-2.41-4.13-10.64-16.59-10.64-16.59C223.8,310.75,220.47,313.28,217.92,314.87Z"/><path class="cls-111" d="M253.89,350.77c1-3.49,1.91-3.09,3.2-5.23.24-.4-.31-1.36-.79-1.78a10.4,10.4,0,0,0-10.51.6,7.34,7.34,0,0,0-4.19,2.41,5.69,5.69,0,0,0-2.69,4,3.17,3.17,0,0,0-.73,2.42,1.6,1.6,0,0,0,.61,2c2.09,1.7,6.78.62,8.28.31S253.36,352.82,253.89,350.77Z"/><rect class="cls-112" x="247.63" y="339.25" width="2.45" height="2.45" transform="translate(-149.35 479.36) rotate(-73.06)"/><polygon class="cls-113" points="247.67 338.32 245.15 337.55 245.87 335.01 248.39 335.78 247.67 338.32"/><polygon class="cls-113" points="245.48 334.39 242.91 333.6 243.64 331.01 246.21 331.8 245.48 334.39"/><polygon class="cls-113" points="243.25 330.32 240.58 329.51 241.34 326.81 244.02 327.63 243.25 330.32"/><polygon class="cls-113" points="240.86 326.2 238.04 325.33 238.84 322.48 241.67 323.35 240.86 326.2"/><polygon class="cls-113" points="238.4 321.8 235.36 320.99 236.1 317.94 239.14 318.74 238.4 321.8"/><polygon class="cls-113" points="235.65 317.17 232.32 316.29 233.14 312.94 236.47 313.82 235.65 317.17"/><polygon class="cls-113" points="232.77 312.3 229.19 311.35 230.07 307.75 233.65 308.7 232.77 312.3"/><polygon class="cls-113" points="229.07 306.9 225.5 305.95 226.38 302.36 229.95 303.3 229.07 306.9"/><polygon class="cls-113" points="223.89 309.95 220.32 309 221.19 305.41 224.77 306.35 223.89 309.95"/><polygon class="cls-113" points="219.51 313.03 216.39 312 216.72 308.56 219.84 309.59 219.51 313.03"/><path class="cls-114" d="M228.92,299.37s-11.33,6.63-15.59,9.76"/><path class="cls-3" d="M228.22,298.2s-11.33,6.62-15.6,9.76"/><polygon class="cls-113" points="211.05 356.77 208.97 356.31 210.71 355.07 212.78 355.53 211.05 356.77"/><polygon class="cls-113" points="210.02 351.92 207.82 351.55 209.57 350.15 211.77 350.52 210.02 351.92"/><polygon class="cls-113" points="210.56 354.39 208.37 354.02 210.11 352.62 212.31 352.99 210.56 354.39"/><path class="cls-109" d="M274.57,360a6.84,6.84,0,0,1-4.45,3.55"/><path class="cls-20" d="M257.73,374.14a20.62,20.62,0,0,0,13.07-.93,18.52,18.52,0,0,0,8.89-9l.35.55a18.85,18.85,0,0,1-9,9,21,21,0,0,1-13.11,1Z"/><rect class="cls-112" x="269.03" y="370.85" width="1.82" height="1.82" transform="translate(-173.07 493.45) rotate(-69.38)"/><polygon class="cls-113" points="267.54 373.93 266.1 372.96 266.78 371.48 268.22 372.45 267.54 373.93"/><polygon class="cls-113" points="264.96 374.38 263.65 373.49 264.27 372.13 265.59 373.02 264.96 374.38"/><polygon class="cls-113" points="262.58 374.4 261.27 373.52 261.89 372.16 263.21 373.05 262.58 374.4"/><polygon class="cls-113" points="260.25 374.38 258.93 373.49 259.56 372.13 260.88 373.02 260.25 374.38"/><polygon class="cls-113" points="273.24 371.38 273.39 369.68 271.78 369.25 271.63 370.95 273.24 371.38"/><polygon class="cls-113" points="275.23 369.73 275.37 368.17 273.89 367.78 273.76 369.34 275.23 369.73"/><polygon class="cls-113" points="276.77 367.95 276.9 366.4 275.43 366 275.3 367.56 276.77 367.95"/><polygon class="cls-113" points="278.23 366.18 278.37 364.63 276.9 364.23 276.76 365.79 278.23 366.18"/><path class="cls-115" d="M256,368.38c4.63,2.51,14.14-.91,18.91-6.09,1.39-1.52,1.94-3.07,1.57-4.49-.72-2.71-3.59-7.58-6.78-8.76,5.35-.45,13.11,4,14.67,9.18.4,1.32-2.27,1.89-3,3-4.49,6.42-9.2,9.33-11.28,10.27a25.33,25.33,0,0,1-13.12,2c-4.43-.6-4.85,1.28-6-.41-1.46-2.16-2.56-12.16,1.76-16.42C250.26,362,256.09,368.65,256,368.38Z"/><path class="cls-116" d="M257.69,369c-1.64-2.83-4-7.25-5.88-11a12.59,12.59,0,0,0-1.34,1.4c.69,1,1.34,2.08,1.95,3.07,1.09,1.76,3.17,5.22,3.62,5.91A4,4,0,0,0,257.69,369Z"/><path class="cls-8" d="M256.91,368.83s-3.07-5.35-5.85-10.13"/><path class="cls-116" d="M276,360.2c-1.19-3.05-3.2-7.63-5-11.47a12.84,12.84,0,0,1,1.94-.18c.37,1.18.79,2.34,1.18,3.44.7,1.95,2.11,5.73,2.37,6.52A3.91,3.91,0,0,1,276,360.2Z"/><path class="cls-28" d="M276.34,359.46s-2.27-5.73-4.28-10.89"/><path class="cls-100" d="M293.73,319l3.79-3.64a31,31,0,0,0-4.59-5.73c-1.25.82-2.72,1.83-4.32,3C290.41,314.63,292.12,316.76,293.73,319Z"/><path class="cls-101" d="M268.12,330.29c-.61-1.94-3.06-5.42-4.59-9.28-.55-1.38-1.12-3.05-1.57-4.49.51-4.43-3.06-17.94-3.85-21L245.49,299l8.36,23.34,9.46,19.95,2.86-1.25.34.15c0-1.47,3.57-1.56,3.57-1.56S270.36,336.44,268.12,330.29Z"/><path class="cls-110" d="M238.25,292.07l-6.19-15.52c7.16-2.81,13.39-4.74,19.39-5.05l4.43,14.44-13.8,6.95Z"/><path class="cls-100" d="M258.11,295.49c-.8-3.21-1.45-6.88-2.23-9.55-4.32,1.11-17,5.75-17.63,6.13,5.4,14.69,13.66,33.64,20.18,48.25l4-1.87s-6.47-16.8-8.2-21.26-6.34-18.66-6.34-18.66C251.23,297.52,255.28,296.5,258.11,295.49Z"/><path class="cls-117" d="M263.8,346c-3.36-1.37-3.61-.43-6.08-.75-.47-.06-.88-1.09-.91-1.73a6.32,6.32,0,0,1,2.77-5.23,6.25,6.25,0,0,1,4.25-2.62,7.46,7.46,0,0,1,4.49-1.78,5.75,5.75,0,0,1,4.78.36,3.2,3.2,0,0,1,2.34.94,1.59,1.59,0,0,1,1.17,1.72c0,2.69-3.73,5.68-4.91,6.67S265.73,346.86,263.8,346Z"/><rect class="cls-112" x="257.66" y="334.42" width="2.45" height="2.45" transform="translate(-148.48 452.81) rotate(-68.4)"/><polygon class="cls-113" points="257.94 333.37 258.9 330.92 256.47 329.9 255.5 332.35 257.94 333.37"/><polygon class="cls-113" points="256.22 329.21 257.21 326.71 254.72 325.67 253.74 328.17 256.22 329.21"/><polygon class="cls-113" points="254.43 324.94 255.46 322.33 252.87 321.25 251.84 323.86 254.43 324.94"/><polygon class="cls-113" points="252.69 320.5 253.78 317.75 251.04 316.6 249.96 319.36 252.69 320.5"/><polygon class="cls-113" points="250.78 315.82 252.04 312.95 249.19 311.63 247.93 314.5 250.78 315.82"/><polygon class="cls-113" points="248.88 310.8 250.26 307.64 247.13 306.19 245.75 309.35 248.88 310.8"/><polygon class="cls-113" points="246.86 305.5 248.34 302.12 244.98 300.56 243.5 303.95 246.86 305.5"/><polygon class="cls-113" points="244.94 299.25 246.42 295.87 243.06 294.31 241.58 297.7 244.94 299.25"/><polygon class="cls-113" points="250.55 297.1 252.04 293.71 248.68 292.16 247.19 295.55 250.55 297.1"/><polygon class="cls-113" points="255.68 295.59 256.82 292.51 253.93 290.62 252.79 293.7 255.68 295.59"/><path class="cls-3" d="M239.14,294.45s12.24-4.74,17.35-6.13"/><path class="cls-3" d="M238.66,293.16S250.9,288.42,256,287"/><polygon class="cls-113" points="295.39 316.65 296.32 314.74 294.27 315.32 293.34 317.23 295.39 316.65"/><polygon class="cls-113" points="292.23 312.82 293.32 310.87 291.13 311.37 290.05 313.32 292.23 312.82"/><polygon class="cls-113" points="293.83 314.78 294.91 312.84 292.73 313.33 291.64 315.28 293.83 314.78"/><path class="cls-118" d="M263.46,318.84a247.5,247.5,0,0,1-30.08,14.48l-1.58-2.44,30.4-14.65Z"/><path class="cls-78" d="M38.25,187a57.21,57.21,0,0,1-2.62-6c-.65-2.08-.39-3.21.41-3s.67,1.61,1.36,1.25.44-3.43.77-4.36,2.11-3.3,4.39-.86c2.5,2.67,2,10.38,1.37,12.73a28.73,28.73,0,0,0-5.46.31Z"/><path class="cls-119" d="M37.65,206c.36-6.33-.16-13.37-.14-19.11a22.2,22.2,0,0,1,7-.1,169.58,169.58,0,0,1,4.27,22.3c.66,4.48,1.06,7.11,1.36,10.53L37.37,225.1l-2.55,2.15Z"/><path class="cls-80" d="M37.59,192.05c0-1.25-.06-2.48-.08-3.66A36.48,36.48,0,0,1,44.8,188c.33,1.3.6,2.56.82,3.79C43.55,191.74,39.49,191.93,37.59,192.05Z"/><path class="cls-119" d="M51.12,269.13c3.09,5.54,6.45,10.91,9.63,16.23a22.2,22.2,0,0,0,6.34-2.95c-2.4-7.15-3.6-14.49-7.3-21-2.41-5-3.24-8.06-5.25-12.21L40.63,251.3Z"/><path class="cls-78" d="M61.35,285.33a56.94,56.94,0,0,0,.53,6.52c.41,2.14,1.17,3,1.79,2.47s-.17-1.75.61-1.75,2,2.81,2.74,3.47,3.42,1.91,4.28-1.33c.93-3.53-3.19-10.07-4.84-11.85a28.3,28.3,0,0,1-4.95,2.31Z"/><path class="cls-78" d="M107.82,219.76a111.36,111.36,0,0,0,11.55-3.26c.33-.13.69-.92,1.17-.93.77,0,1.68.79,1.84.74,1.35-.46,2.94-.41,3.18-1.38a5.77,5.77,0,0,0,.66-3.11c3.27-.85,4.9-6.83,5.26-9.14.18-1.12.07-3.12-1.14-4.11s-3.43.48-5,2.64a38.83,38.83,0,0,1-6.68,6.61l-.87.27-1.46-.53-12.38,1.87Z"/><path class="cls-8" d="M120.22,215.69c.26-.72-1.18-6.65-2.44-7.61"/><path class="cls-120" d="M108.51,219.39c.89-.22,4.4-1.11,5.63-1.44.25-4.4-.22-6-2.41-9.5l-5.73.88C108.4,213.62,108.06,214.37,108.51,219.39Z"/><path class="cls-20" d="M113.79,217.89a16.2,16.2,0,0,0-.35-4.94,15.38,15.38,0,0,0-2-4.3l-.1-.15.78-.1a14.07,14.07,0,0,1,2,4.37,16.79,16.79,0,0,1,.37,5.07l-.73.2,0-.15Zm-5.62,1.58L108,218c-.3-3.66-.37-4.91-2.44-8.64l.75-.11.07.14c1.91,3.52,2,4.93,2.33,8.55l.1,1.2,0,.13-.7.18Z"/><path class="cls-78" d="M108.63,225.18a111.9,111.9,0,0,1,11.81-2.1c.37,0,1,.53,1.46.33.71-.32,1.17-1.45,1.33-1.47,1.43-.17,2.83-.92,3.47-.14a5.73,5.73,0,0,1,2,2.5c3.31-.65,7.39,4,8.72,5.94.65.93,1.42,2.78.77,4.2s-3.3,1.06-5.69-.18a38.91,38.91,0,0,0-8.9-3l-.89.14-1.09,1.11-12,3.72Z"/><path class="cls-8" d="M121.56,223.44c.55.53,1.84,6.5,1.12,7.92"/><path class="cls-7" d="M14.4,232.54a20.82,20.82,0,0,1,22.9-.2c4,2.57,6.3,14.34,2.68,15.78s-7.71,4.53-11.36,5.57Z"/><path class="cls-10" d="M32.92,235.54l-3.06,1,.73,9.07,4.3-1.48c1.13-.31,1.84,0,2.14.76l3.53-.5.3-4.18-1.2-4.83-1.17-3.34L34,234.15A1.52,1.52,0,0,1,32.92,235.54Z"/><path class="cls-84" d="M44.31,222.45c5.39-2.1,23-8.94,27.45-11.41s20.86-3.53,20.86-3.53l11.45,1.66a72.91,72.91,0,0,1,6.35,26.5L99,248.74l-23.12.85L48.82,250a70.8,70.8,0,0,1-6.19-3.75s-2.51-1.28-3.92-1.16c1.94-6.68-.08-8.26-3.37-12.91l.78-3.21c1.15-.91,2-1.65,2-1.65A59.23,59.23,0,0,0,44.31,222.45Z"/><path class="cls-121" d="M102.79,209.34l.34,0a73.35,73.35,0,0,1,6.32,25.78l-4.49-.51a91.06,91.06,0,0,0-5.09-20.76Z"/><path class="cls-121" d="M78.89,239.53c-1.25-7.09-2.76-13.61-5-18.68l23.22-10.71A94.45,94.45,0,0,1,104,237.81Z"/><path class="cls-122" d="M80.3,238.88c-1.25-7.09-2.76-13.61-5-18.68l20.2-9.32a94.82,94.82,0,0,1,6.82,27.68Z"/><path class="cls-122" d="M82,238.07c-1.24-7.09-2.76-13.6-5-18.68l3.48-4a94.89,94.89,0,0,1,6.82,27.68Z"/><path class="cls-122" d="M94.94,235.55c-1.19-7.09-2.65-13.62-4.81-18.71l3.51-4a94.39,94.39,0,0,1,6.61,27.72Z"/><path class="cls-122" d="M88.73,237c-1.19-7.1-2.65-13.63-4.81-18.72l3.51-4A94.77,94.77,0,0,1,94,242Z"/><path class="cls-121" d="M43.31,246.75l-.68-.46s-2.51-1.28-3.92-1.16c1.94-6.68-.08-8.26-3.37-12.91l.78-3.21c1.15-.91,2-1.65,2-1.65s.58,1.29,1,1l.85,2.45C43.8,235.57,45,240.19,43.31,246.75Z"/><path class="cls-122" d="M41.87,246.07l-.14-.08a2.94,2.94,0,0,0-2.19-.38c2.37-6.77,1.23-8.32-2.35-12.91l-1.61-3.56c1.32-1,2.26-1.73,2.26-1.73s.61,1.29,1.09,1l-.21,3.32C42.92,236.39,43.9,239.42,41.87,246.07Z"/><path class="cls-119" d="M43.59,221c1.89-.74,6.14-1,10.11-2.22,1.42-.43,3.08-1,4.48-1.57C61.33,214,92.64,201,95.54,199.67l6.64,14.69L60.62,229.23l-19.48,6.25L34.65,233c0-.25-.33-.57-.31-.77.3-2,0-2.11.59-5.74C34.93,226.48,37.39,223.07,43.59,221Z"/><path class="cls-120" d="M82.54,205.5c2.17-.95,4.34-1.87,6.16-2.65,2.79,4.75,6.5,11.74,6.44,14l-6.27,2.24A123.65,123.65,0,0,0,82.54,205.5Z"/><path class="cls-20" d="M82.58,205.48l.32-.14.14.18c.95,1.69,1.92,3.65,2.81,5.54,1.54,3.32,2.83,6.45,3.27,7.52l5.58-2a16.86,16.86,0,0,0-1.6-4.44c-1.57-3.35-3-5.9-4.78-9.13h0l.77-.33c1.82,3.13,3.25,5.82,4.78,9.1a14.5,14.5,0,0,1,1.69,5.11v.29l-6.93,2.48-.14-.39s-1.5-3.77-3.4-7.85c-1-2-1.93-4-2.93-5.75h0Z"/><path class="cls-10" d="M31.54,250.6c5.08-6.45,1.59-18.07-6-20.17-3.39-.93-4.84,0-7.72,1.34a15.25,15.25,0,0,0-5.22,3.43c-4.43,5-3.3,15.65,4.29,18.4,1.49.54,4.58.61,7.09.58C27.27,254.15,29.35,253.38,31.54,250.6Z"/><path class="cls-17" d="M25.75,242.74a2,2,0,0,0-.45-1.88c-.54-.47-1.09.23-1.09.23"/><path class="cls-8" d="M20.74,239.86a6.18,6.18,0,0,1-2.32-5.25,6.6,6.6,0,0,0,.59.46"/><path class="cls-16" d="M18.93,237.49a.83.83,0,1,1,1,.56A.83.83,0,0,1,18.93,237.49Z"/><path class="cls-17" d="M16.12,235.09a6.26,6.26,0,0,0,.39,5.35"/><path class="cls-19" d="M28.69,244.68a6.71,6.71,0,0,0,.95-1.86,4.59,4.59,0,0,0-.3-3.13c-.36-.89-2.09-1.86-2.09-1.86C28.12,238.25,29.41,243.86,28.69,244.68Z"/><path class="cls-20" d="M19.38,237.68a.27.27,0,0,1,.18-.34.28.28,0,0,1,.34.18.27.27,0,0,1-.19.34A.27.27,0,0,1,19.38,237.68Z"/><path class="cls-23" d="M21.67,235.6a1.43,1.43,0,0,1,.35-1.93c.57-.26,1.33.17,1.71,1a1.43,1.43,0,0,1-.35,1.93C22.81,236.82,22.05,236.4,21.67,235.6Z"/><path class="cls-23" d="M24.88,249.71c0-.88.54-1.59,1.16-1.57s1.12.73,1.11,1.61-.54,1.58-1.16,1.57S24.86,250.59,24.88,249.71Z"/><path class="cls-8" d="M22.06,245.69a6.17,6.17,0,0,0,.23,5.73,7.35,7.35,0,0,1,.33-.68"/><path class="cls-16" d="M21.48,248.62a.83.83,0,0,0,1,.67.83.83,0,0,0-.28-1.63A.83.83,0,0,0,21.48,248.62Z"/><path class="cls-20" d="M21.89,248.78a.28.28,0,0,0,.31.22.27.27,0,0,0,.22-.31.26.26,0,0,0-.31-.22A.27.27,0,0,0,21.89,248.78Z"/><path class="cls-10" d="M23.24,230.06c-.82-2.67-4.73-1.94-5.68-.8a1.61,1.61,0,0,0,.68,2.3C20.14,230.67,21.43,230,23.24,230.06Z"/><path class="cls-10" d="M28.57,253.23c.57,2.86-3.38,4-4.75,3.32a1.61,1.61,0,0,1-.39-2.36H24A9.66,9.66,0,0,0,28.57,253.23Z"/><path class="cls-7" d="M17.7,231.49l-5,1.33c-2.7.71-7.32,7.52-6.6,10.43s1.13,3.06,1.13,3.06-.72,2.09,1.34,5.42,9.34,4.53,11.85,4.06l2.51-.47.46-1.13s-5.18.12-7.58-2.68-1.09-7-1.09-7a8.63,8.63,0,0,1-2.1-5.15c-.21-3.24.92-5.24,1.61-5.69s4-2.15,4-2.15Z"/><path class="cls-116" d="M15.5,257.28a29.6,29.6,0,0,1-5.71-24.13l3.8-.87c-2.66,8.81-.27,16.78,5.71,24.13Z"/><polygon class="cls-123" points="10.19 245.58 11.35 244.27 12.97 244.94 11.81 246.25 10.19 245.58"/><path class="cls-123" d="M10.36,242a.6.6,0,0,1,.45-.71.6.6,0,0,1,.27,1.16A.6.6,0,0,1,10.36,242Z"/><path class="cls-123" d="M10.23,238.64a.6.6,0,0,1,.45-.72.61.61,0,0,1,.72.45.6.6,0,0,1-.45.71A.59.59,0,0,1,10.23,238.64Z"/><path class="cls-123" d="M10.32,235.89a.6.6,0,1,1,.72.45A.6.6,0,0,1,10.32,235.89Z"/><path class="cls-123" d="M12.12,248.8a.58.58,0,0,1,.44-.71.6.6,0,1,1,.27,1.16A.58.58,0,0,1,12.12,248.8Z"/><path class="cls-123" d="M13.44,252.08a.6.6,0,1,1,.72.45A.61.61,0,0,1,13.44,252.08Z"/><path class="cls-123" d="M15.37,255.08a.61.61,0,0,1,.45-.72.6.6,0,1,1-.45.72Z"/><path class="cls-116" d="M13,234.5c3.12-1,8-2.27,12.06-3.29A13,13,0,0,0,24,229.59c-1.15.44-2.32.85-3.43,1.22-1.95.67-6.55,2.39-7.33,2.68C13.17,233.82,13.09,234.16,13,234.5Z"/><path class="cls-124" d="M13.18,233.79s6.12-1.76,11.4-3.41"/><path class="cls-116" d="M17.85,254.51c3.23-.49,8-1.42,12-2.27a12.12,12.12,0,0,1-.25,1.93c-1.23.1-2.46.25-3.62.39-1.93.23-6.37.66-7.57.77C18.25,255.06,18.05,254.78,17.85,254.51Z"/><path class="cls-124" d="M18.07,255.11s6.27-1.08,11.74-1.9"/><path class="cls-17" d="M20,252.19a6.25,6.25,0,0,1-2-5"/><path class="cls-80" d="M58.05,280.87C58.66,282,59.36,283,60,284a36.42,36.42,0,0,0,6.62-3.11c-.45-1.35-1-2.61-1.36-3.64C63.4,278.27,59.77,280.06,58.05,280.87Z"/><path class="cls-125" d="M38.37,233.29s13.92-5,20.67-8.08,20.39-8.39,20.39-8.39a8.28,8.28,0,0,0-1.52-5.62c-12,4.78-16.77,7.59-23.28,10.17s-14.26,5-20.08,8.34l.07,2.25Z"/><path class="cls-126" d="M38.09,229.21a4.19,4.19,0,0,0,1.23,2.49"/><path class="cls-126" d="M40.31,228.21a4.49,4.49,0,0,0,1.31,2.67"/><path class="cls-126" d="M42.58,227.29A4.74,4.74,0,0,0,44,230.07"/><path class="cls-126" d="M44.86,226.4a4.53,4.53,0,0,0,1.3,2.65"/><path class="cls-126" d="M47.14,225.51a4.68,4.68,0,0,0,1.34,2.72"/><path class="cls-126" d="M49.47,224.56a4.69,4.69,0,0,0,1.23,2.79"/><path class="cls-126" d="M51.79,223.77A4.45,4.45,0,0,0,53,226.48"/><path class="cls-126" d="M54,222.88a4.51,4.51,0,0,0,1.25,2.7"/><path class="cls-126" d="M56.27,221.84a4.57,4.57,0,0,0,1.3,2.76"/><path class="cls-126" d="M58.53,220.87a4.63,4.63,0,0,0,1.31,2.72"/><path class="cls-126" d="M60.84,219.93a4.48,4.48,0,0,0,1.22,2.66"/><path class="cls-126" d="M63,218.83a4.62,4.62,0,0,0,1.33,2.72"/><path class="cls-126" d="M65.65,217.72A4.66,4.66,0,0,0,67,220.44"/><path class="cls-126" d="M67.93,216.81a4.87,4.87,0,0,0,1.38,2.81"/><path class="cls-126" d="M70.19,215.72a4.71,4.71,0,0,0,1.33,2.8"/><path class="cls-126" d="M72.4,214.78a4.69,4.69,0,0,0,1.33,2.81"/><path class="cls-126" d="M74.84,213.84A4.7,4.7,0,0,0,76,216.72"/><path class="cls-126" d="M77.17,212.75a5.14,5.14,0,0,0,1,3.15"/><path class="cls-120" d="M87.44,203.39c2.63,4.36,5.83,10.89,6.17,13l-3.44,1.59s-3.16-8.18-6.26-13Z"/><path class="cls-20" d="M87.83,203.22c1.27,2.11,2.67,4.7,3.81,7.06a30.06,30.06,0,0,1,2.39,6l0,.32-4.15,1.92-.16-.43c-.14-.35-3.24-8.31-6.25-13l.79-.34a90.84,90.84,0,0,1,6.09,12.63l2.73-1.26a34.54,34.54,0,0,0-2.26-5.45c-1.15-2.38-2.55-5-3.82-7.09Z"/><path class="cls-127" d="M94.26,200.37c-.5-2.06,4.5-4.58,6-2.37,1.26,2.79,4.12,8.72,6,12.89,1.25,2.86.49,3.85-1,4.31-14.78,4.55-46.56,16.1-64,21.14-2.22.64-5.6-2.89-7.24-2.34-.12,0-.2,0-.16-.15-.51-1.18-.47-2,.69-2.59,1.45-.66,4.56,4,8.09,3,7.56-2.15,20.28-7.26,23.39-8.24,4.56-1.44,25.69-10.15,33.92-13.28C99.14,209.44,95.24,203.21,94.26,200.37Z"/><polyline class="cls-128" points="91.6 214.48 90.06 213.71 90.61 212.16"/><polyline class="cls-128" points="89.66 210.47 88.17 209.72 88.7 208.23"/><polyline class="cls-128" points="87.82 206.7 86.27 206.09 86.67 204.56"/><path class="cls-119" d="M50.8,252.43c2-.17,6-1.79,10.07-2.42,1.47-.23,3.22-.41,4.72-.54,4.21,1.48,38.07-.43,41.25-.51l-.42-16.12-43.89,4.73-20.25,2.87-4.76,5.07c.13.21-.05.66.06.83,1.13,1.66.94,1.89,3,4.9C40.61,251.24,44.31,253.24,50.8,252.43Z"/><path class="cls-120" d="M92.6,249.38c2.37-.09,4.72-.21,6.71-.3.43-5.49.73-13.4-.33-15.43l-6.61.71A126.06,126.06,0,0,1,92.6,249.38Z"/><path class="cls-20" d="M92.65,249.38l.35,0,0-.22c.13-1.93.15-4.12.12-6.21-.06-3.66-.26-7-.34-8.19l5.9-.64a17.11,17.11,0,0,1,.5,4.7c0,3.7-.15,6.63-.32,10.3h0l.82,0c.29-3.61.39-6.65.35-10.27a14.79,14.79,0,0,0-.71-5.34l-.14-.26-7.31.79,0,.42s.29,4,.36,8.54c0,2.25,0,4.45-.13,6.46h0Z"/><path class="cls-125" d="M40.74,243.61s14.7-1.57,22.13-1.73,22-1.33,22-1.33A8.3,8.3,0,0,1,86,246.26c-12.85.91-18.41.49-25.4,1s-15,1.75-21.7,1.25l-.92-2.06Z"/><path class="cls-126" d="M42.26,247.42a4.27,4.27,0,0,1,0-2.79"/><path class="cls-126" d="M44.69,247.34a4.51,4.51,0,0,1,0-3"/><path class="cls-126" d="M47.14,247.19a4.71,4.71,0,0,1,0-3.11"/><path class="cls-126" d="M49.58,247a4.58,4.58,0,0,1,0-3"/><path class="cls-126" d="M52,246.8a4.67,4.67,0,0,1,0-3"/><path class="cls-126" d="M54.54,246.64a4.71,4.71,0,0,1-.12-3"/><path class="cls-126" d="M57,246.33a4.41,4.41,0,0,1-.12-2.94"/><path class="cls-126" d="M59.37,246.16a4.5,4.5,0,0,1,0-3"/><path class="cls-126" d="M61.84,246.12a4.62,4.62,0,0,1,0-3.05"/><path class="cls-126" d="M64.29,246a4.59,4.59,0,0,1,0-3"/><path class="cls-126" d="M66.78,245.85a4.54,4.54,0,0,1-.06-2.93"/><path class="cls-126" d="M69.23,245.89a4.68,4.68,0,0,1,0-3"/><path class="cls-126" d="M72.08,245.74a4.67,4.67,0,0,1,0-3"/><path class="cls-126" d="M74.53,245.57a4.83,4.83,0,0,1,0-3.14"/><path class="cls-126" d="M77,245.56a4.66,4.66,0,0,1,0-3.1"/><path class="cls-126" d="M79.43,245.44a4.73,4.73,0,0,1,0-3.1"/><path class="cls-126" d="M82,245.22a4.67,4.67,0,0,1-.21-3.09"/><path class="cls-126" d="M84.61,245.19a5.13,5.13,0,0,1-.43-3.3"/><path class="cls-120" d="M97.93,249.14c.48-5.07.5-12.34-.08-14.34l-3.8.06a92.35,92.35,0,0,1,0,14.46Z"/><path class="cls-20" d="M98.36,249.12c.23-2.45.35-5.39.35-8a29.78,29.78,0,0,0-.46-6.43l-.09-.31-4.57.08,0,.46a91.45,91.45,0,0,1,0,14.42l.86,0a90.52,90.52,0,0,0,0-14l3-.05a36.15,36.15,0,0,1,.34,5.88c0,2.64-.12,5.61-.35,8Z"/><path class="cls-127" d="M105.38,248.88c.46,2.07,6.06,2.17,6.43-.47-.09-3.06-.1-9.64-.26-14.2-.11-3.12-1.23-3.68-2.78-3.44-15.28,2.35-48.92,5.8-66.84,8.88-2.28.39-3.78,5-5.5,5.26-.12,0-.17.11-.07.21,0,1.28.45,2,1.74,2,1.6,0,2.38-5.55,6-6.19,7.74-1.35,21.41-2.3,24.64-2.77,4.73-.69,27.55-2.07,36.32-2.83C105.83,238.6,105,245.9,105.38,248.88Z"/><polyline class="cls-128" points="96.85 237.35 95.79 238.71 96.97 239.86"/><polyline class="cls-128" points="96.85 241.81 95.83 243.12 96.96 244.23"/><polyline class="cls-128" points="96.83 246 95.7 247.22 96.73 248.43"/><polyline class="cls-128" points="94.81 221.74 93.43 220.91 94.23 219.61"/><polyline class="cls-128" points="95.77 224.88 94.38 224.04 95.19 222.73"/><polyline class="cls-128" points="96.16 225.96 95.27 227.31 96.57 228.14"/><polyline class="cls-128" points="96.89 229.24 96.01 230.59 97.3 231.41"/><polyline class="cls-128" points="82.47 226.36 81.08 225.52 81.88 224.21"/><polyline class="cls-128" points="82.86 227.44 81.97 228.79 83.27 229.62"/><polyline class="cls-128" points="83.59 230.72 82.71 232.07 84 232.89"/><path class="cls-120" d="M112.84,218.28c.21-4.16-.32-6.34-2.37-9.64l-3.36.52c2.24,4.06,2,5.22,2.44,10Z"/><path class="cls-20" d="M112.43,218.25a17.78,17.78,0,0,0-.37-5,15.4,15.4,0,0,0-1.94-4.39l-.07-.14.71-.11a16,16,0,0,1,1.95,4.48,18.33,18.33,0,0,1,.4,5.14l-.69.17v-.14Zm-3.12.93c-.06-.71-.11-1.28-.16-1.81a16.17,16.17,0,0,0-2.29-8.17l.7-.11.07.13c1.8,3.4,1.91,4.78,2.2,8.1l.13,1.57V219Z"/><polyline class="cls-128" points="111.89 217.71 110.62 216.55 111.58 215.22"/><polyline class="cls-128" points="111.63 214.25 110.18 213.3 110.92 211.83"/><polyline class="cls-128" points="110.43 210.81 109.2 210.24 109.75 209.24"/><path class="cls-120" d="M109.83,225.12l5.69-1.16c2.14,3.85,2.43,5.53,2,9.6L112,235.27C112.24,230.37,111.61,229.83,109.83,225.12Z"/><path class="cls-20" d="M115.23,224.17a15.93,15.93,0,0,1,1.84,4.6,15.39,15.39,0,0,1,.07,4.74l0,.18.74-.25a14,14,0,0,0-.1-4.81,16.33,16.33,0,0,0-1.87-4.72l-.75.13.09.13Zm-5.75,1,.52,1.36c1.32,3.43,1.81,4.58,1.56,8.84l.73-.23V235c.19-4-.32-5.32-1.63-8.71l-.43-1.13,0-.13-.71.15Z"/><path class="cls-120" d="M114.2,224.23c2,3.65,2.48,5.85,2.07,9.71l-3.25,1c.25-4.63-.45-5.58-2.14-10Z"/><path class="cls-20" d="M113.85,224.43a18.06,18.06,0,0,1,1.85,4.68,15.49,15.49,0,0,1,.17,4.79v.16l.68-.21a16.09,16.09,0,0,0-.19-4.88,18.31,18.31,0,0,0-1.89-4.8l-.69.15.07.11Zm-3.21.53c.25.67.46,1.21.64,1.7a16.19,16.19,0,0,1,1.5,8.35l.68-.21v-.14c.13-3.85-.37-5.14-1.56-8.25l-.56-1.47,0-.12Z"/><polyline class="cls-128" points="113.6 225.16 112.96 226.76 114.41 227.54"/><polyline class="cls-128" points="114.87 228.39 113.98 229.87 115.28 230.87"/><polyline class="cls-128" points="115.29 232.01 114.44 233.06 115.36 233.72"/></g></g></svg>