<svg xmlns="http://www.w3.org/2000/svg" xmlns:xlink="http://www.w3.org/1999/xlink" width="45.92mm" height="50.44mm" viewBox="0 0 130.16 142.99"><defs><style>.cls-1,.cls-21,.cls-23,.cls-24,.cls-4,.cls-7,.cls-8{fill:none;}.cls-2{clip-path:url(#clip-path);}.cls-15,.cls-3{fill:#e8ccba;}.cls-10,.cls-11,.cls-12,.cls-13,.cls-14,.cls-15,.cls-16,.cls-17,.cls-18,.cls-19,.cls-20,.cls-21,.cls-22,.cls-23,.cls-24,.cls-3,.cls-4,.cls-5,.cls-7,.cls-8,.cls-9{stroke:#1a1a18;}.cls-10,.cls-11,.cls-12,.cls-13,.cls-14,.cls-15,.cls-16,.cls-17,.cls-18,.cls-19,.cls-20,.cls-21,.cls-22,.cls-23,.cls-24,.cls-3,.cls-4,.cls-5,.cls-8,.cls-9{stroke-miterlimit:22.93;}.cls-11,.cls-12,.cls-14,.cls-16,.cls-21,.cls-23,.cls-3,.cls-5,.cls-7,.cls-8,.cls-9{stroke-width:0.43px;}.cls-10,.cls-11,.cls-12,.cls-13,.cls-14,.cls-15,.cls-16,.cls-17,.cls-18,.cls-19,.cls-20,.cls-22,.cls-23,.cls-24,.cls-3,.cls-4,.cls-5,.cls-6,.cls-7,.cls-8,.cls-9{fill-rule:evenodd;}.cls-10,.cls-13,.cls-15,.cls-17,.cls-18,.cls-19,.cls-20,.cls-24,.cls-4{stroke-width:0.42px;}.cls-5{fill:#84746c;}.cls-6{fill:#fff;}.cls-23,.cls-24,.cls-7{stroke-linecap:round;}.cls-7{stroke-linejoin:round;}.cls-10,.cls-9{fill:#3b3b3a;}.cls-11,.cls-19{fill:#a55300;}.cls-12,.cls-13,.cls-22{fill:#d6c091;}.cls-14,.cls-20{fill:#bc8b6d;}.cls-16{fill:#432713;}.cls-17{fill:#c5c6c6;}.cls-18{fill:#575656;}.cls-22{stroke-width:0.43px;}</style><clipPath id="clip-path" transform="translate(-45.75 -8.16)"><rect id="SVGID" class="cls-1" width="138.9" height="138" rx="11.1"/></clipPath></defs><title>Ресурс 16</title><g id="Слой_2" data-name="Слой 2"><g id="Слой_1-2" data-name="Слой 1"><g class="cls-2"><path class="cls-3" d="M99.24,27c.05.59.12,1.25.2,1.92-.07-.65-.18-1.67-.2-1.92Zm.21,2c.8.24,1-1.2,1.08-2,.18-1.94-1.31-6.58-.37-7.85,1.64-2.23,12-4.9,14-4.23s10.63,2.14,10.82,4.42-.73,6.86-.47,7.89a1.66,1.66,0,0,0,.94,1.24c.1,3,.15,7.41-3.41,9.89s-10.94,2.52-15.27,1.09a11.34,11.34,0,0,1-6.64-6.42A25.7,25.7,0,0,1,99.45,29.05Z" transform="translate(-45.75 -8.16)"/><path class="cls-4" d="M116.31,28.85c.47-.78,2.27-2.5,5.57-.52a3,3,0,0,1-.49.46" transform="translate(-45.75 -8.16)"/><path class="cls-5" d="M119,27.65a.84.84,0,1,1-.83.84A.83.83,0,0,1,119,27.65Z" transform="translate(-45.75 -8.16)"/><path class="cls-6" d="M118.64,28a.28.28,0,0,1,.27.28.27.27,0,0,1-.54,0A.28.28,0,0,1,118.64,28Z" transform="translate(-45.75 -8.16)"/><path class="cls-4" d="M109.12,34.73c.84,1.38,6.4,2,8.56.05" transform="translate(-45.75 -8.16)"/><path class="cls-7" d="M112.29,32.79a2.79,2.79,0,0,0,2.74,0c.83-.59,0-1.59,0-1.59" transform="translate(-45.75 -8.16)"/><path class="cls-8" d="M110,28.85c-.47-.78-2.28-2.5-5.57-.52a2.67,2.67,0,0,0,.49.46" transform="translate(-45.75 -8.16)"/><path class="cls-5" d="M107.37,27.65a.84.84,0,0,0,0,1.68.84.84,0,0,0,0-1.68Z" transform="translate(-45.75 -8.16)"/><path class="cls-6" d="M107.05,28a.29.29,0,0,0-.28.28.28.28,0,0,0,.55,0A.28.28,0,0,0,107.05,28Z" transform="translate(-45.75 -8.16)"/><path class="cls-9" d="M117.93,24.26a3.21,3.21,0,0,1,1.48-.3c.57.11,1.75.61,1.91,1s-.44.72-.87.45a4.18,4.18,0,0,0-2.06-.28C118,25.2,117.24,24.68,117.93,24.26Z" transform="translate(-45.75 -8.16)"/><path class="cls-10" d="M107.55,24.29a3.2,3.2,0,0,0-1.44-.3,3.59,3.59,0,0,0-1.88,1c-.16.37.43.7.86.43a4.06,4.06,0,0,1,2-.27C107.47,25.21,108.22,24.7,107.55,24.29Z" transform="translate(-45.75 -8.16)"/><path class="cls-3" d="M99.24,27c.05.59.12,1.25.2,1.92-.07-.65-.18-1.67-.2-1.92Zm.65,5.22c-3.16.35-3.63-4-2.76-5.29s2.1,0,2.1,0l1.27.43c-.1.81-.35,1.86-1,1.65C99.58,30.24,99.74,31.44,99.89,32.25Z" transform="translate(-45.75 -8.16)"/><path class="cls-11" d="M122.56,41.92s3.34-.91,5.27-.19,17.36,7.7,20.7,8.08a105.89,105.89,0,0,1,10.59,2.34s-1.22,5.57-1.36,6.19a48.82,48.82,0,0,0-.54,4.92c-1.09-.1-7.76-.69-11-1.13-3.58-.47-9.69-.78-13.08-1.64-.57.95-.47,14.23.12,16.82a40.66,40.66,0,0,1,1.12,4.43c-.06,1.36-1.16,2.72-3.76,4-5.65,2.86-26.91,2-32.37,1.14s-8.66-3.56-7.15-7.18,2-16.88,1.78-18.21c-12.9,4.66-16.23,4.23-27.79,6.38-.15-1.45-.63-3.4-.72-4-.11-.82-1.39-7-1.95-8.59C70.6,53.15,82.92,49.4,90.3,46c2.07-.95,4.81-4.57,8-4.47s5.41,4,5.41,4,4.33,4.85,5.65,4.95,9.22-4.85,9.22-4.85Z" transform="translate(-45.75 -8.16)"/><path class="cls-11" d="M130.58,85.77c3.08,5,5.15,13.33,7.49,18.84,0,0-15.06,4-22.4,3.8S86.36,105,87.15,103.75c2-3,3.74-13.72,6.76-18.09a14.46,14.46,0,0,0,4.3,1.25C103.67,87.72,124.93,88.63,130.58,85.77Z" transform="translate(-45.75 -8.16)"/><path class="cls-12" d="M131.23,85.42c.3.47-.07,1.34.21,1.87C122.81,91,98.62,90,92.9,87.43c.32-.66-.08-1.66.28-2.17a10.65,10.65,0,0,0,5,1.65C101.77,87.44,125.59,88.27,131.23,85.42Z" transform="translate(-45.75 -8.16)"/><path class="cls-13" d="M159.12,52.15s.9-2.06,2-1.94,2.44.54,2.32,2.18-1.2,8.52-1.24,9.28-.1,4.18-1.08,4.61-3.53-.38-3.86-1.19.33-6.13.47-6.75S159.12,52.15,159.12,52.15Z" transform="translate(-45.75 -8.16)"/><path class="cls-12" d="M57.58,55.78s.91-1.73,2.33-1.81,1.88.21,2.34,1a81.53,81.53,0,0,1,2.08,8.9c.13.88,1,4.47.67,5.44a2.89,2.89,0,0,1-3.55,1.13c-1.16-.67-2.67-6.53-2.87-7.29S57,58.57,57.58,55.78Z" transform="translate(-45.75 -8.16)"/><path class="cls-14" d="M163.35,54.89c.14,0,2-.21,2.63-.35s4.31-.72,5.3.16.14,1.07-.15,1.22a8.94,8.94,0,0,1-1,.35,20.49,20.49,0,0,0,1.93.93c.8.31,2.89,1.45,3.11,1.93a2.28,2.28,0,0,1,.19,2.57c-.78,1.19-3.28,1.68-5.39,1.76a47.5,47.5,0,0,1-6.54-.81,4,4,0,0,1-1.22-.39c0-.25,0-.46,0-.59,0-.54.58-4.09.94-6.73Z" transform="translate(-45.75 -8.16)"/><path class="cls-14" d="M57.81,59.27c-.47,0-2-.1-2.52-.19S51,58.63,50,59.57s-.07,1.07.22,1.2a7.81,7.81,0,0,0,1,.29,20.54,20.54,0,0,1-1.87,1c-.78.36-2.8,1.62-3,2.11a2.27,2.27,0,0,0,0,2.58c.84,1.14,3.36,1.48,5.48,1.42A46.46,46.46,0,0,0,58.33,67a4.39,4.39,0,0,0,1.5-.64c-.6-1.76-1.08-3.63-1.2-4S58.11,60.73,57.81,59.27Z" transform="translate(-45.75 -8.16)"/><path class="cls-12" d="M135.82,104.22a16.77,16.77,0,0,1,1.87-.26c1.69-.08,1.57,2.36.93,3.88-2.21,5.3-48.36,7.32-52.58-1.46-.85-1.76-.29-4.46,1.25-4C104.77,107.55,116.17,107.26,135.82,104.22Z" transform="translate(-45.75 -8.16)"/><path class="cls-12" d="M100.06,95.81a2.24,2.24,0,0,1,1.7,1.44A7.08,7.08,0,0,1,102,101c-.16.77-1,3.41-2,3.41s-1.86-2.48-2-3.27A7.11,7.11,0,0,1,98,97.35,2.44,2.44,0,0,1,100.06,95.81Z" transform="translate(-45.75 -8.16)"/><path class="cls-13" d="M121.69,40.36c3.94.86,4.85,4.38,4.21,8-.85,4.75-4.19,11.61-12.91,12S98.42,52.62,99.72,44a4.59,4.59,0,0,1,3.07-3.86c1.7-.48,1.65.05,2.5,1.53s3,5.42,5.46,5.9,5.22.09,7-1.57a7.4,7.4,0,0,0,2.07-3.81C119.92,41.87,120.33,40.3,121.69,40.36Z" transform="translate(-45.75 -8.16)"/><path class="cls-15" d="M118.7,39.85a6.76,6.76,0,0,0-.27,2.66c0,.22.73.23,1.18.31a6.86,6.86,0,0,1-1.9,3.19c-1.74,1.66-4.51,2-7,1.57-2-.38-3.71-2.95-4.78-4.73.66-.22,1.46-.45,1.5-.65a4.25,4.25,0,0,0-.07-2.5,27,27,0,0,0,10.87.25Z" transform="translate(-45.75 -8.16)"/><path class="cls-16" d="M125.39,27.07l.85-.49,1-.16a22.66,22.66,0,0,1-.14-2.29c0-1.36.76-6.14-1-9.95s-7-6.76-12.94-5.52c-3.77-.4-6.84-.16-9.22,1-10,4.88-5.3,14.88-6.35,17.89-.14.4,1.18,0,1.18,0l.53-.6.22,2.08c.8.24,1-1.2,1.08-2,.18-1.94-.74-5.63.19-6.9,1.65-2.23,11-2.66,12.7-2.57s11.36.62,11.55,2.91-.75,5.76-.49,6.79a1.66,1.66,0,0,0,.94,1.24Z" transform="translate(-45.75 -8.16)"/><path class="cls-17" d="M127.06,23.64c-6.92-4.89-21.73-4.38-28.44.32l-1.53,1-.19-3.27.23-.14c7-5.59,23.15-6.28,30.23-.8.16.11.25.26.15.73a6,6,0,0,0-.05,1.83C127.52,23.59,127.33,23.83,127.06,23.64Z" transform="translate(-45.75 -8.16)"/><path class="cls-3" d="M125.34,32.14c2.86,0,3.27-4.05,2.43-5.31a1.39,1.39,0,0,0-2.38.24l0,1.45A23.6,23.6,0,0,1,125.34,32.14Z" transform="translate(-45.75 -8.16)"/><path class="cls-18" d="M103.27,40a10.12,10.12,0,0,1,3.48-.52l.65.19h0a4.25,4.25,0,0,1,.07,2.5c0,.2-.84.43-1.5.65-.28-.46-.18-.3-.68-1.17s-.68-1.49-2-1.65Zm15-.07.06,0h-.06Zm.43-.07c1.52.18,2.3,0,3,.47a7.34,7.34,0,0,0-1.91,1.84c-.08.19-.08.32-.17.62-.45-.08-1.17-.09-1.18-.31A7.23,7.23,0,0,1,118.68,39.89Z" transform="translate(-45.75 -8.16)"/><path class="cls-19" d="M106.79,44.13s6.85,2.49,12.25.14A6.72,6.72,0,0,1,117.71,46c-1.74,1.66-4.51,2-7,1.57C109.24,47.28,107.84,45.67,106.79,44.13Z" transform="translate(-45.75 -8.16)"/><path class="cls-18" d="M115.25,112.36a18.69,18.69,0,0,1-.21,2.82c-.18.76-.89,2.43.71,3.9S129.3,121,130.9,119s-.38-4.66-.38-4.66l.13-3.35A105.08,105.08,0,0,1,115.25,112.36Z" transform="translate(-45.75 -8.16)"/><path class="cls-12" d="M116.88,119.61a3.33,3.33,0,0,0-.28,1.07,3.46,3.46,0,0,0,.73,3c.65.77,6.62,1.5,8.56,1.33s4.59-.73,4.86-1.72.66-3.22-.47-3.86h0C127.77,120.7,120,120.53,116.88,119.61Z" transform="translate(-45.75 -8.16)"/><path class="cls-20" d="M129.41,124.32l.07,9c0,3.6,4,6.53,5.17,7.44s3.78,3.75,1.69,5.24-5.05,1.28-6.86.68-4.39-3-5.48-4c-2.75-.73-3.93-1.73-4.74-2.82a13,13,0,0,1,.33-4.84c.28-1.31-.43-7.73-.88-10.75a30.33,30.33,0,0,0,7.18.76,14.8,14.8,0,0,0,3.49-.7Z" transform="translate(-45.75 -8.16)"/><path class="cls-17" d="M113.07,16.86a1.79,1.79,0,1,1-1.77,1.79A1.79,1.79,0,0,1,113.07,16.86Z" transform="translate(-45.75 -8.16)"/><path class="cls-18" d="M109.86,112.37c-.14,1.21-.28,2.57-.3,3.19,0,1.25,1.07,2.87-.53,4.34s-11.29,2.24-13.4.15-.23-7-.23-7l.14-2A85.76,85.76,0,0,0,109.86,112.37Z" transform="translate(-45.75 -8.16)"/><path class="cls-13" d="M109,119.9a3.33,3.33,0,0,1,.34,1.23,3.41,3.41,0,0,1-.75,3c-.66.76-6.63,1.45-8.56,1.26s-4.59-.76-4.85-1.76-.72-3,.42-3.6h0C98.63,121.16,106.38,120.89,109,119.9Z" transform="translate(-45.75 -8.16)"/><path class="cls-14" d="M96.46,124.64l.73,10.5c.25,3.59-2,7.21-3.6,9s-2.74,4.43-.71,6,5.78.61,7.61-1.34,3-5,3.88-7.18a9.79,9.79,0,0,0,2.17-2.17,8.38,8.38,0,0,0-.1-3.85,54.61,54.61,0,0,1,.78-10.9,29.92,29.92,0,0,1-7.16.7A14,14,0,0,1,96.46,124.64Z" transform="translate(-45.75 -8.16)"/><line class="cls-21" x1="63.8" y1="51.91" x2="63.78" y2="56.13"/><path class="cls-4" d="M100.45,87.12c0,3-.27,5.76-.39,8.69" transform="translate(-45.75 -8.16)"/><path class="cls-8" d="M104.08,86.7c.16,1.72-.06,3.25.06,5" transform="translate(-45.75 -8.16)"/><path class="cls-12" d="M104.2,91.71A2,2,0,0,1,105.72,93a6.44,6.44,0,0,1,.17,3.34c-.14.69-.93,2.41-1.82,2.41s-1.65-1.57-1.79-2.28a6.37,6.37,0,0,1,.11-3.37A2.18,2.18,0,0,1,104.2,91.71Z" transform="translate(-45.75 -8.16)"/><path class="cls-22" d="M109.61,64.21a2,2,0,0,1,1.52,1.29,6.44,6.44,0,0,1,.17,3.34c-.14.69-.93,2.41-1.82,2.41s-1.65-1.57-1.79-2.28a6.37,6.37,0,0,1,.11-3.37A2.18,2.18,0,0,1,109.61,64.21Z" transform="translate(-45.75 -8.16)"/><line class="cls-21" x1="57.34" y1="48.04" x2="57.33" y2="52.26"/><path class="cls-22" d="M103.15,60.34a2,2,0,0,1,1.52,1.29,6.32,6.32,0,0,1,.18,3.34c-.14.69-.93,2.41-1.82,2.41s-1.65-1.57-1.8-2.28a6.35,6.35,0,0,1,.12-3.37A2.17,2.17,0,0,1,103.15,60.34Z" transform="translate(-45.75 -8.16)"/><line class="cls-21" x1="70.96" y1="51.57" x2="70.94" y2="55.79"/><path class="cls-12" d="M116.77,63.88a2,2,0,0,1,1.52,1.28,6.32,6.32,0,0,1,.18,3.34c-.14.69-.93,2.41-1.83,2.41s-1.64-1.57-1.79-2.28a6.48,6.48,0,0,1,.11-3.37A2.18,2.18,0,0,1,116.77,63.88Z" transform="translate(-45.75 -8.16)"/><line class="cls-21" x1="77.48" y1="46.75" x2="77.47" y2="50.98"/><path class="cls-22" d="M123.29,59.06a2,2,0,0,1,1.53,1.28,6.44,6.44,0,0,1,.17,3.34c-.14.69-.93,2.42-1.82,2.42s-1.65-1.58-1.79-2.29a6.27,6.27,0,0,1,.11-3.37A2.16,2.16,0,0,1,123.29,59.06Z" transform="translate(-45.75 -8.16)"/><path class="cls-4" d="M119.65,134.25s6.45,2.6,9.93,0" transform="translate(-45.75 -8.16)"/><path class="cls-4" d="M122.19,124.64s.48,12.12,1.64,13.6,8.46,6.22,8.91,8.86" transform="translate(-45.75 -8.16)"/><path class="cls-8" d="M97.19,135.14s6.27,2.31,9.2,0" transform="translate(-45.75 -8.16)"/><path class="cls-8" d="M98.67,150.14c0-2.43.67-3.67,1.9-5.87a55.87,55.87,0,0,0,2.61-5.86,128.18,128.18,0,0,0,.48-13.13" transform="translate(-45.75 -8.16)"/><path class="cls-23" d="M125.45,30.23c1.11.06,1-1.19.71-1.8s.28-1.49,1-.69" transform="translate(-45.75 -8.16)"/><path class="cls-15" d="M99.89,32.25c-3,.3-3.58-3.89-2.81-5.2.53-.92,1.62-.62,2.17.09C99.46,29.19,99.6,30.34,99.89,32.25Z" transform="translate(-45.75 -8.16)"/><path class="cls-24" d="M99.65,30.65c-1.11.11-1-1.14-.8-1.77s-.34-1.47-1-.65" transform="translate(-45.75 -8.16)"/></g></g></g></svg>