<svg xmlns="http://www.w3.org/2000/svg" xmlns:xlink="http://www.w3.org/1999/xlink" width="45.76mm" height="50.59mm" viewBox="0 0 129.72 143.41"><defs><style>.cls-1,.cls-10,.cls-19,.cls-21,.cls-7{fill:none;}.cls-2{clip-path:url(#clip-path);}.cls-12,.cls-3{fill:#160017;}.cls-3{stroke:#160017;}.cls-11,.cls-12,.cls-13,.cls-14,.cls-15,.cls-16,.cls-17,.cls-18,.cls-19,.cls-20,.cls-22,.cls-3,.cls-4,.cls-5,.cls-6,.cls-7,.cls-8,.cls-9{stroke-miterlimit:22.93;}.cls-10,.cls-12,.cls-13,.cls-14,.cls-15,.cls-16,.cls-17,.cls-18,.cls-19,.cls-20,.cls-21,.cls-22,.cls-3,.cls-4,.cls-5,.cls-6,.cls-7,.cls-8{stroke-width:0.43px;}.cls-10,.cls-11,.cls-12,.cls-13,.cls-14,.cls-15,.cls-16,.cls-17,.cls-18,.cls-19,.cls-20,.cls-21,.cls-3,.cls-4,.cls-5,.cls-6,.cls-7,.cls-8,.cls-9{fill-rule:evenodd;}.cls-13,.cls-4{fill:#a21e06;}.cls-10,.cls-11,.cls-12,.cls-14,.cls-15,.cls-16,.cls-17,.cls-18,.cls-20,.cls-22,.cls-4,.cls-5,.cls-6,.cls-7,.cls-8,.cls-9{stroke:#1a1a18;}.cls-5{fill:#e3000f;}.cls-6{fill:#e8ccba;}.cls-8{fill:#84746c;}.cls-9{fill:#fff;stroke-width:0.43px;}.cls-10,.cls-21{stroke-linecap:round;stroke-linejoin:round;}.cls-11{fill:#3b3b3a;stroke-width:0.5px;}.cls-13,.cls-19,.cls-21{stroke:#fcd5a5;}.cls-14{fill:#b9b2ac;}.cls-15{fill:#61484b;}.cls-16{fill:#432713;}.cls-17{fill:#a55300;}.cls-18{fill:#0a0004;}.cls-20,.cls-22{fill:#fcd5a5;}</style><clipPath id="clip-path" transform="translate(-43.43 -7.01)"><rect id="SVGID" class="cls-1" width="138.9" height="138" rx="11.1"/></clipPath></defs><title>Ресурс 17</title><g id="Слой_2" data-name="Слой 2"><g id="Слой_1-2" data-name="Слой 1"><g class="cls-2"><path class="cls-3" d="M122.25,39.93a23.22,23.22,0,0,0,2.92-14.29A39.56,39.56,0,0,0,120.44,11c-3.37-5.34-14.37-4.31-17.59-1.54-6.25,5.38-11.09,23.1-3.44,29.1,1.47,1.16,0,3.44,1.94,4,6.79,2,18.64-.53,18.64-.53l.23-2Z" transform="translate(-43.43 -7.01)"/><path class="cls-4" d="M123.55,20.7s-1.91-9.27-12.94-9.23c-10.23,0-13.55,7.24-14,12S103,17,103,17l11.19-1.37,6.22,4.23Z" transform="translate(-43.43 -7.01)"/><path class="cls-5" d="M106.28,7.88a9.72,9.72,0,0,0-3.15,1.4v6.37h3.15Z" transform="translate(-43.43 -7.01)"/><path class="cls-5" d="M117.38,8.44a12.58,12.58,0,0,0-3.15-1v8.18h3.15Z" transform="translate(-43.43 -7.01)"/><path class="cls-6" d="M96.78,27.45c0,.58.12,1.24.2,1.9-.07-.65-.18-1.65-.2-1.9Zm.21,2c.8.24,1-1.18,1.08-2,.17-1.91-1.31-6.49-.38-7.73,1.64-2.21,11.91-4.83,13.92-4.17s10.6,2.1,10.78,4.35-.72,6.77-.46,7.77a1.63,1.63,0,0,0,.93,1.23c.1,2.91.15,7.3-3.4,9.75s-10.9,2.48-15.21,1.07a11.21,11.21,0,0,1-6.61-6.32A23.18,23.18,0,0,1,97,29.44Z" transform="translate(-43.43 -7.01)"/><path class="cls-7" d="M113.78,29.25c.47-.78,2.27-2.46,5.55-.52a2.62,2.62,0,0,1-.48.46" transform="translate(-43.43 -7.01)"/><path class="cls-8" d="M116.42,28.06a.83.83,0,1,1-.83.83A.83.83,0,0,1,116.42,28.06Z" transform="translate(-43.43 -7.01)"/><path class="cls-9" d="M116.11,28.44a.27.27,0,0,1,0,.54.27.27,0,1,1,0-.54Z" transform="translate(-43.43 -7.01)"/><path class="cls-7" d="M106.62,35c.84,1.36,6.37,2,8.53.05" transform="translate(-43.43 -7.01)"/><path class="cls-10" d="M109.44,33.27a2.79,2.79,0,0,0,2.73,0c.82-.58,0-1.57,0-1.57" transform="translate(-43.43 -7.01)"/><path class="cls-7" d="M107.52,29.25c-.47-.78-2.27-2.46-5.55-.52a2.62,2.62,0,0,0,.48.46" transform="translate(-43.43 -7.01)"/><path class="cls-8" d="M104.88,28.06a.83.83,0,1,0,.83.83A.83.83,0,0,0,104.88,28.06Z" transform="translate(-43.43 -7.01)"/><path class="cls-9" d="M104.55,28.44a.27.27,0,1,0,0,.54.27.27,0,0,0,0-.54Z" transform="translate(-43.43 -7.01)"/><path class="cls-11" d="M114.67,24.44a5.41,5.41,0,0,1,2.14-.37c.83.14,2.53.74,2.77,1.21s-.63.87-1.27.54a7,7,0,0,0-3-.34C114.79,25.58,113.68,25,114.67,24.44Z" transform="translate(-43.43 -7.01)"/><path class="cls-12" d="M120,42.12s3.33-.89,5.25-.18,17.3,7.59,20.63,8a106.12,106.12,0,0,1,10.54,2.31s-1.21,5.49-1.36,6.1c-.09.41-.43,3-.53,4.85-1.09-.1-7.74-.69-11-1.12-3.56-.46-9.66-.77-13-1.61-.56.93-.72,12-.13,14.52a39.25,39.25,0,0,1,1.11,4.37c-.05,1.34-1.15,2.68-3.74,4-5.62,2.81-26.81,1.92-32.25,1.12s-8.62-3.52-7.12-7.08,2.28-14.59,2-15.9C77.56,66,74.23,65.61,62.71,67.73c-.14-1.43-.62-3.35-.71-4-.11-.8-1.39-6.87-2-8.45,8.2-2.12,20.47-5.81,27.83-9.16,2.06-.93,4.78-4.5,8-4.4s5.39,3.94,5.39,3.94,4.31,4.78,5.63,4.87,9.18-4.78,9.18-4.78Z" transform="translate(-43.43 -7.01)"/><path class="cls-4" d="M66,67.15c-1,.17-2.12.36-3.31.58-.14-1.43-.62-3.35-.71-4-.11-.8-1.39-6.87-2-8.45l3.44-.92C64.23,57.78,65.52,63.78,66,67.15Z" transform="translate(-43.43 -7.01)"/><path class="cls-4" d="M153.74,51.52c1.21.3,2.2.56,2.69.69,0,0-1.21,5.49-1.36,6.1-.09.41-.43,3-.53,4.85l-3-.27C151.89,60,153.07,54.5,153.74,51.52Z" transform="translate(-43.43 -7.01)"/><path class="cls-13" d="M117.3,85.61C112,85.9,107,85.26,102.37,85c-.69-2.67-.06-8.73-.08-15.73,0-7.49-.53-16.05.27-22.21,1.38,1.42,5.07.53,5.9.59s1.91,1,4.33-.4l4.94.21c.48,7.53.21,16-.07,24.41C117.5,76.5,117.93,81.46,117.3,85.61Z" transform="translate(-43.43 -7.01)"/><path class="cls-12" d="M128,85.34c3.07,4.92,5.13,13.14,7.46,18.56,0,0-15,3.94-22.31,3.75s-29.2-3.4-28.41-4.59c2-3,3.72-13.52,6.73-17.83a14.94,14.94,0,0,0,4.28,1.24C101.19,87.26,122.38,88.15,128,85.34Z" transform="translate(-43.43 -7.01)"/><path class="cls-13" d="M132.94,97.1c.49,1.42,1,2.82,1.46,4.14-6.11.46-16.54,1.74-16.57,1.74l-2,.25-.32-2c-.25-1.56-.52-2.88-.79-4.21a76,76,0,0,1-1.47-9.75c1.45,0,2.88-.06,4.26-.13a71.78,71.78,0,0,0,1.36,9c.16.78.32,1.56.47,2.36,3.07-.36,9.08-1,13.63-1.42Zm-47.13,3.65c.43-1.16.86-2.58,1.31-4.09,5.83.9,11.43,1.58,14.22,1.9.55-2.5.84-4.93,1.13-7.37.16-1.32.32-2.65.54-4.13,1.34.06,2.78.12,4.27.15-.22,1.39-.41,2.94-.59,4.48a63.18,63.18,0,0,1-1.7,9.74l-.48,1.74-1.78-.19S94.36,102.08,85.81,100.75Z" transform="translate(-43.43 -7.01)"/><path class="cls-14" d="M156.43,52.21s.9-2,2-1.92,2.44.54,2.32,2.16-1.19,8.39-1.24,9.14-.1,4.12-1.08,4.54-3.52-.37-3.84-1.17.32-6,.46-6.65S156.43,52.21,156.43,52.21Z" transform="translate(-43.43 -7.01)"/><path class="cls-14" d="M55.27,55.79s.92-1.71,2.33-1.79,1.87.21,2.33,1A79.6,79.6,0,0,1,62,63.76c.13.88,1,4.41.67,5.36a2.9,2.9,0,0,1-3.53,1.13c-1.17-.67-2.66-6.44-2.87-7.19S54.69,58.53,55.27,55.79Z" transform="translate(-43.43 -7.01)"/><path class="cls-15" d="M160.64,54.91c.14,0,2-.21,2.63-.35s4.29-.7,5.27.16.14,1.06-.14,1.2a8.94,8.94,0,0,1-1,.35,20.41,20.41,0,0,0,1.92.91c.8.31,2.89,1.43,3.1,1.9a2.22,2.22,0,0,1,.19,2.53c-.78,1.18-3.26,1.67-5.37,1.74a47.63,47.63,0,0,1-6.52-.8,3.71,3.71,0,0,1-1.21-.38c0-.25,0-.45,0-.58,0-.53.57-4,.93-6.63Z" transform="translate(-43.43 -7.01)"/><path class="cls-15" d="M55.44,60c-.46,0-1.95-.1-2.5-.19s-4.33-.44-5.26.49-.08,1.06.21,1.18a9.85,9.85,0,0,0,1,.29,20.57,20.57,0,0,1-1.86,1,9.92,9.92,0,0,0-3,2.08,2.23,2.23,0,0,0,0,2.54c.84,1.12,3.35,1.46,5.46,1.41A48.18,48.18,0,0,0,56,67.67,4.23,4.23,0,0,0,57.46,67c-.6-1.72-1.08-3.57-1.19-4S55.74,61.47,55.44,60Z" transform="translate(-43.43 -7.01)"/><path class="cls-6" d="M116.16,40.08a7,7,0,0,0-.27,2.63c0,.21.73.22,1.18.3a6.55,6.55,0,0,1-1.89,3.14c-1.73,1.64-4.5,2-6.94,1.55-1.93-.37-3.69-2.91-4.76-4.66.66-.21,1.81-.33,1.86-.53.17-.79.54-1.85-.43-2.57a27.12,27.12,0,0,0,10.82.25Z" transform="translate(-43.43 -7.01)"/><path class="cls-16" d="M122.83,27.5l.85-.49.94-.16a2.83,2.83,0,0,1-1.19-2.11c0-1.34-.27-1-2.05-4.74s-5.17-6-10.91-5.74c-3.76-.39-4.41-.51-6.71.76C95.9,19.37,96.62,26.11,97,29.44c.8.24,1-1.18,1.08-2,.17-1.91.23-5.14,1.16-6.38.53-.72,3.5-2.72,4.35-2.68.39,0-.62,1-.75,1.82,1.1.2,2.58-.68,3.17-.7.16.14-1,.59-1.21,1.3,1.55.73,5,.72,6.42.46,1.83-.32,4.39-.34,6.28-2.65,3-.48,3.62,2.43,3.72,3.72a39.59,39.59,0,0,0,.72,5.33,1.63,1.63,0,0,0,.93,1.23Z" transform="translate(-43.43 -7.01)"/><path class="cls-17" d="M104.3,44.3s6.83,2.46,12.2.14a6.63,6.63,0,0,1-1.32,1.71c-1.73,1.64-4.5,2-6.94,1.55C106.74,47.41,105.34,45.82,104.3,44.3Z" transform="translate(-43.43 -7.01)"/><path class="cls-18" d="M109.63,106.27c0,.39-.6,7.85-.42,8.57s.89,2.39-.71,3.84-13.5,1.88-15.09-.09.37-4.59.37-4.59l.23-6.66C98.2,108.11,104,106.13,109.63,106.27Z" transform="translate(-43.43 -7.01)"/><path class="cls-14" d="M107.78,119.07a3.15,3.15,0,0,1,.35,1.21,3.37,3.37,0,0,1-.75,3c-.66.75-6.61,1.43-8.53,1.24s-4.57-.75-4.83-1.74-.72-2.93.41-3.55h0C97.42,120.31,105.15,120,107.78,119.07Z" transform="translate(-43.43 -7.01)"/><path class="cls-15" d="M95.27,123.74l-.45,8.84c-.17,3.55-4.29,6.26-5.46,7.11s-3.91,3.53-1.9,5.08,5,1.48,6.8,1,4.5-2.74,5.63-3.68c2.76-.61,4-1.54,4.82-2.58a12.36,12.36,0,0,0-.12-4.78c-.23-1.35.83-8.09,1.4-10.89a29.77,29.77,0,0,1-7.14.7A14.14,14.14,0,0,1,95.27,123.74Z" transform="translate(-43.43 -7.01)"/><path class="cls-18" d="M112.47,108.92c.16,1.31.72,5.46.74,6.44s-1.06,2.82.54,4.27,11.24,2.21,13.35.14.22-6.9.22-6.9l-.09-5A102.36,102.36,0,0,1,112.47,108.92Z" transform="translate(-43.43 -7.01)"/><path class="cls-14" d="M114.65,119.85c-.17.31.31.87.21,1.89s-.43,1.54.23,2.29,5.67,1.22,7.59,1a13.77,13.77,0,0,0,3.78-.84c.66-.29.69-4.46.31-4.34l.33-.11C124.11,120.87,117.28,120.82,114.65,119.85Z" transform="translate(-43.43 -7.01)"/><path class="cls-15" d="M126.26,124.3l-.73,10.35c-.25,3.53,2,7.1,3.59,8.88s2.73,4.36.71,5.91-5.75.6-7.58-1.32-3-4.92-3.86-7.08a9.56,9.56,0,0,1-2.17-2.14,8.26,8.26,0,0,1,.1-3.79,52.31,52.31,0,0,0-.78-10.74,30.18,30.18,0,0,0,7.14.69A14.14,14.14,0,0,0,126.26,124.3Z" transform="translate(-43.43 -7.01)"/><path class="cls-7" d="M104.57,133.93s-6.54,2.29-9.89-.4" transform="translate(-43.43 -7.01)"/><path class="cls-7" d="M102.44,124.36s-1,11.92-2.2,13.33S91.56,143.45,91,146" transform="translate(-43.43 -7.01)"/><path class="cls-7" d="M125.53,134.65s-6.24,2.27-9.16,0" transform="translate(-43.43 -7.01)"/><path class="cls-7" d="M124.06,149.43c0-2.39-.66-3.62-1.89-5.79a55.29,55.29,0,0,1-2.6-5.77,127.38,127.38,0,0,1-.48-12.94" transform="translate(-43.43 -7.01)"/><path class="cls-14" d="M121.38,28.37c.22-7-4.56-11.17-10.44-11.2-8.2-.05-11.64,4.15-11.69,11.61a15,15,0,0,0,3.56,9.07c1.14,1.12,3.46,3.78,2,4.71l-1.89-1.1a8.08,8.08,0,0,1-2-2.19A9.35,9.35,0,0,1,98,35.92c-1.52-1.46-2.12-4.69-1.75-6.4a15.44,15.44,0,0,1,1.44-9.07,7,7,0,0,1,3.24-4.5,9.13,9.13,0,0,1,6.14-3,13.93,13.93,0,0,1,8.22.29,8.83,8.83,0,0,1,6.31,5,7.9,7.9,0,0,1,2.89,6.12,12.86,12.86,0,0,1-.06,6.66,8.76,8.76,0,0,1-1.71,5.19,5.54,5.54,0,0,1-1.84,2.41c-.78.65-1.78,2.14-2.59,2.49a18.15,18.15,0,0,0-2.66,1.55c-.12-.59-.24-1.06,1.42-2.71a12.82,12.82,0,0,0,3.13-4.61C120.86,33.87,121.27,31.94,121.38,28.37Z" transform="translate(-43.43 -7.01)"/><path class="cls-11" d="M106.81,24.44a5.45,5.45,0,0,0-2.14-.37c-.83.14-2.54.74-2.77,1.21s.63.87,1.26.54a7.08,7.08,0,0,1,3-.34C106.69,25.58,107.8,25,106.81,24.44Z" transform="translate(-43.43 -7.01)"/><path class="cls-12" d="M120,40.2s-5.49,3.11-6.91,4.07-2.41,3.61-2.41,3.61l1.08-.33c.55-1,1.5-1.33,2.94-.9l10.61,6.48c1.1-1.08,4.49-7.16,5.54-8.86l1.36-.34c-1.47-1.1-7.24-2.31-9.28-3.18C121.91,40.33,121.35,39.72,120,40.2Z" transform="translate(-43.43 -7.01)"/><path class="cls-13" d="M115,43.08c-.82.49-1.52.92-1.92,1.19a4.09,4.09,0,0,0-.85.82,34.78,34.78,0,0,1,7.91,4.1c1.31.82,2.6,1.64,3.84,2.32l1.19.64.7-1.14c.48-.78,1-1.73,1.56-2.67a26.18,26.18,0,0,1,3.36-5.11c-.81-.32-1.84-.64-2.89-.94a37.37,37.37,0,0,0-2.93,4.65l-.81,1.41c-.83-.49-1.67-1-2.52-1.55A49.69,49.69,0,0,0,115,43.08Z" transform="translate(-43.43 -7.01)"/><path class="cls-14" d="M132.24,43.74c.37-.06,1.54.56,1,1.1-.2.19-.76.42-1,.73-.52.74-.64,2-1.55,2.84a20.22,20.22,0,0,1-3,4.6c-.68,1.35-2,2.61-2.75,2.58a4.93,4.93,0,0,1-2.46-1.66,10.52,10.52,0,0,1-5.27-3.48c-2.36-.91-3.23-1.62-3.75-2.25-.63.06-1.52-.46-1.35-1.16s1.4-.73,2.56-.39l10.61,6.48c1.1-1.08,4.49-7.16,5.54-8.86A2.25,2.25,0,0,1,132.24,43.74Z" transform="translate(-43.43 -7.01)"/><path class="cls-14" d="M111.5,89.22c-.15.9,1.35,14.85,1.35,14.85s.53,1.58,2,1.5,20.48-2.77,20.48-2.77.37,0,.45,1.61a2.78,2.78,0,0,1-2,3.08c-1.24.3-14.36,2.17-17.51,2.25s-5.52-1.21-5.55-4.07S110.45,90,110.45,90Z" transform="translate(-43.43 -7.01)"/><path class="cls-14" d="M108.69,88c.15.91-1.46,16-1.46,16s-.53,1.58-2,1.5S84.8,102.8,84.8,102.8s-.37,0-.45,1.61a2.78,2.78,0,0,0,2,3.08c1.24.3,14.36,2.17,17.51,2.25s5.29-1.13,5.89-3.88S111.62,88,111.62,88Z" transform="translate(-43.43 -7.01)"/><path class="cls-12" d="M100.72,40.2s5.49,3.11,6.9,4.07S110,47.88,110,47.88L109,47.55c-.54-1-1.49-1.33-2.93-.9L95.41,53.13c-1.11-1.08-4.49-7.16-5.54-8.86l-1.37-.34c1.48-1.1,7.25-2.31,9.29-3.18C98.77,40.33,99.33,39.72,100.72,40.2Z" transform="translate(-43.43 -7.01)"/><path class="cls-13" d="M105.68,43.07c.83.49,1.55.93,1.94,1.2a4.21,4.21,0,0,1,.84.8,34.2,34.2,0,0,0-8,4.12c-1.31.82-2.6,1.64-3.84,2.32l-1.19.64L94.77,51c-.48-.78-1-1.73-1.56-2.67a26.62,26.62,0,0,0-3.34-5.09c.81-.32,1.83-.64,2.89-1a39.21,39.21,0,0,1,2.91,4.64l.81,1.41c.83-.49,1.67-1,2.52-1.55A48,48,0,0,1,105.68,43.07Z" transform="translate(-43.43 -7.01)"/><path class="cls-14" d="M88.44,43.74c-.37-.06-1.54.56-1,1.1.2.19.76.42,1,.73.52.74.64,2,1.55,2.84A20.22,20.22,0,0,0,93,53c.68,1.35,2,2.61,2.75,2.58a5,5,0,0,0,2.46-1.66,10.57,10.57,0,0,0,5.27-3.48c2.36-.91,3.23-1.62,3.75-2.25.63.06,1.52-.46,1.35-1.16s-1.41-.73-2.56-.39L95.41,53.13c-1.11-1.08-4.49-7.16-5.54-8.86A2.27,2.27,0,0,0,88.44,43.74Z" transform="translate(-43.43 -7.01)"/><path class="cls-19" d="M102,80.68a151.89,151.89,0,0,0,15.6.26" transform="translate(-43.43 -7.01)"/><path class="cls-19" d="M113.45,48.2s-.15,29.06-.28,32.85" transform="translate(-43.43 -7.01)"/><path class="cls-19" d="M107.07,48.2s-.15,29.06-.28,32.85" transform="translate(-43.43 -7.01)"/><path class="cls-4" d="M128.65,83c.22.43,0,1.12.1,1.7a.59.59,0,0,1-.25.68c-8.48,4.32-31,3-37.49.26-.19-.08-.36-.42-.21-.61.32-.78-.18-1.44.17-2a30.6,30.6,0,0,0,5.62,1.2C100.14,84.78,123,86.34,128.65,83Z" transform="translate(-43.43 -7.01)"/><path class="cls-19" d="M113.41,56.41a22.63,22.63,0,0,0,4.58,0" transform="translate(-43.43 -7.01)"/><path class="cls-19" d="M113.33,64.05a22.62,22.62,0,0,0,4.58,0" transform="translate(-43.43 -7.01)"/><path class="cls-19" d="M113.33,72.59a21.93,21.93,0,0,0,4.58,0" transform="translate(-43.43 -7.01)"/><path class="cls-19" d="M102.11,56.41a22.63,22.63,0,0,0,4.58,0" transform="translate(-43.43 -7.01)"/><path class="cls-19" d="M102,64.05a22.52,22.52,0,0,0,4.57,0" transform="translate(-43.43 -7.01)"/><path class="cls-19" d="M102,72.59a21.92,21.92,0,0,0,4.58,0" transform="translate(-43.43 -7.01)"/><polyline class="cls-19" points="74.16 81.33 70.58 83.08 74.24 84.66 71.24 87.11 74.97 88.55 71.76 91.72"/><polyline class="cls-19" points="69.75 37.94 73.07 37.43 73.1 39.41 75.89 38.94 75.82 41.36 78.87 40.58 79.15 43.42 80.79 41.62 83.46 41.97 82.08 39.41 85.06 39.43 82.99 37.4 86.35 37.07 84.26 35.5"/><polyline class="cls-19" points="69.52 43.43 66.92 41 64.17 43.57"/><polyline class="cls-19" points="69.52 44.78 66.92 42.34 64.17 44.92"/><polyline class="cls-19" points="69.52 46 66.92 43.56 64.17 46.14"/><polyline class="cls-19" points="69.34 68.86 66.74 66.42 64 69"/><polyline class="cls-19" points="69.34 70.05 66.74 67.62 64 70.19"/><polyline class="cls-19" points="69.34 71.21 66.74 68.77 64 71.35"/><path class="cls-20" d="M110.19,73.3a1.46,1.46,0,1,0-1.45-1.45A1.45,1.45,0,0,0,110.19,73.3Z" transform="translate(-43.43 -7.01)"/><polyline class="cls-19" points="69.54 59.95 66.94 57.51 64.2 60.09"/><polyline class="cls-19" points="69.54 61.15 66.94 58.71 64.2 61.28"/><polyline class="cls-19" points="69.54 62.3 66.94 59.86 64.2 62.44"/><path class="cls-20" d="M110.39,64.39a1.46,1.46,0,1,0-1.45-1.45A1.45,1.45,0,0,0,110.39,64.39Z" transform="translate(-43.43 -7.01)"/><polyline class="cls-19" points="69.54 51.51 66.94 49.07 64.2 51.65"/><polyline class="cls-19" points="69.54 52.71 66.94 50.27 64.2 52.85"/><polyline class="cls-19" points="69.54 53.86 66.94 51.42 64.2 54"/><path class="cls-20" d="M110.39,56a1.45,1.45,0,1,0-1.45-1.45A1.45,1.45,0,0,0,110.39,56Z" transform="translate(-43.43 -7.01)"/><polyline class="cls-21" points="73.33 50.7 72.28 52.55 71.15 50.82"/><polyline class="cls-21" points="73.33 55.65 72.28 53.8 71.15 55.53"/><path class="cls-20" d="M115.71,60.94a.75.75,0,1,0-.74-.74A.74.74,0,0,0,115.71,60.94Z" transform="translate(-43.43 -7.01)"/><polyline class="cls-21" points="73.28 58.68 72.22 60.53 71.09 58.8"/><polyline class="cls-21" points="73.28 63.63 72.22 61.78 71.09 63.52"/><path class="cls-20" d="M115.65,68.92a.74.74,0,1,0-.74-.74A.74.74,0,0,0,115.65,68.92Z" transform="translate(-43.43 -7.01)"/><polyline class="cls-21" points="73.08 67.42 72.02 69.28 70.9 67.54"/><polyline class="cls-21" points="73.08 72.38 72.02 70.53 70.9 72.26"/><circle class="cls-22" cx="72.03" cy="69.91" r="0.74"/><polyline class="cls-21" points="71.15 43.39 72.21 45.24 73.33 43.51"/><polyline class="cls-21" points="71.15 48.34 72.21 46.49 73.33 48.23"/><circle class="cls-22" cx="72.21" cy="45.87" r="0.74"/><polyline class="cls-21" points="62.32 50.55 61.26 52.4 60.14 50.67"/><polyline class="cls-21" points="62.32 55.5 61.26 53.65 60.14 55.39"/><circle class="cls-22" cx="61.26" cy="53.03" r="0.74"/><polyline class="cls-21" points="62.26 58.53 61.2 60.38 60.08 58.65"/><polyline class="cls-21" points="62.26 63.48 61.2 61.63 60.08 63.37"/><circle class="cls-22" cx="61.21" cy="61.02" r="0.74"/><polyline class="cls-21" points="62.06 67.28 61.01 69.13 59.88 67.39"/><polyline class="cls-21" points="62.06 72.23 61.01 70.38 59.88 72.11"/><circle class="cls-22" cx="61.01" cy="69.76" r="0.74"/><polyline class="cls-21" points="60.14 43.24 61.19 45.09 62.32 43.36"/><polyline class="cls-21" points="60.14 48.2 61.19 46.34 62.32 48.08"/><path class="cls-20" d="M104.62,53.48a.74.74,0,1,1,.74-.74A.74.74,0,0,1,104.62,53.48Z" transform="translate(-43.43 -7.01)"/><path class="cls-19" d="M134.14,101.08l-3-3.4L130.1,101l-2.55-2.85-1,3.22-2.43-2.9-1.2,3.41L120,98.82l-1.35,3.75L115.33,99c1.64-.28,2.72-.38,4-.52" transform="translate(-43.43 -7.01)"/><path class="cls-19" d="M101.35,98.51c1.37.15,2.48.32,3.85.48l-3.53,3.59-2.1-4.23-3.15,3.88L95,97.78l-2.8,3.91-1.15-4.45L88,101.08l-.18-4.31-1.5,2.55" transform="translate(-43.43 -7.01)"/></g></g></g></svg>