<svg xmlns="http://www.w3.org/2000/svg" xmlns:xlink="http://www.w3.org/1999/xlink" width="45.02mm" height="46.62mm" viewBox="0 0 127.62 132.16"><defs><style>.cls-1,.cls-14,.cls-15,.cls-17,.cls-24,.cls-26,.cls-27,.cls-28,.cls-29,.cls-30,.cls-31,.cls-33,.cls-34,.cls-35,.cls-36,.cls-6{fill:none;}.cls-2{clip-path:url(#clip-path);}.cls-3{fill:#8f7a60;}.cls-10,.cls-14,.cls-15,.cls-16,.cls-17,.cls-18,.cls-20,.cls-21,.cls-23,.cls-3,.cls-32,.cls-4,.cls-5,.cls-6,.cls-9{stroke:#1a1a18;}.cls-10,.cls-11,.cls-12,.cls-13,.cls-15,.cls-16,.cls-20,.cls-21,.cls-22,.cls-23,.cls-24,.cls-3,.cls-32,.cls-33,.cls-34,.cls-35,.cls-36,.cls-4,.cls-5,.cls-6,.cls-9{stroke-miterlimit:22.93;}.cls-10,.cls-11,.cls-12,.cls-14,.cls-18,.cls-21,.cls-23,.cls-24,.cls-3,.cls-32,.cls-4,.cls-5,.cls-6,.cls-9{stroke-width:0.43px;}.cls-10,.cls-11,.cls-12,.cls-13,.cls-14,.cls-15,.cls-16,.cls-17,.cls-18,.cls-19,.cls-20,.cls-21,.cls-22,.cls-23,.cls-24,.cls-25,.cls-26,.cls-27,.cls-28,.cls-29,.cls-3,.cls-30,.cls-31,.cls-32,.cls-33,.cls-34,.cls-35,.cls-36,.cls-4,.cls-5,.cls-6,.cls-7,.cls-8,.cls-9{fill-rule:evenodd;}.cls-4{fill:#753e15;}.cls-5{fill:#d1bba5;}.cls-7{fill:#182f72;}.cls-18,.cls-8{fill:#fff;}.cls-9{fill:#1f1400;}.cls-10{fill:#e8ccba;}.cls-11{fill:#c8b396;}.cls-11,.cls-12{stroke:#100000;}.cls-12,.cls-13,.cls-25{fill:#a21e06;}.cls-13,.cls-22,.cls-25,.cls-26,.cls-27,.cls-28,.cls-29,.cls-30,.cls-31,.cls-33,.cls-34,.cls-35,.cls-36{stroke:#fff;}.cls-13,.cls-25,.cls-26,.cls-33{stroke-width:0.85px;}.cls-14,.cls-17,.cls-26,.cls-27,.cls-28,.cls-29,.cls-30,.cls-31{stroke-linecap:round;}.cls-14,.cls-17,.cls-18,.cls-25,.cls-26,.cls-27,.cls-28,.cls-29,.cls-30,.cls-31{stroke-linejoin:round;}.cls-15,.cls-17,.cls-20{stroke-width:0.42px;}.cls-16,.cls-20{fill:#84746c;}.cls-16{stroke-width:0.42px;}.cls-19{fill:#f08481;}.cls-21{fill:#ececed;}.cls-22,.cls-23{fill:#a1d9f8;}.cls-22{stroke-width:0.39px;}.cls-24{stroke:#a1d9f8;}.cls-27{stroke-width:0.87px;}.cls-28{stroke-width:0.87px;}.cls-29,.cls-34{stroke-width:0.85px;}.cls-30{stroke-width:0.85px;}.cls-31{stroke-width:0.87px;}.cls-32{fill:#babcbc;}.cls-35{stroke-width:0.85px;}.cls-36{stroke-width:0.85px;}</style><clipPath id="clip-path" transform="translate(-48.11 -12.43)"><rect id="SVGID" class="cls-1" width="138.9" height="138" rx="11.1"/></clipPath></defs><title>Ресурс 15</title><g id="Слой_2" data-name="Слой 2"><g id="Слой_1-2" data-name="Слой 1"><g class="cls-2"><path class="cls-3" d="M162.3,56.59a54.61,54.61,0,0,1,6.42-1.21c2.17-.17,3.22.33,2.85,1.06s-1.72.3-1.52,1.05,3.25,1.2,4.08,1.72,2.74,2.8-.15,4.48c-3.16,1.84-10.55-.4-12.71-1.51a27.6,27.6,0,0,0,.91-5.39Z" transform="translate(-48.11 -12.43)"/><path class="cls-4" d="M143.92,51.75c6.09,1.78,13.07,2.84,18.66,4.14a22,22,0,0,1-1.47,6.84,168.22,168.22,0,0,1-22.69-.83c-4.51-.35-7.16-.55-10.56-1l-2.47-13.67-1.53-3Z" transform="translate(-48.11 -12.43)"/><path class="cls-5" d="M157.55,54.82c1.23.25,2.43.49,3.58.74a36.57,36.57,0,0,1-1.21,7.21c-1.33,0-2.63,0-3.87-.06C156.52,60.7,157.24,56.7,157.55,54.82Z" transform="translate(-48.11 -12.43)"/><path class="cls-4" d="M79.4,50.77c-6.09,1.78-12.08,3.86-18,5.77a22.19,22.19,0,0,0,1.47,6.83C70.39,62.63,77.81,63.1,85,61c5.44-1.22,8.58-1.36,13.08-2.39l1-14Z" transform="translate(-48.11 -12.43)"/><path class="cls-3" d="M61.32,57.12a57.49,57.49,0,0,0-6.47-.94c-2.18-.07-3.2.48-2.81,1.2s1.74.22,1.57,1-3.19,1.33-4,1.89S47,63.16,50,64.72c3.24,1.7,10.53-.86,12.64-2.06a28,28,0,0,1-1.15-5.35Z" transform="translate(-48.11 -12.43)"/><path class="cls-3" d="M114.84,117.07a110.62,110.62,0,0,0,.6,12c0,.36.74.88.64,1.35-.15.76-1.15,1.46-1.13,1.63.15,1.42-.26,3,.64,3.41a5.73,5.73,0,0,0,2.87,1.34c.1,3.37,5.57,6.3,7.74,7.17,1,.42,3,.76,4.26-.19s.3-3.45-1.45-5.51a38.89,38.89,0,0,1-4.95-8l-.06-.9.84-1.31,1-12.49Z" transform="translate(-48.11 -12.43)"/><path class="cls-6" d="M116,130.07c.64.41,6.75.34,8-.67" transform="translate(-48.11 -12.43)"/><path class="cls-7" d="M115.05,117.84c0,.91.1,4.53.14,5.8,4.24,1.23,5.94,1.14,9.8-.22l.43-5.78C120.7,119,120,118.52,115.05,117.84Z" transform="translate(-48.11 -12.43)"/><path class="cls-8" d="M115.33,123.31a15.92,15.92,0,0,0,4.89.77,15.19,15.19,0,0,0,4.64-1L125,123l-.08.78a13.91,13.91,0,0,1-4.71,1,16.6,16.6,0,0,1-5-.78l0-.75.14,0Zm-.28-5.83,1.44.2c3.64.53,4.87.74,9-.45l-.06.76-.14,0c-3.86,1.08-5.26.88-8.86.36l-1.19-.17h-.14v-.72Z" transform="translate(-48.11 -12.43)"/><path class="cls-3" d="M109.38,116.65a113.4,113.4,0,0,1-.6,12c-.06.36-.74.88-.65,1.35.16.76,1.15,1.46,1.14,1.62-.15,1.43.26,3-.64,3.42a5.81,5.81,0,0,1-2.88,1.34c-.09,3.37-5.56,6.3-7.73,7.17-1,.42-3,.76-4.26-.19s-.3-3.46,1.44-5.51a39,39,0,0,0,5-8l.06-.9-.85-1.31-.94-12.49Z" transform="translate(-48.11 -12.43)"/><path class="cls-6" d="M108.18,129.65c-.64.41-6.75.34-8-.68" transform="translate(-48.11 -12.43)"/><path class="cls-9" d="M123.27,23.17a20.83,20.83,0,0,1-4.92,22.36c-3.4,3.33-15.39,2.94-16-.92s-2.69-8.52-2.89-12.31Z" transform="translate(-48.11 -12.43)"/><path class="cls-10" d="M116.2,40.54l-.3-3.2-9-1.32.48,4.52c.05,1.17-.36,1.81-1.22,1.91L105.87,46l4,1.23,5-.09,3.52-.4-1-4.82A1.55,1.55,0,0,1,116.2,40.54Z" transform="translate(-48.11 -12.43)"/><path class="cls-11" d="M126.42,54.57c.84,5.73,3.56,24.43,5,29.31S130.18,105,130.18,105L126,115.79a72.69,72.69,0,0,1-27.25.26L88.56,102,92.9,79.3l5.61-26.5c1.72-2.09,5-5.2,5-5.2s1.82-2.16,2-3.56c6.07,3.39,8.06,1.78,13.34-.4l2.94,1.49c.64,1.32,1.18,2.29,1.18,2.29A58.08,58.08,0,0,0,126.42,54.57Z" transform="translate(-48.11 -12.43)"/><path class="cls-12" d="M126.12,114.51l-.12.31a73.17,73.17,0,0,1-26.54.4L101,111a91.72,91.72,0,0,0,21.38-.32Z" transform="translate(-48.11 -12.43)"/><path class="cls-12" d="M102,84.46c7.19.37,13.88.35,19.32-.66l5.25,25a94.45,94.45,0,0,1-28.5.47Z" transform="translate(-48.11 -12.43)"/><path class="cls-13" d="M102.36,86c7.19.37,13.88.35,19.32-.66l4.56,21.77a94.78,94.78,0,0,1-28.5.47Z" transform="translate(-48.11 -12.43)"/><path class="cls-13" d="M102.76,87.86c7.18.37,13.88.35,19.31-.66l3.12,4.29a94.78,94.78,0,0,1-28.5.47Z" transform="translate(-48.11 -12.43)"/><path class="cls-13" d="M102.32,101c7.19.42,13.88.46,19.32-.51l3.09,4.31a94.17,94.17,0,0,1-28.5.24Z" transform="translate(-48.11 -12.43)"/><path class="cls-13" d="M102.32,94.62c7.19.43,13.88.46,19.32-.5l3.09,4.31a94.82,94.82,0,0,1-28.5.24Z" transform="translate(-48.11 -12.43)"/><path class="cls-12" d="M103,48.17l.59-.57s1.82-2.16,2-3.56c6.07,3.39,8.06,1.78,13.34-.4l2.94,1.49c.64,1.32,1.18,2.29,1.18,2.29s-1.4.27-1.2.75l-2.58.28C113.75,51.15,109,51.24,103,48.17Z" transform="translate(-48.11 -12.43)"/><path class="cls-13" d="M103.94,46.91c.37-.39.12-.12.12-.12a2.94,2.94,0,0,0,.85-2c6.07,3.82,7.84,3,13.11.6l3.83-.78c.64,1.5,1.18,2.59,1.18,2.59s-1.4.31-1.2.84l-3.19-1C113.14,50.1,110,50.38,103.94,46.91Z" transform="translate(-48.11 -12.43)"/><path class="cls-4" d="M128,54.2c.29,2-.41,6.21-.11,10.35.11,1.48.32,3.23.54,4.72,2.38,3.78,8.08,37.2,8.72,40.33l-15.8,3.19L116.16,69l-1.73-20.37,3.88-5.78c.24.08.63-.2.82-.12,1.87.73,2.05.48,5.46,1.85C124.59,44.53,127.36,47.69,128,54.2Z" transform="translate(-48.11 -12.43)"/><path class="cls-7" d="M134.4,95.62c.43,2.33.84,4.65,1.2,6.61-5.26,1.65-12.9,3.71-15.12,3.13l-.78-6.6A127.61,127.61,0,0,0,134.4,95.62Z" transform="translate(-48.11 -12.43)"/><path class="cls-8" d="M134.41,95.67l.06.35-.21.09c-1.85.55-4,1.06-6,1.5-3.57.76-6.92,1.32-8.06,1.5l.7,5.89a17.29,17.29,0,0,0,4.69-.56c3.62-.78,6.43-1.63,10-2.62h0l.15.82c-3.46,1.08-6.4,1.86-9.94,2.63a14.63,14.63,0,0,1-5.36.5l-.28-.07-.87-7.31.42,0s4-.62,8.41-1.56c2.19-.48,4.34-1,6.26-1.58h0Z" transform="translate(-48.11 -12.43)"/><path class="cls-10" d="M101.83,35.83c5.16,6.4,17.27,5.6,21-1.36,1.67-3.09,1.08-4.72.42-7.82a15.31,15.31,0,0,0-2.17-5.85c-3.89-5.44-14.52-6.72-18.9.06-.86,1.34-1.61,4.33-2.15,6.79C99.33,30.88,99.62,33.08,101.83,35.83Z" transform="translate(-48.11 -12.43)"/><path class="cls-14" d="M110.79,31.94a1.94,1.94,0,0,0,1.93,0c.58-.41,0-1.1,0-1.1" transform="translate(-48.11 -12.43)"/><path class="cls-15" d="M114.72,27.71a6.2,6.2,0,0,1,5.64-1.09,4.8,4.8,0,0,0-.59.48" transform="translate(-48.11 -12.43)"/><path class="cls-16" d="M117.44,26.47a.83.83,0,1,1-.78.88A.84.84,0,0,1,117.44,26.47Z" transform="translate(-48.11 -12.43)"/><path class="cls-17" d="M120.4,24.27a6.25,6.25,0,0,0-5.3-.82" transform="translate(-48.11 -12.43)"/><path class="cls-18" d="M108.25,34.38a6.42,6.42,0,0,0,1.6,1.34,4.58,4.58,0,0,0,3.11.41c1-.15,2.28-1.62,2.28-1.62C114.64,35.26,108.88,35.26,108.25,34.38Z" transform="translate(-48.11 -12.43)"/><path class="cls-8" d="M117.15,26.87a.27.27,0,0,1,.29.25.28.28,0,0,1-.26.29.27.27,0,0,1,0-.54Z" transform="translate(-48.11 -12.43)"/><path class="cls-19" d="M118.66,29.57c.86-.19,1.67.16,1.8.77s-.45,1.26-1.31,1.45-1.67-.16-1.8-.77S117.8,29.76,118.66,29.57Z" transform="translate(-48.11 -12.43)"/><path class="cls-19" d="M104.19,29.54c.86.21,1.43.88,1.28,1.49s-1,.93-1.82.71-1.43-.87-1.28-1.48A1.43,1.43,0,0,1,104.19,29.54Z" transform="translate(-48.11 -12.43)"/><path class="cls-15" d="M108.74,27.69a6.19,6.19,0,0,0-5.64-1.06c.26.19.43.34.59.48" transform="translate(-48.11 -12.43)"/><path class="cls-20" d="M106,26.47a.83.83,0,1,0,.78.88A.83.83,0,0,0,106,26.47Z" transform="translate(-48.11 -12.43)"/><path class="cls-8" d="M105.77,26.84a.27.27,0,0,0-.29.25.28.28,0,0,0,.26.29.27.27,0,0,0,.28-.26A.26.26,0,0,0,105.77,26.84Z" transform="translate(-48.11 -12.43)"/><path class="cls-10" d="M123.71,32.34c2.79-.2,3-4.18,2.05-5.36a1.61,1.61,0,0,0-2.4.15C123.81,29.17,124.17,30.59,123.71,32.34Z" transform="translate(-48.11 -12.43)"/><path class="cls-10" d="M99.94,32.35C97,32.26,96.85,28.18,97.76,27a1.6,1.6,0,0,1,2.39.15l-.11.52A9.65,9.65,0,0,0,99.94,32.35Z" transform="translate(-48.11 -12.43)"/><path class="cls-9" d="M123.56,26.62s-.1-2.35-.19-5.13-5.69-8.82-8.69-8.77-3.24.42-3.24.42-1.87-1.17-5.58.1-6.5,8.09-6.61,10.64l-.1,2.55,1,.7s1-5.08,4.3-6.79,7,.49,7,.49a8.53,8.53,0,0,1,5.48-.89c3.21.52,4.9,2.07,5.19,2.83s1.2,4.36,1.2,4.36Z" transform="translate(-48.11 -12.43)"/><path class="cls-21" d="M98.91,18.71a29.59,29.59,0,0,1,24.8-.18v3.9c-8-4.56-16.3-4-24.8.18Z" transform="translate(-48.11 -12.43)"/><polygon class="cls-22" points="63.39 3.71 64.41 5.14 63.39 6.57 62.38 5.14 63.39 3.71"/><path class="cls-23" d="M114.91,18.3a.6.6,0,0,0,0-1.2.6.6,0,0,0,0,1.2Z" transform="translate(-48.11 -12.43)"/><path class="cls-23" d="M118.26,18.93a.59.59,0,0,0,.6-.59.6.6,0,1,0-1.2,0A.59.59,0,0,0,118.26,18.93Z" transform="translate(-48.11 -12.43)"/><path class="cls-23" d="M120.91,19.64a.6.6,0,1,0-.59-.6A.6.6,0,0,0,120.91,19.64Z" transform="translate(-48.11 -12.43)"/><path class="cls-23" d="M107.93,18.5a.6.6,0,1,0-.6-.6A.6.6,0,0,0,107.93,18.5Z" transform="translate(-48.11 -12.43)"/><path class="cls-23" d="M104.44,19.06a.6.6,0,0,0,0-1.2.6.6,0,1,0,0,1.2Z" transform="translate(-48.11 -12.43)"/><path class="cls-23" d="M101.09,20.27a.6.6,0,1,0-.6-.6A.6.6,0,0,0,101.09,20.27Z" transform="translate(-48.11 -12.43)"/><path class="cls-21" d="M121.67,21.38c.26,3.26.43,8.26.51,12.49a12,12,0,0,0,1.82-.68c-.18-1.22-.31-2.45-.43-3.61-.21-2.06-.86-6.92-1-7.75Z" transform="translate(-48.11 -12.43)"/><path class="cls-24" d="M122.32,21.69s.36,6.36.78,11.88" transform="translate(-48.11 -12.43)"/><path class="cls-21" d="M101.09,21.61c-.24,3.27-.41,8.13-.49,12.26a12,12,0,0,1-1.82-.68c.18-1.22.31-2.45.43-3.61.2-1.94.78-6.35.94-7.56Z" transform="translate(-48.11 -12.43)"/><path class="cls-24" d="M100.46,21.69s-.36,6.36-.78,11.88" transform="translate(-48.11 -12.43)"/><path class="cls-17" d="M102.86,24.27a6.25,6.25,0,0,1,5.3-.82" transform="translate(-48.11 -12.43)"/><path class="cls-5" d="M66.4,54.9c-1.2.36-2.4.8-3.49,1.15a36.5,36.5,0,0,0,1.55,7.15c1.41-.13,2.76-.35,3.85-.51C67.74,60.7,66.81,56.77,66.4,54.9Z" transform="translate(-48.11 -12.43)"/><path class="cls-25" d="M117.18,46.37s1.76,14.67,3.25,21.95,3.63,21.75,3.63,21.75a8.25,8.25,0,0,0,5.81-.23c-2-12.72-3.64-18-4.71-25s-1.65-15-3.64-21.44L119.31,43Z" transform="translate(-48.11 -12.43)"/><path class="cls-26" d="M121.23,47a4.21,4.21,0,0,0-2.71.64" transform="translate(-48.11 -12.43)"/><path class="cls-26" d="M121.7,49.38a4.51,4.51,0,0,0-2.9.69" transform="translate(-48.11 -12.43)"/><path class="cls-26" d="M122.09,51.81a4.72,4.72,0,0,0-3,.71" transform="translate(-48.11 -12.43)"/><path class="cls-27" d="M122.45,54.23a4.55,4.55,0,0,0-2.88.67" transform="translate(-48.11 -12.43)"/><path class="cls-28" d="M122.8,56.65a4.68,4.68,0,0,0-3,.69" transform="translate(-48.11 -12.43)"/><path class="cls-27" d="M123.21,59.13a4.65,4.65,0,0,0-3,.58" transform="translate(-48.11 -12.43)"/><path class="cls-29" d="M123.46,61.56a4.52,4.52,0,0,0-2.9.54" transform="translate(-48.11 -12.43)"/><path class="cls-30" d="M123.82,64a4.5,4.5,0,0,0-2.9.62" transform="translate(-48.11 -12.43)"/><path class="cls-29" d="M124.34,66.36a4.68,4.68,0,0,0-3,.65" transform="translate(-48.11 -12.43)"/><path class="cls-27" d="M124.77,68.78a4.67,4.67,0,0,0-2.94.67" transform="translate(-48.11 -12.43)"/><path class="cls-31" d="M125.18,71.25a4.55,4.55,0,0,0-2.87.59" transform="translate(-48.11 -12.43)"/><path class="cls-31" d="M125.76,73.63a4.61,4.61,0,0,0-3,.69" transform="translate(-48.11 -12.43)"/><path class="cls-28" d="M126.26,76.44a4.72,4.72,0,0,0-3,.69" transform="translate(-48.11 -12.43)"/><path class="cls-31" d="M126.64,78.86a4.8,4.8,0,0,0-3,.72" transform="translate(-48.11 -12.43)"/><path class="cls-26" d="M127.19,81.31a4.72,4.72,0,0,0-3,.66" transform="translate(-48.11 -12.43)"/><path class="cls-26" d="M127.61,83.67a4.72,4.72,0,0,0-3,.66" transform="translate(-48.11 -12.43)"/><path class="cls-29" d="M128,86.26a4.7,4.7,0,0,0-3.06.49" transform="translate(-48.11 -12.43)"/><path class="cls-27" d="M128.52,88.77a5.09,5.09,0,0,0-3.3.32" transform="translate(-48.11 -12.43)"/><path class="cls-7" d="M135.35,100.87c-4.84,1.6-11.92,3.25-14,3.12l-.78-3.71a91.92,91.92,0,0,0,14.1-3.18Z" transform="translate(-48.11 -12.43)"/><path class="cls-8" d="M135.43,101.29c-2.33.77-5.18,1.55-7.73,2.14a30.59,30.59,0,0,1-6.37,1l-.33,0-.94-4.48.46-.06a90.39,90.39,0,0,0,14.07-3.19l.15.85a89.49,89.49,0,0,1-13.66,3.11l.62,3a34.63,34.63,0,0,0,5.81-1c2.57-.59,5.44-1.38,7.77-2.15Z" transform="translate(-48.11 -12.43)"/><path class="cls-32" d="M136.77,108.19c2.12,0,3.46,5.42,1,6.37-3,.6-9.41,2.06-13.9,2.93-3.06.59-3.85-.38-4-1.94-1.13-15.43-5.28-49-6.29-67.14-.13-2.31,4.07-4.81,3.9-6.54,0-.12.07-.19.19-.11,1.26-.24,2.06,0,2.36,1.24.32,1.57-4.88,3.56-4.69,7.23.41,7.85,2.54,21.39,2.8,24.64.38,4.77,4.15,27.31,5.37,36C126.84,110.92,133.78,108.52,136.77,108.19Z" transform="translate(-48.11 -12.43)"/><polyline class="cls-33" points="75.51 90.02 76.6 88.69 77.98 89.57"/><polyline class="cls-33" points="79.85 89.02 80.91 87.73 82.24 88.59"/><polyline class="cls-34" points="83.94 88.07 84.87 86.69 86.28 87.42"/><path class="cls-4" d="M95.75,54.2c-.29,2,.41,6.21.11,10.35-.11,1.48-.32,3.23-.54,4.72-2.38,3.78-8.08,37.2-8.72,40.33l15.8,3.19L107.6,69l1.74-20.37-3.88-5.78c-.24.08-.63-.2-.82-.12-1.88.73-2,.48-5.46,1.85C99.18,44.53,96.4,47.69,95.75,54.2Z" transform="translate(-48.11 -12.43)"/><path class="cls-7" d="M89.37,95.62c-.44,2.33-.85,4.65-1.2,6.61,5.25,1.65,12.89,3.71,15.11,3.13l.79-6.6A127.61,127.61,0,0,1,89.37,95.62Z" transform="translate(-48.11 -12.43)"/><path class="cls-8" d="M89.36,95.67,89.3,96l.21.09c1.85.55,4,1.06,6,1.5,3.57.76,6.91,1.32,8.06,1.5l-.7,5.89a17.29,17.29,0,0,1-4.69-.56c-3.62-.78-6.43-1.63-10-2.62h0l-.15.82c3.46,1.08,6.4,1.86,9.94,2.63a14.61,14.61,0,0,0,5.36.5l.28-.07.87-7.31-.42,0s-4-.62-8.41-1.56c-2.2-.48-4.34-1-6.26-1.58h0Z" transform="translate(-48.11 -12.43)"/><path class="cls-25" d="M106.59,46.37S104.83,61,103.33,68.32s-3.62,21.75-3.62,21.75a8.25,8.25,0,0,1-5.81-.23c2-12.72,3.64-18,4.71-25s1.65-15,3.64-21.44l2.21-.42Z" transform="translate(-48.11 -12.43)"/><path class="cls-26" d="M102.54,47a4.21,4.21,0,0,1,2.71.64" transform="translate(-48.11 -12.43)"/><path class="cls-26" d="M102.07,49.38a4.52,4.52,0,0,1,2.9.69" transform="translate(-48.11 -12.43)"/><path class="cls-26" d="M101.68,51.81a4.68,4.68,0,0,1,3,.71" transform="translate(-48.11 -12.43)"/><path class="cls-27" d="M101.32,54.23a4.56,4.56,0,0,1,2.88.67" transform="translate(-48.11 -12.43)"/><path class="cls-28" d="M101,56.65a4.72,4.72,0,0,1,3,.69" transform="translate(-48.11 -12.43)"/><path class="cls-27" d="M100.56,59.13a4.65,4.65,0,0,1,3,.58" transform="translate(-48.11 -12.43)"/><path class="cls-29" d="M100.31,61.56a4.52,4.52,0,0,1,2.9.54" transform="translate(-48.11 -12.43)"/><path class="cls-30" d="M99.94,64a4.53,4.53,0,0,1,2.91.62" transform="translate(-48.11 -12.43)"/><path class="cls-29" d="M99.43,66.36a4.66,4.66,0,0,1,3,.65" transform="translate(-48.11 -12.43)"/><path class="cls-27" d="M99,68.78a4.66,4.66,0,0,1,2.94.67" transform="translate(-48.11 -12.43)"/><path class="cls-31" d="M98.58,71.25a4.57,4.57,0,0,1,2.88.59" transform="translate(-48.11 -12.43)"/><path class="cls-31" d="M98,73.63a4.64,4.64,0,0,1,3,.69" transform="translate(-48.11 -12.43)"/><path class="cls-28" d="M97.51,76.44a4.68,4.68,0,0,1,2.95.69" transform="translate(-48.11 -12.43)"/><path class="cls-31" d="M97.13,78.86a4.8,4.8,0,0,1,3.05.72" transform="translate(-48.11 -12.43)"/><path class="cls-26" d="M96.57,81.31a4.72,4.72,0,0,1,3,.66" transform="translate(-48.11 -12.43)"/><path class="cls-26" d="M96.15,83.67a4.72,4.72,0,0,1,3,.66" transform="translate(-48.11 -12.43)"/><path class="cls-29" d="M95.79,86.26a4.7,4.7,0,0,1,3.06.49" transform="translate(-48.11 -12.43)"/><path class="cls-27" d="M95.24,88.77a5.12,5.12,0,0,1,3.31.32" transform="translate(-48.11 -12.43)"/><path class="cls-7" d="M88.41,100.87c4.84,1.6,11.92,3.25,14,3.12l.78-3.71A91.92,91.92,0,0,1,89.1,97.1Z" transform="translate(-48.11 -12.43)"/><path class="cls-8" d="M88.34,101.29c2.33.77,5.17,1.55,7.73,2.14a30.59,30.59,0,0,0,6.37,1l.32,0,.95-4.48-.46-.06a90.14,90.14,0,0,1-14.07-3.19l-.16.85a89.56,89.56,0,0,0,13.67,3.11l-.62,3a34.63,34.63,0,0,1-5.81-1c-2.58-.59-5.44-1.38-7.77-2.15Z" transform="translate(-48.11 -12.43)"/><path class="cls-32" d="M87,108.19c-2.12,0-3.46,5.42-1,6.37,3,.6,9.42,2.06,13.9,2.93,3.07.59,3.86-.38,4-1.94,1.13-15.43,5.29-49,6.3-67.14.13-2.31-4.08-4.81-3.9-6.54,0-.12-.07-.19-.19-.11-1.26-.24-2.06,0-2.36,1.24-.32,1.57,4.88,3.56,4.69,7.23-.41,7.85-2.54,21.39-2.8,24.64-.39,4.77-4.15,27.31-5.37,36C96.93,110.92,90,108.52,87,108.19Z" transform="translate(-48.11 -12.43)"/><polyline class="cls-33" points="52.04 90.02 50.95 88.69 49.57 89.57"/><polyline class="cls-33" points="47.7 89.02 46.64 87.73 45.31 88.59"/><polyline class="cls-34" points="43.61 88.07 42.68 86.69 41.27 87.42"/><polyline class="cls-35" points="67.71 91.52 68.83 90.36 69.92 91.44"/><polyline class="cls-35" points="64.44 91.75 65.56 90.59 66.66 91.66"/><polyline class="cls-35" points="63.3 91.89 62.18 90.73 61.08 91.8"/><polyline class="cls-35" points="59.94 91.87 58.82 90.71 57.73 91.78"/><polyline class="cls-35" points="65.97 78.46 67.09 77.29 68.19 78.37"/><polyline class="cls-35" points="64.83 78.59 63.71 77.43 62.61 78.51"/><polyline class="cls-35" points="61.47 78.58 60.35 77.41 59.26 78.49"/><path class="cls-7" d="M115.16,122.3c4,1.14,6.25,1.1,9.93-.16l.24-3.38c-4.46,1.27-5.54.8-10.25.15Z" transform="translate(-48.11 -12.43)"/><path class="cls-8" d="M115.28,121.91a17.85,17.85,0,0,0,5,.76,15.4,15.4,0,0,0,4.71-.91l.16,0-.06.71a16,16,0,0,1-4.8.9,18.26,18.26,0,0,1-5.1-.77v-.7l.13,0Zm-.2-3.24,1.79.24a16.23,16.23,0,0,0,8.48-.4l0,.71-.14,0c-3.72,1-5.09.79-8.39.32l-1.56-.22-.12,0Z" transform="translate(-48.11 -12.43)"/><polyline class="cls-33" points="67.82 109.07 69.24 108.09 70.32 109.33"/><polyline class="cls-33" points="71.26 109.58 72.5 108.39 73.77 109.43"/><polyline class="cls-36" points="74.88 109.19 75.71 108.12 76.55 108.88"/><path class="cls-7" d="M109.17,117.84c0,.91-.1,4.53-.15,5.8-4.23,1.23-5.93,1.14-9.8-.22l-.42-5.78C103.52,119,104.18,118.52,109.17,117.84Z" transform="translate(-48.11 -12.43)"/><path class="cls-8" d="M108.89,123.31a15.92,15.92,0,0,1-4.89.77,15.31,15.31,0,0,1-4.65-1l-.17-.07.09.78a13.81,13.81,0,0,0,4.71,1,16.64,16.64,0,0,0,5-.78l0-.75-.14,0Zm.28-5.83-1.44.2c-3.64.53-4.87.74-9-.45l.07.76.14,0c3.86,1.08,5.26.88,8.86.36l1.19-.17h.13l0-.72Z" transform="translate(-48.11 -12.43)"/><path class="cls-7" d="M109.06,122.3c-4,1.14-6.26,1.1-9.93-.16l-.25-3.38c4.46,1.27,5.54.8,10.26.15Z" transform="translate(-48.11 -12.43)"/><path class="cls-8" d="M108.94,121.91a17.85,17.85,0,0,1-5,.76,15.35,15.35,0,0,1-4.71-.91l-.16,0,.05.71a16,16,0,0,0,4.81.9,18.2,18.2,0,0,0,5.09-.77l0-.7-.13,0Zm.2-3.24-1.79.24c-3.32.47-4.62.66-8.49-.4l.06.71.14,0c3.72,1,5.08.79,8.39.32l1.55-.22.13,0Z" transform="translate(-48.11 -12.43)"/><polyline class="cls-33" points="60.18 109.07 58.76 108.09 57.68 109.33"/><polyline class="cls-33" points="56.74 109.58 55.5 108.39 54.23 109.43"/><polyline class="cls-36" points="53.12 109.19 52.29 108.12 51.44 108.88"/></g></g></g></svg>