<svg xmlns="http://www.w3.org/2000/svg" xmlns:xlink="http://www.w3.org/1999/xlink" width="45.02mm" height="46.62mm" viewBox="0 0 127.62 132.16"><defs><style>.cls-1,.cls-11,.cls-12,.cls-14,.cls-19,.cls-22,.cls-6{fill:none;}.cls-2{clip-path:url(#clip-path);}.cls-3{fill:#8f7a60;}.cls-11,.cls-12,.cls-13,.cls-14,.cls-15,.cls-18,.cls-23,.cls-25,.cls-27,.cls-28,.cls-29,.cls-3,.cls-4,.cls-5,.cls-6,.cls-7,.cls-8,.cls-9{stroke:#1a1a18;}.cls-10,.cls-12,.cls-13,.cls-18,.cls-19,.cls-20,.cls-21,.cls-22,.cls-25,.cls-26,.cls-27,.cls-28,.cls-29,.cls-3,.cls-4,.cls-5,.cls-6,.cls-7,.cls-8,.cls-9{stroke-miterlimit:22.93;}.cls-10,.cls-11,.cls-15,.cls-19,.cls-23,.cls-25,.cls-27,.cls-28,.cls-29,.cls-3,.cls-4,.cls-5,.cls-6,.cls-7,.cls-8,.cls-9{stroke-width:0.43px;}.cls-10,.cls-11,.cls-12,.cls-13,.cls-14,.cls-15,.cls-16,.cls-17,.cls-18,.cls-19,.cls-20,.cls-21,.cls-22,.cls-23,.cls-24,.cls-25,.cls-26,.cls-27,.cls-28,.cls-29,.cls-3,.cls-4,.cls-5,.cls-6,.cls-7,.cls-8,.cls-9{fill-rule:evenodd;}.cls-4{fill:#431e00;}.cls-20,.cls-21,.cls-5{fill:#d1bba5;}.cls-7{fill:#182237;}.cls-8{fill:#1f1400;}.cls-9{fill:#e8ccba;}.cls-10{fill:#c8b396;stroke:#100000;}.cls-11,.cls-14{stroke-linecap:round;}.cls-11,.cls-14,.cls-15,.cls-23{stroke-linejoin:round;}.cls-12,.cls-14,.cls-18,.cls-21{stroke-width:0.42px;}.cls-13,.cls-18{fill:#84746c;}.cls-13,.cls-20{stroke-width:0.42px;}.cls-15,.cls-16,.cls-29{fill:#fff;}.cls-17{fill:#f08481;}.cls-19,.cls-20,.cls-21{stroke:#d1bba5;}.cls-22{stroke:#a65a44;stroke-width:3.95px;}.cls-23,.cls-25{fill:#938e92;}.cls-24{fill:#a65a44;}.cls-26,.cls-27{fill:#adbdc8;}.cls-26{stroke:#fff;stroke-width:0.39px;}.cls-28{fill:#c5c6c6;}</style><clipPath id="clip-path" transform="translate(-48.57 -12.28)"><rect id="SVGID" class="cls-1" width="138.9" height="138" rx="11.1"/></clipPath></defs><title>Ресурс 18</title><g id="Слой_2" data-name="Слой 2"><g id="Слой_1-2" data-name="Слой 1"><g class="cls-2"><path class="cls-3" d="M162.76,56.43a57.22,57.22,0,0,1,6.43-1.21c2.17-.17,3.21.33,2.85,1.07s-1.72.3-1.52,1.05,3.24,1.19,4.07,1.72,2.75,2.79-.15,4.47c-3.15,1.84-10.55-.4-12.7-1.51a29.18,29.18,0,0,0,.91-5.39Z" transform="translate(-48.57 -12.28)"/><path class="cls-4" d="M144.39,51.59c6.08,1.78,13.06,2.84,18.65,4.14a22,22,0,0,1-1.46,6.84c-9.67.43-17.08-1.93-22.09-2.32-4.52-.36-7.77.94-11.17.47l-2.47-13.66-1.52-3Z" transform="translate(-48.57 -12.28)"/><path class="cls-5" d="M158,54.66c1.23.25,2.43.49,3.58.75a37.35,37.35,0,0,1-1.21,7.2c-1.34,0-2.63,0-3.88,0,.47-2,1.2-6,1.51-7.9Zm.84,6.13-1.24.44,1,.8,1.29-.52-1.1-.72Zm.55-3.15-1.53,1L159,60l1.51-1-1.1-1.41Zm.36-2-1.27.53,1.05.87,1.28-.52Z" transform="translate(-48.57 -12.28)"/><path class="cls-4" d="M79.86,50.61c-6.09,1.78-12.08,3.86-18,5.77a22,22,0,0,0,1.46,6.84A120.6,120.6,0,0,0,85.63,58.7c5.43-1.22,8.43.74,12.92-.29l1-14Z" transform="translate(-48.57 -12.28)"/><path class="cls-3" d="M61.78,57A55.52,55.52,0,0,0,55.31,56c-2.17-.08-3.2.47-2.8,1.19s1.73.22,1.56,1-3.18,1.33-4,1.9-2.63,2.91.34,4.46c3.23,1.7,10.52-.85,12.63-2.06a28.83,28.83,0,0,1-1.15-5.34A2.05,2.05,0,0,0,61.78,57Z" transform="translate(-48.57 -12.28)"/><path class="cls-3" d="M115.3,116.92a113.25,113.25,0,0,0,.6,12c.06.36.74.88.65,1.35-.16.76-1.15,1.46-1.14,1.63.15,1.42-.26,3,.64,3.41a5.7,5.7,0,0,0,2.88,1.34c.09,3.37,5.56,6.3,7.73,7.17,1,.43,3,.76,4.26-.19s.3-3.45-1.44-5.51a38.45,38.45,0,0,1-4.95-8l-.07-.91.85-1.31.94-12.48Z" transform="translate(-48.57 -12.28)"/><path class="cls-6" d="M116.5,129.91c.64.42,6.75.34,8-.67" transform="translate(-48.57 -12.28)"/><path class="cls-7" d="M115.32,118.72c0,.91,0,2.09.08,3.36,2.2.64,7,1.12,8,.72.52-.22,1.51-.58,2.4-.89l.26-3.38a27.17,27.17,0,0,1-3.51,1.13C121.39,119.84,115.32,118.72,115.32,118.72Z" transform="translate(-48.57 -12.28)"/><path class="cls-3" d="M109.84,116.49a110.62,110.62,0,0,1-.6,12c0,.36-.74.88-.64,1.35.15.76,1.15,1.46,1.13,1.63-.15,1.42.26,3-.64,3.41a5.73,5.73,0,0,1-2.87,1.34c-.1,3.37-5.57,6.3-7.74,7.17-1,.42-3,.76-4.26-.19s-.3-3.45,1.45-5.51a38.89,38.89,0,0,0,5-8l.06-.9-.84-1.31-1-12.49Z" transform="translate(-48.57 -12.28)"/><path class="cls-6" d="M108.64,129.49c-.64.42-6.75.34-8-.67" transform="translate(-48.57 -12.28)"/><path class="cls-7" d="M109.83,118.21c0,.86,0,2-.07,3.19a36.08,36.08,0,0,1-7.06,1.77,9.47,9.47,0,0,1-3.26-.94l-.26-3.46a12.13,12.13,0,0,0,3.38,1C103.56,119.92,108.44,118.6,109.83,118.21Z" transform="translate(-48.57 -12.28)"/><path class="cls-8" d="M123.73,23a20.81,20.81,0,0,1-4.92,22.36c-3.4,3.33-15.38,2.94-16-.91s-2.69-8.53-2.89-12.32Z" transform="translate(-48.57 -12.28)"/><path class="cls-9" d="M116.67,40.39l-.3-3.21-9-1.31.48,4.52c0,1.17-.36,1.8-1.22,1.91l-.3,3.56,4,1.23,5-.1,3.53-.4-1.06-4.82A1.52,1.52,0,0,1,116.67,40.39Z" transform="translate(-48.57 -12.28)"/><path class="cls-10" d="M126.89,54.41c.83,5.73,3.56,24.44,5,29.31s-1.22,21.12-1.22,21.12l-4.18,10.79a72.63,72.63,0,0,1-27.24.26L89,101.86l4.34-22.72L99,52.64a70.22,70.22,0,0,1,5-5.19,13.86,13.86,0,0,0,.53-2.39l7,.52h1.33l9.15-.33.25-.28c.63,1.33,1.17,2.29,1.17,2.29A57.29,57.29,0,0,0,126.89,54.41Z" transform="translate(-48.57 -12.28)"/><path class="cls-4" d="M128.48,54c.29,2-.4,6.22-.1,10.35.1,1.49.31,3.24.53,4.73,2.39,3.77,8.08,37.2,8.72,40.32l-15.8,3.19L119.1,67.45l-.33-24.81c.24.08.63-.19.82-.12,1.88.73,2,.49,5.46,1.86C125.05,44.38,127.83,47.53,128.48,54Z" transform="translate(-48.57 -12.28)"/><path class="cls-7" d="M136.7,104.34c.47,2.6.8,4.47.93,5.1l-14.59,3-1.33-1.78v0l-2.13-47,0-21h0c.89.34,1.4.47,2,.66a162,162,0,0,1,1.24,20.32c-.05,3.1,2.34,38.83,3.06,43C129.49,106,133.07,105.09,136.7,104.34Z" transform="translate(-48.57 -12.28)"/><path class="cls-9" d="M102.3,35.67c5.15,6.4,17.26,5.6,21-1.35,1.66-3.1,1.07-4.72.42-7.82a15.31,15.31,0,0,0-2.18-5.86c-3.88-5.44-14.52-6.72-18.89.06C101.8,22,101,25,100.5,27.49,99.79,30.72,100.08,32.92,102.3,35.67Z" transform="translate(-48.57 -12.28)"/><path class="cls-11" d="M111.25,31.79a2,2,0,0,0,1.94,0c.58-.42,0-1.11,0-1.11" transform="translate(-48.57 -12.28)"/><path class="cls-12" d="M115.18,27.55a6.2,6.2,0,0,1,5.64-1.09c-.26.19-.43.34-.59.48" transform="translate(-48.57 -12.28)"/><path class="cls-13" d="M117.9,26.32a.83.83,0,1,1-.77.87A.82.82,0,0,1,117.9,26.32Z" transform="translate(-48.57 -12.28)"/><path class="cls-14" d="M120.86,24.11a6.25,6.25,0,0,0-5.3-.82" transform="translate(-48.57 -12.28)"/><path class="cls-15" d="M108.71,34.22a6.67,6.67,0,0,0,1.6,1.34,4.54,4.54,0,0,0,3.11.41c1-.15,2.28-1.62,2.28-1.62C115.1,35.1,109.35,35.1,108.71,34.22Z" transform="translate(-48.57 -12.28)"/><path class="cls-16" d="M117.61,26.71a.28.28,0,0,1,.29.26.27.27,0,0,1-.25.28.27.27,0,0,1-.29-.25A.28.28,0,0,1,117.61,26.71Z" transform="translate(-48.57 -12.28)"/><path class="cls-17" d="M119.13,29.41c.86-.18,1.66.16,1.79.77s-.45,1.26-1.31,1.45-1.66-.15-1.8-.77S118.27,29.6,119.13,29.41Z" transform="translate(-48.57 -12.28)"/><path class="cls-17" d="M104.66,29.38c.85.22,1.42.88,1.27,1.49s-1,.93-1.82.72-1.42-.88-1.27-1.49S103.8,29.17,104.66,29.38Z" transform="translate(-48.57 -12.28)"/><path class="cls-12" d="M109.21,27.53a6.22,6.22,0,0,0-5.64-1.06c.25.19.42.34.58.48" transform="translate(-48.57 -12.28)"/><path class="cls-18" d="M106.48,26.31a.83.83,0,0,0-.09,1.66.81.81,0,0,0,.87-.78A.83.83,0,0,0,106.48,26.31Z" transform="translate(-48.57 -12.28)"/><path class="cls-16" d="M106.23,26.68a.27.27,0,0,0,0,.54.28.28,0,0,0,.29-.26A.28.28,0,0,0,106.23,26.68Z" transform="translate(-48.57 -12.28)"/><path class="cls-9" d="M124.18,32.18c2.79-.2,2.94-4.18,2-5.36a1.6,1.6,0,0,0-2.39.15C124.27,29,124.63,30.43,124.18,32.18Z" transform="translate(-48.57 -12.28)"/><path class="cls-9" d="M100.4,32.19c-2.91-.08-3.09-4.17-2.18-5.37a1.62,1.62,0,0,1,2.4.15l-.12.52A9.77,9.77,0,0,0,100.4,32.19Z" transform="translate(-48.57 -12.28)"/><path class="cls-8" d="M124,26.46s-.09-2.34-.19-5.13-5.69-8.82-8.69-8.77-3.23.42-3.23.42-1.88-1.17-5.58.1-6.51,8.09-6.61,10.64l-.11,2.55,1,.7s1-5.08,4.3-6.79,7,.49,7,.49a8.63,8.63,0,0,1,5.48-.89c3.21.52,4.91,2.07,5.2,2.84s1.2,4.35,1.2,4.35Z" transform="translate(-48.57 -12.28)"/><path class="cls-5" d="M126.08,83.41a11.94,11.94,0,0,1,5.3-.26c.31,0,.41.1.48.4a12.49,12.49,0,0,1,.33,1.68.54.54,0,0,1-.5.62,25.57,25.57,0,0,0-5.29.26.56.56,0,0,1-.63-.49L125.59,84A.62.62,0,0,1,126.08,83.41Z" transform="translate(-48.57 -12.28)"/><path class="cls-19" d="M129.68,94.1c1.67-.19,3.21,1.32,3.45,3.38s-.92,3.88-2.59,4.07-3.21-1.31-3.45-3.37S128,94.3,129.68,94.1Z" transform="translate(-48.57 -12.28)"/><path class="cls-20" d="M130,96.81a1,1,0,0,1,.24,2,1.05,1.05,0,0,1-.24-2Z" transform="translate(-48.57 -12.28)"/><path class="cls-4" d="M96.15,54c-.29,2,.41,6.22.11,10.35-.11,1.49-.32,3.24-.54,4.73-2.38,3.77-8.08,37.2-8.72,40.32l15.8,3.19,2.73-45.18.33-24.81c-.24.08-.63-.19-.82-.12-1.88.73-2.05.49-5.46,1.86C99.58,44.38,96.8,47.53,96.15,54Z" transform="translate(-48.57 -12.28)"/><path class="cls-7" d="M87.94,104.34c-.48,2.6-.81,4.47-.94,5.1l14.59,3,1.33-1.78v0l2.13-47,0-21h0c-.89.34-1.39.47-2,.66a159.61,159.61,0,0,0-1.23,20.32c0,3.1-2.34,38.83-3.07,43C95.14,106,91.56,105.09,87.94,104.34Z" transform="translate(-48.57 -12.28)"/><path class="cls-5" d="M98.55,83.41a11.94,11.94,0,0,0-5.3-.26c-.31,0-.4.1-.48.4a14.27,14.27,0,0,0-.33,1.68.54.54,0,0,0,.5.62,25.7,25.7,0,0,1,5.3.26.55.55,0,0,0,.62-.49L99,84A.62.62,0,0,0,98.55,83.41Z" transform="translate(-48.57 -12.28)"/><path class="cls-19" d="M95,94.11c-1.67-.21-3.23,1.28-3.5,3.33s.87,3.89,2.54,4.11,3.23-1.28,3.49-3.33S96.66,94.32,95,94.11Z" transform="translate(-48.57 -12.28)"/><path class="cls-21" d="M94.65,96.81a1.05,1.05,0,1,0,.69,1.13A.95.95,0,0,0,94.65,96.81Z" transform="translate(-48.57 -12.28)"/><path class="cls-22" d="M105.15,89.34a125.93,125.93,0,0,0,14.33-.1" transform="translate(-48.57 -12.28)"/><path class="cls-23" d="M119,62.28l-2.93-2.78L112,63.61l-4.27-4.15-2,1.4c0-8.37.92-18.12,1-18.82,1.14,2.52,10.47,2.66,11.31-.22C118.29,47.82,119,60.05,119,62.28Z" transform="translate(-48.57 -12.28)"/><path class="cls-6" d="M106.36,45.44c.55,3.13,11.09,3.13,11.9-.17" transform="translate(-48.57 -12.28)"/><polyline class="cls-6" points="70.36 48.28 67.44 45.55 63.41 49.41 59.17 45.43 57.25 47"/><polyline class="cls-6" points="70.42 46.65 67.37 43.87 63.44 47.62 59.3 43.59 57.2 45.48"/><polyline class="cls-6" points="65.77 35.33 66.82 42.62 63.5 45.81 59.86 42.62 61.44 35.2"/><polyline class="cls-6" points="67.5 34.79 67.78 42.39 70.25 44.36"/><path class="cls-24" d="M105.33,77.91s8,0,14-.07v.71c-6.19.11-13.94.07-14,.07v-.71Zm-.48,26.39a68.74,68.74,0,0,0,14.93-.11l.09.71a70.42,70.42,0,0,1-15.11.11l.09-.71Zm.12-4.94a116.23,116.23,0,0,0,14.69-.14l0,.71a117.86,117.86,0,0,1-14.79.14l0-.71Zm-.28,9.89a42.72,42.72,0,0,0,15.24-.3l.14.7a43.32,43.32,0,0,1-15.52.29l.14-.69Zm.52-23.06s7.21.23,14.21,0l0,.71c-7,.23-14.23,0-14.25,0Z" transform="translate(-48.57 -12.28)"/><path class="cls-25" d="M99.38,18.55a29.53,29.53,0,0,1,24.79-.17v3.89c-8-4.56-16.29-4-24.79.18Z" transform="translate(-48.57 -12.28)"/><polygon class="cls-26" points="63.39 3.71 64.41 5.14 63.39 6.57 62.38 5.14 63.39 3.71"/><path class="cls-27" d="M115.38,16.94a.6.6,0,0,1,0,1.2.6.6,0,1,1,0-1.2Z" transform="translate(-48.57 -12.28)"/><path class="cls-27" d="M118.73,17.58a.6.6,0,0,1,0,1.2.6.6,0,0,1,0-1.2Z" transform="translate(-48.57 -12.28)"/><path class="cls-27" d="M121.38,18.28a.6.6,0,1,1-.6.6A.6.6,0,0,1,121.38,18.28Z" transform="translate(-48.57 -12.28)"/><path class="cls-27" d="M108.39,17.14a.6.6,0,0,1,0,1.2.6.6,0,0,1,0-1.2Z" transform="translate(-48.57 -12.28)"/><path class="cls-27" d="M104.9,17.71a.59.59,0,0,1,.6.59.6.6,0,1,1-1.2,0A.59.59,0,0,1,104.9,17.71Z" transform="translate(-48.57 -12.28)"/><path class="cls-27" d="M101.55,18.91a.6.6,0,1,1-.6.6A.6.6,0,0,1,101.55,18.91Z" transform="translate(-48.57 -12.28)"/><path class="cls-28" d="M122.14,21.23c.25,3.26.43,8.25.5,12.48a12,12,0,0,0,1.82-.68c-.17-1.22-.3-2.45-.42-3.61-.22-2.06-.86-6.92-1-7.74Q122.61,21.44,122.14,21.23Z" transform="translate(-48.57 -12.28)"/><path class="cls-6" d="M122.79,21.54s.35,6.36.78,11.87" transform="translate(-48.57 -12.28)"/><path class="cls-28" d="M101.55,21.46c-.24,3.26-.41,8.12-.48,12.25A12.5,12.5,0,0,1,99.24,33c.18-1.22.31-2.45.43-3.61.2-1.93.79-6.35,1-7.56Z" transform="translate(-48.57 -12.28)"/><path class="cls-6" d="M100.92,21.54s-.35,6.36-.78,11.87" transform="translate(-48.57 -12.28)"/><polygon class="cls-24" points="72.49 91.48 70.44 88.82 68.6 92.08 66.4 88.99 64.14 92.3 61.72 89 59.35 92.22 57.18 88.96 55.25 91.75 54.79 91.43 57.19 87.95 59.37 91.24 61.72 88.05 64.12 91.33 66.39 88 68.55 91.02 70.37 87.8 72.94 91.13 72.49 91.48"/><path class="cls-6" d="M106.57,43.09c.59,2.86,10.82,3,11.44-.21" transform="translate(-48.57 -12.28)"/><path class="cls-6" d="M106.47,44.33c1,3.2,10.81,3,11.62-.12" transform="translate(-48.57 -12.28)"/><polyline class="cls-6" points="59.13 34.79 58.85 42.39 57.22 43.69"/><path class="cls-14" d="M103.32,24.11a6.25,6.25,0,0,1,5.3-.82" transform="translate(-48.57 -12.28)"/><path class="cls-29" d="M138,107.87c2.12,0,3.47,5.42,1,6.37-3,.6-10.21,2.23-14.69,3.09-3.06.59-3.86-.38-4-1.94C119.08,98,119.6,57,117.94,41.71c0-.12.07-.19.19-.11.66.52,1.53.68,1.87,1.47,1,4.92,1.22,25.07,1.61,29.84S122.75,102,124,110.74C127.31,110.77,135,108.2,138,107.87Z" transform="translate(-48.57 -12.28)"/><path class="cls-29" d="M86.61,107.87c-2.12,0-3.46,5.42-1,6.37,3,.6,10.21,2.23,14.7,3.09,3.06.59,3.85-.38,4-1.94,1.25-17.36.81-58,2.46-73.35a.36.36,0,0,0-.42-.32c-.66.51-1.37.57-1.71,1.35-1,4.92-1.22,25.07-1.6,29.84s-1.15,29.11-2.37,37.83C97.33,110.77,89.59,108.2,86.61,107.87Z" transform="translate(-48.57 -12.28)"/><path class="cls-5" d="M66.87,54.74c-1.21.36-2.4.8-3.5,1.15a37.33,37.33,0,0,0,1.55,7.16c1.42-.14,2.76-.36,3.86-.52-.58-2-1.5-5.92-1.91-7.79ZM66.39,61l1.25.37-1,.86-1.31-.45L66.39,61Zm-.72-3.12,1.58.91-1,1.47-1.56-.91,1-1.47Zm-.47-2,1.3.46-1,.93-1.3-.45Z" transform="translate(-48.57 -12.28)"/></g></g></g></svg>