<svg xmlns="http://www.w3.org/2000/svg" xmlns:xlink="http://www.w3.org/1999/xlink" width="45.08mm" height="52.35mm" viewBox="0 0 127.78 148.39"><defs><style>.cls-1,.cls-13,.cls-14,.cls-16,.cls-17,.cls-20,.cls-7{fill:none;}.cls-2{clip-path:url(#clip-path);}.cls-3{fill:#21543c;}.cls-11,.cls-12,.cls-14,.cls-15,.cls-16,.cls-17,.cls-18,.cls-20,.cls-3,.cls-4,.cls-5,.cls-6,.cls-7,.cls-8,.cls-9{stroke:#1a1a18;}.cls-10,.cls-11,.cls-12,.cls-14,.cls-15,.cls-20,.cls-3,.cls-4,.cls-5,.cls-6,.cls-7,.cls-8,.cls-9{stroke-miterlimit:22.93;}.cls-10,.cls-11,.cls-12,.cls-14,.cls-15,.cls-16,.cls-17,.cls-18,.cls-3,.cls-4,.cls-5,.cls-6,.cls-7,.cls-8,.cls-9{stroke-width:0.43px;}.cls-10,.cls-11,.cls-12,.cls-13,.cls-15,.cls-16,.cls-17,.cls-18,.cls-19,.cls-20,.cls-21,.cls-3,.cls-4,.cls-5,.cls-6,.cls-7,.cls-8,.cls-9{fill-rule:evenodd;}.cls-10,.cls-4{fill:#e3000f;}.cls-5{fill:#bc8b6d;}.cls-6{fill:#1f1400;}.cls-8{fill:#655146;}.cls-9{fill:#e8ccba;}.cls-10{stroke:#fff;}.cls-11{fill:#752f00;}.cls-12{fill:#c5c6c6;}.cls-15{fill:#84746c;}.cls-16{stroke-linecap:round;}.cls-16,.cls-17,.cls-18{stroke-linejoin:round;}.cls-18,.cls-19{fill:#fff;}.cls-20{stroke-width:0.57px;}.cls-21,.cls-22{fill:#f08481;}</style><clipPath id="clip-path" transform="translate(-51.43 -2.98)"><rect id="SVGID" class="cls-1" width="138.9" height="138" rx="11.1"/></clipPath></defs><title>Ресурс 14</title><g id="Слой_2" data-name="Слой 2"><g id="Слой_1-2" data-name="Слой 1"><g class="cls-2"><path class="cls-3" d="M82.72,56.33c-6.09,1.77-12.08,3.85-18,5.76a22,22,0,0,0,1.46,6.84,119.78,119.78,0,0,0,22.28-4.52v-6.6Z" transform="translate(-51.43 -2.98)"/><path class="cls-4" d="M69.93,60.39l-5.18,1.7a22,22,0,0,0,1.46,6.84q2.78-.27,5.55-.71C71.26,66.78,70.12,61.51,69.93,60.39Z" transform="translate(-51.43 -2.98)"/><path class="cls-5" d="M64.64,62.68a54.8,54.8,0,0,0-6.47-.94c-2.17-.08-3.2.47-2.8,1.19s1.73.23,1.56,1-3.18,1.34-4,1.9-2.62,2.91.34,4.47c3.23,1.7,10.52-.86,12.63-2.06a28.93,28.93,0,0,1-1.15-5.35Z" transform="translate(-51.43 -2.98)"/><path class="cls-6" d="M68.74,60.78l-4,1.31a22,22,0,0,0,1.46,6.84c1.42-.14,2.83-.31,4.25-.51A69.32,69.32,0,0,1,68.74,60.78Z" transform="translate(-51.43 -2.98)"/><path class="cls-5" d="M120,123.85a113.51,113.51,0,0,0,.6,12c.06.35.74.87.65,1.34-.16.76-1.15,1.47-1.14,1.63.15,1.43-.26,3,.64,3.41a5.7,5.7,0,0,0,2.88,1.34c.1,3.37,5.56,6.3,7.73,7.18,1.05.42,3,.75,4.26-.2s.3-3.45-1.44-5.5a38.67,38.67,0,0,1-4.95-8l-.07-.91.85-1.31.94-12.48Z" transform="translate(-51.43 -2.98)"/><path class="cls-7" d="M121.16,136.85c.64.41,6.75.33,8-.68" transform="translate(-51.43 -2.98)"/><path class="cls-5" d="M109,123.85a113.51,113.51,0,0,1-.6,12c0,.35-.74.87-.64,1.34.15.76,1.15,1.47,1.13,1.63-.15,1.43.26,3-.64,3.41a5.64,5.64,0,0,1-2.88,1.34c-.09,3.37-5.56,6.3-7.73,7.18-1,.42-3,.75-4.26-.2s-.3-3.45,1.45-5.5a39.17,39.17,0,0,0,4.95-8l.06-.91L99,134.83,98,122.35Z" transform="translate(-51.43 -2.98)"/><path class="cls-7" d="M107.76,136.85c-.64.41-6.75.33-8-.68" transform="translate(-51.43 -2.98)"/><path class="cls-8" d="M129.88,43.16a10.09,10.09,0,0,0-5-2.21c-2.72-.22-17.1-1-17.1-1s-6.7.21-8.29,1.33-.68-2.89-.68-2.89l3.69-5.22,9,2.78,16.88-1.5s1.43.69,1.59,1.1S129.88,43.16,129.88,43.16Z" transform="translate(-51.43 -2.98)"/><path class="cls-6" d="M125.87,42.2a10.84,10.84,0,0,1-3.3,5.85c-2.73,2.34-13,3.52-15,1.16a19.14,19.14,0,0,1-4-8.59Z" transform="translate(-51.43 -2.98)"/><polygon class="cls-9" points="68.09 44.34 67.8 41.13 58.8 39.82 59.27 44.34 59.67 48.94 61.76 51.04 66.73 50.94 69.2 45.72 68.09 44.34"/><path class="cls-6" d="M129.75,61.35c.83,5.72,3.56,24.43,5,29.31s3.57,18.56,3.57,18.56l-25.54,5.54-20.87-6,4.34-22.73,5.61-26.5a70.22,70.22,0,0,1,5-5.19,13.86,13.86,0,0,0,.53-2.39l7,.52h1.33l9.16-.33.24-.28c.63,1.33,1.17,2.29,1.17,2.29A57.8,57.8,0,0,0,129.75,61.35Z" transform="translate(-51.43 -2.98)"/><path class="cls-3" d="M96.23,86.07l5.61-26.5a70.22,70.22,0,0,1,5-5.19s.14-.43.3-1.11l2.14,2.51-1.46,18.3-3.45,15.3Z" transform="translate(-51.43 -2.98)"/><path class="cls-3" d="M129.75,61.35c.7,4.82,2.75,18.86,4.22,26.08l-8.28,2.41L122,74.38l-.14-22.09,3.12-.11.24-.28c.63,1.33,1.17,2.29,1.17,2.29A57.8,57.8,0,0,0,129.75,61.35Z" transform="translate(-51.43 -2.98)"/><path class="cls-10" d="M135.88,95.56c.67,3.24,1.19,6.26,1.65,9a125.65,125.65,0,0,1-15.93,1.27c-.74-.07-1.14-1-1.14-1.38l-1-46.8,3.19-1.55,1.86,22.72c.38,4.76,1.93,17.23,1.93,17.23A80.9,80.9,0,0,0,135.88,95.56Z" transform="translate(-51.43 -2.98)"/><path class="cls-11" d="M113.63,111.43a1.88,1.88,0,0,0-1.9-1c-6.76-.09-19.84-1.62-19.84-1.62s-2.64-.26-3,3.19-.94,8.43-.94,8.43-.3,1.37,1.79,2.51,18.79,2.7,20.46,2.52,2.16-.29,2.75-1.15c-.48-2,.27-8.23.27-10a6.61,6.61,0,0,1,.43-2.85Z" transform="translate(-51.43 -2.98)"/><path class="cls-3" d="M147.93,56.9c6.09,1.77,12.08,3.85,18,5.76a22,22,0,0,1-1.46,6.84A120.58,120.58,0,0,1,142.16,65v-6.6Z" transform="translate(-51.43 -2.98)"/><path class="cls-4" d="M160.72,61l5.18,1.7a22,22,0,0,1-1.46,6.84c-1.85-.18-3.7-.42-5.55-.7C159.39,67.35,160.53,62.08,160.72,61Z" transform="translate(-51.43 -2.98)"/><path class="cls-5" d="M166,63.25a57.11,57.11,0,0,1,6.47-.94c2.17-.07,3.2.47,2.8,1.19s-1.73.23-1.56,1,3.18,1.33,4,1.89,2.63,2.91-.34,4.47c-3.23,1.7-10.52-.86-12.63-2.06a28.93,28.93,0,0,0,1.15-5.35Z" transform="translate(-51.43 -2.98)"/><path class="cls-11" d="M114.44,110.42c-2.45,0-2.21,14.65-.94,14.85,7.94,1.27,27-1.19,28.08-3.14s-.68-7.87-.76-9.65-1.58-3.33-2.52-3.26C131.12,109.79,125.41,110.57,114.44,110.42Z" transform="translate(-51.43 -2.98)"/><path class="cls-12" d="M115.12,65.71a3.52,3.52,0,1,0-3.51-3.52A3.52,3.52,0,0,0,115.12,65.71Z" transform="translate(-51.43 -2.98)"/><path class="cls-7" d="M117.45,66.06l1.21,0c0,.5,0,1,0,1.51l-1.22,0c0-.51,0-1,0-1.51Zm0,2.44h1.23c0,.52,0,1.05,0,1.58h-1.24c0-.52,0-1,0-1.57Zm0,2.44h1.25l0,1.64h-1.28V70.94Zm0,2.74h1.28c0,.8,0,1.62,0,2.44s0,1.69,0,2.55l-.66.42-.68-.43V76.12c0-.83,0-1.64,0-2.44Zm-2-7.17h1.2c0,.5,0,1,0,1.51h-1.21c0-.5,0-1,0-1.51Zm0,2.46h1.23v1.58h-1.25c0-.53,0-1.05,0-1.57Zm0,2.44h1.25v1.65h-1.27c0-.55,0-1.1,0-1.64Zm0,2.75h1.28c0,.81,0,1.63,0,2.46v2.55l-.68.5-.66-.51c0-.86,0-1.71,0-2.55l0-2.45Zm-1.89-7.62,1.19,0,0,1.51h-1.21c0-.5,0-1,0-1.5ZM113.36,69h1.22l0,1.58h-1.24c0-.52,0-1,0-1.57Zm-.07,2.44h1.24l0,1.64h-1.26c0-.55,0-1.09.05-1.63Zm-.09,2.74h1.27c0,.81,0,1.62,0,2.45s0,1.68,0,2.54l-.67.53-.65-.54c0-.85,0-1.7.08-2.54s.05-1.63.07-2.44Zm-1.73-8,1.18,0c0,.5,0,1-.05,1.5h-1.2c0-.5,0-1,.07-1.49Zm-.11,2.42h1.2q0,.77-.06,1.56h-1.22c0-.53,0-1.05.08-1.56ZM111.24,71h1.23l-.06,1.62h-1.25c0-.55,0-1.09.08-1.62Zm-.13,2.71h1.26c0,.8-.06,1.6-.1,2.42s-.06,1.67-.09,2.52l-.66.5-.65-.51c0-.85.08-1.69.12-2.51S111.07,74.48,111.11,73.68Z" transform="translate(-51.43 -2.98)"/><path class="cls-13" d="M117.45,66.06l1.21,0c0,.5,0,1,0,1.51l-1.22,0c0-.51,0-1,0-1.51Zm0,2.44h1.23c0,.52,0,1.05,0,1.58h-1.24c0-.52,0-1,0-1.57Zm0,2.44h1.25l0,1.64h-1.28V70.94Zm0,2.74h1.28c0,.8,0,1.62,0,2.44s0,1.69,0,2.55l-.66.42-.68-.43V76.12c0-.83,0-1.64,0-2.44Zm-2-7.17h1.2c0,.5,0,1,0,1.51h-1.21c0-.5,0-1,0-1.51Zm0,2.46h1.23v1.58h-1.25c0-.53,0-1.05,0-1.57Zm0,2.44h1.25v1.65h-1.27c0-.55,0-1.1,0-1.64Zm0,2.75h1.28c0,.81,0,1.63,0,2.46v2.55l-.68.5-.66-.51c0-.86,0-1.71,0-2.55l0-2.45Zm-1.89-7.62,1.19,0,0,1.51h-1.21c0-.5,0-1,0-1.5ZM113.36,69h1.22l0,1.58h-1.24c0-.52,0-1,0-1.57Zm-.07,2.44h1.24l0,1.64h-1.26c0-.55,0-1.09.05-1.63Zm-.09,2.74h1.27c0,.81,0,1.62,0,2.45s0,1.68,0,2.54l-.67.53-.65-.54c0-.85,0-1.7.08-2.54s.05-1.63.07-2.44Zm-1.73-8,1.18,0c0,.5,0,1-.05,1.5h-1.2c0-.5,0-1,.07-1.49Zm-.11,2.42h1.2q0,.77-.06,1.56h-1.22c0-.53,0-1.05.08-1.56ZM111.24,71h1.23l-.06,1.62h-1.25c0-.55,0-1.09.08-1.62Zm-.13,2.71h1.26c0,.8-.06,1.6-.1,2.42s-.06,1.67-.09,2.52l-.66.5-.65-.51c0-.85.08-1.69.12-2.51S111.07,74.48,111.11,73.68Z" transform="translate(-51.43 -2.98)"/><path class="cls-12" d="M117.56,59.67l.84-.57,0-1.83a6.64,6.64,0,0,1-2.88-3.09.88.88,0,0,1,0-.15l-.29-.19-.06,0a1,1,0,0,1-.06.25A6.64,6.64,0,0,1,112,57.28l-.07,1.62.67.89a3.5,3.5,0,0,1,5-.12Z" transform="translate(-51.43 -2.98)"/><line class="cls-14" x1="63.49" y1="76.46" x2="63" y2="107.44"/><polygon class="cls-11" points="74.5 73.8 81.09 76.44 81.81 73.46 75.36 70.76 74.5 73.8"/><path class="cls-11" d="M104.24,44.61s-3-1.45-7.07,1.53-11.72,5.53-13,5.53c-.78,0-1.4,1.49-1.65,3.58-.34,2.83.92,6.47,2.43,9.21.43.76,1.7.76,2.88,1.09,3.33.94,12.41-2.18,13.51-3.57s5.54-6.73,5.54-6.73,2.68-7.84-2.64-10.64Zm21.4,10.76s1.38,2.41,2.94,4.68c2,2.91,7.85,5.09,10,5.73,5.56,1.67,6.71-2.81,8.73-6.72s-1.14-6.67-3.76-8c-1.85-.94-9.44-4.45-11.48-5.13s-6.34-1.07-7.83.73S125.64,55.37,125.64,55.37Z" transform="translate(-51.43 -2.98)"/><polygon class="cls-11" points="51.82 74.33 46.76 76.54 46.1 73.56 51.02 71.29 51.82 74.33"/><path class="cls-3" d="M100.55,40.12c2.51-3.85,2.72-9,5-12.48,4.37-6.79,15-5.51,18.89-.07,2.63,3.67,2.89,10.55,4.65,14.25s4.21,2.76,3.2-1.44-2.21-7.89-2.59-12.33c-.47-5.56-.2-11.32-6.16-15.52l1.54-7c-4.42-3.32-16.33-3-19.62.13l1.65,6.92c-5.22,3-7.4,10.2-7.46,17.21a21.06,21.06,0,0,1-2.4,9.34C95.81,42,98.7,43,100.55,40.12Z" transform="translate(-51.43 -2.98)"/><path class="cls-15" d="M100.55,40.12c2.51-3.85,2.72-9,5-12.48,4.37-6.79,15-5.51,18.89-.07,2.63,3.67,2.89,10.55,4.65,14.25s4.21,2.76,3.2-1.44a77.73,77.73,0,0,1-2.49-11.31h0c-.6-6.13-7.3-10.86-14.53-10.88S101,21.32,100.55,40.12Zm0,0c-1.85,2.84-4.74,1.85-3.33-1a21.16,21.16,0,0,0,2.38-8.75Z" transform="translate(-51.43 -2.98)"/><path class="cls-9" d="M102.26,36.5c1.37,14,24.75,13.41,25.37.68h0c-.79-3.38-1.49-7.19-3.22-9.61-3.88-5.44-14.52-6.72-18.89.07-1.6,2.47-2.17,5.78-3.26,8.86Z" transform="translate(-51.43 -2.98)"/><path class="cls-16" d="M114.11,38.72a2,2,0,0,0,1.94,0c.58-.41,0-1.11,0-1.11" transform="translate(-51.43 -2.98)"/><path class="cls-7" d="M118,34.31a6.21,6.21,0,0,1,5.69-.75c-.26.17-.44.31-.61.44" transform="translate(-51.43 -2.98)"/><path class="cls-15" d="M120.81,34.9a.83.83,0,1,0-.83-.83A.83.83,0,0,0,120.81,34.9Z" transform="translate(-51.43 -2.98)"/><path class="cls-17" d="M124.21,31.39a4.66,4.66,0,0,0-2.74-.84" transform="translate(-51.43 -2.98)"/><path class="cls-7" d="M108.7,30.45a3.61,3.61,0,0,0-2.33,1" transform="translate(-51.43 -2.98)"/><path class="cls-12" d="M105,28.63s8.28.38,12.78.19c2.89-.12,5.53-.46,7-.68-.12-.2-.24-.39-.37-.57-3.88-5.44-14.52-6.72-18.89.07A9.75,9.75,0,0,0,105,28.63Z" transform="translate(-51.43 -2.98)"/><path class="cls-18" d="M111.57,41.15a6.67,6.67,0,0,0,1.6,1.34,4.54,4.54,0,0,0,3.11.41c1-.15,2.28-1.61,2.28-1.61C118,42,112.21,42,111.57,41.15Z" transform="translate(-51.43 -2.98)"/><path class="cls-19" d="M120.5,34.16a.27.27,0,1,0-.27-.27A.27.27,0,0,0,120.5,34.16Z" transform="translate(-51.43 -2.98)"/><path class="cls-12" d="M125.09,28.68c.75,1.79,1.14,18.86,1,22.86a5.44,5.44,0,0,1,1.51-.55l-.2-2.68.13,0,.56,2.6c.5-.09,1.22-.2,1.73-.25-1.51-2.74-2-6.91-2.34-10.45-.24-2.25-1-7.86-1-7.86Z" transform="translate(-51.43 -2.98)"/><path class="cls-7" d="M126.14,31.25s.91,16.32,1.5,18.91" transform="translate(-51.43 -2.98)"/><line class="cls-14" x1="74.67" y1="45.58" x2="77.31" y2="45.07"/><path class="cls-12" d="M104.92,28.68c-.75,1.79-1.14,18.86-1,22.86a5.44,5.44,0,0,0-1.51-.55l.2-2.68-.13,0-.56,2.6c-.5-.09-1.22-.2-1.73-.25,1.51-2.74,2-6.91,2.34-10.45.24-2.25,1-7.86,1-7.86Z" transform="translate(-51.43 -2.98)"/><path class="cls-7" d="M103.87,31.25s-.91,16.32-1.5,18.91" transform="translate(-51.43 -2.98)"/><line class="cls-14" x1="52.48" y1="45.58" x2="49.83" y2="45.07"/><polyline class="cls-20" points="70.4 22.15 63.44 25.89 56.51 22.07"/><path class="cls-6" d="M161.92,61.36l4,1.3a22,22,0,0,1-1.46,6.84c-1.41-.14-2.83-.31-4.25-.51A69.7,69.7,0,0,0,161.92,61.36Z" transform="translate(-51.43 -2.98)"/><path class="cls-10" d="M92.68,104.67l1.73-9.06a50.49,50.49,0,0,0,8,.44s1.71-12.32,2.09-17.08,3.35-22.87,3.35-22.87l3.2,1.55-2.72,47s0,1.07-.81,1.14A146.63,146.63,0,0,1,92.68,104.67Z" transform="translate(-51.43 -2.98)"/><path class="cls-11" d="M110.71,47.32c.05,3.94,1.64,3.85,3.74,5.19a1.58,1.58,0,0,1,.58,1.62,6.57,6.57,0,0,1-6.88,3.75c-3.64-.67-5.36-10.29-2.55-11,1.36-.34,3.74-1.19,5.11.43Zm8.82,0c-.06,3.94-1.66,3.83-3.75,5.19a1.51,1.51,0,0,0-.29,1.67,6.24,6.24,0,0,0,6.59,3.7c3.64-.67,5.37-10.29,2.56-11C123.28,46.55,120.89,45.7,119.53,47.32Z" transform="translate(-51.43 -2.98)"/><path class="cls-21" d="M122.81,40.81a1.59,1.59,0,1,0-1.6-1.59A1.59,1.59,0,0,0,122.81,40.81Z" transform="translate(-51.43 -2.98)"/><circle class="cls-22" cx="55.39" cy="36.24" r="1.59"/><path class="cls-7" d="M112.09,34.31a6.21,6.21,0,0,0-5.69-.75c.26.17.44.31.61.44" transform="translate(-51.43 -2.98)"/><path class="cls-15" d="M109.3,34.9a.83.83,0,1,0-.83-.83A.83.83,0,0,0,109.3,34.9Z" transform="translate(-51.43 -2.98)"/><path class="cls-19" d="M109.07,34.16a.27.27,0,1,0-.27-.27A.27.27,0,0,0,109.07,34.16Z" transform="translate(-51.43 -2.98)"/></g></g></g></svg>