<svg xmlns="http://www.w3.org/2000/svg" xmlns:xlink="http://www.w3.org/1999/xlink" width="45.08mm" height="49.07mm" viewBox="0 0 127.78 139.11"><defs><style>.cls-1,.cls-15,.cls-16,.cls-18,.cls-25,.cls-26,.cls-27,.cls-28,.cls-8{fill:none;}.cls-2{clip-path:url(#clip-path);}.cls-24,.cls-3{fill:#b4ac96;}.cls-10,.cls-15,.cls-16,.cls-17,.cls-18,.cls-19,.cls-22,.cls-23,.cls-24,.cls-29,.cls-3,.cls-30,.cls-5,.cls-7,.cls-8,.cls-9{stroke:#1a1a18;}.cls-10,.cls-11,.cls-12,.cls-13,.cls-14,.cls-16,.cls-17,.cls-22,.cls-23,.cls-24,.cls-25,.cls-26,.cls-27,.cls-28,.cls-29,.cls-3,.cls-30,.cls-31,.cls-5,.cls-6,.cls-7,.cls-8,.cls-9{stroke-miterlimit:22.93;}.cls-23,.cls-27,.cls-3,.cls-31{stroke-width:0.57px;}.cls-10,.cls-11,.cls-12,.cls-13,.cls-14,.cls-15,.cls-16,.cls-17,.cls-18,.cls-19,.cls-20,.cls-21,.cls-22,.cls-23,.cls-24,.cls-26,.cls-27,.cls-29,.cls-3,.cls-30,.cls-31,.cls-4,.cls-5,.cls-6,.cls-7,.cls-8,.cls-9{fill-rule:evenodd;}.cls-12,.cls-31,.cls-4{fill:#2b5e3e;}.cls-29,.cls-5{fill:#7f511d;}.cls-10,.cls-11,.cls-15,.cls-18,.cls-19,.cls-24,.cls-25,.cls-30,.cls-5,.cls-6,.cls-7,.cls-8,.cls-9{stroke-width:0.43px;}.cls-6{fill:#4b0500;}.cls-12,.cls-13,.cls-14,.cls-25,.cls-26,.cls-27,.cls-28,.cls-31,.cls-6{stroke:#fff;}.cls-7{fill:#8f7a60;}.cls-9{fill:#1f1400;}.cls-10{fill:#e8ccba;}.cls-11{fill:#745936;stroke:#100000;}.cls-12{stroke-width:0.6px;}.cls-13,.cls-14{fill:#b42a11;}.cls-13{stroke-width:1.03px;}.cls-14{stroke-width:2.65px;}.cls-15{stroke-linecap:round;}.cls-15,.cls-18,.cls-19{stroke-linejoin:round;}.cls-16,.cls-22{stroke-width:0.42px;}.cls-17,.cls-22{fill:#84746c;}.cls-17{stroke-width:0.42px;}.cls-19,.cls-20{fill:#fff;}.cls-21{fill:#f08481;}.cls-23{fill:#230000;}.cls-26,.cls-28{stroke-width:0.39px;}.cls-29{stroke-width:0.86px;}.cls-30{fill:#ececed;}</style><clipPath id="clip-path" transform="translate(-46.74 -6.98)"><rect id="SVGID" class="cls-1" width="138.9" height="138" rx="11.1"/></clipPath></defs><title>Ресурс 19</title><g id="Слой_2" data-name="Слой 2"><g id="Слой_1-2" data-name="Слой 1"><g class="cls-2"><path class="cls-3" d="M122.41,23.54s.44-2.32,1.18-6.93c.62-3.91-4.93-9.37-12.62-9.34-5.53,0-14,2.76-13.11,9.53.19,1.5.73,6.39.73,6.39l15-2.87Z" transform="translate(-46.74 -6.98)"/><path class="cls-4" d="M122.15,23.33s.19-1,.53-2.95c-2.39-2-12.36-9.81-24.18-.59.18,1.63.35,3.2.35,3.2l14.71-2.67Z" transform="translate(-46.74 -6.98)"/><path class="cls-5" d="M143.49,51.75c6.09,1.77,11.83,3.73,17.72,5.63a22.31,22.31,0,0,1-1.46,6.84c-7.5-.74-27.31-4.76-34.51-6.9L124,48.71l5.64-1.19Z" transform="translate(-46.74 -6.98)"/><path class="cls-6" d="M154.63,55.23l5,1.64A31.43,31.43,0,0,1,158,64c-1.48-.2-3.24-.47-5.18-.79Q153.9,59.3,154.63,55.23Z" transform="translate(-46.74 -6.98)"/><path class="cls-5" d="M78,51.05c-6.09,1.77-12.08,3.85-18,5.76a22,22,0,0,0,1.46,6.84,120.47,120.47,0,0,0,22.27-4.51L97.66,56l-3.08-10.9Z" transform="translate(-46.74 -6.98)"/><path class="cls-7" d="M60,57.4a57.49,57.49,0,0,0-6.47-.94c-2.18-.07-3.2.47-2.8,1.19s1.73.23,1.56,1-3.19,1.33-4,1.89-2.63,2.91.34,4.47c3.23,1.7,10.52-.86,12.63-2.06a28.14,28.14,0,0,1-1.15-5.35Z" transform="translate(-46.74 -6.98)"/><path class="cls-7" d="M115.27,118.57a113.51,113.51,0,0,0,.6,12c0,.36.74.87.64,1.34-.15.77-1.15,1.47-1.13,1.63.15,1.43-.26,3,.64,3.42a5.68,5.68,0,0,0,2.87,1.33c.1,3.38,5.57,6.3,7.74,7.18,1.05.42,3,.76,4.26-.2s.3-3.45-1.45-5.5a39.17,39.17,0,0,1-5-8l-.06-.9.84-1.32,1-12.48Z" transform="translate(-46.74 -6.98)"/><path class="cls-8" d="M116.47,131.57c.64.41,6.75.33,8-.68" transform="translate(-46.74 -6.98)"/><path class="cls-7" d="M104.27,118.57a113.51,113.51,0,0,1-.6,12c-.06.36-.74.87-.65,1.34.16.77,1.15,1.47,1.14,1.63-.15,1.43.26,3-.64,3.42a5.75,5.75,0,0,1-2.88,1.33c-.1,3.38-5.56,6.3-7.73,7.18-1,.42-3,.76-4.26-.2s-.3-3.45,1.44-5.5a38.67,38.67,0,0,0,5-8l.07-.9-.85-1.32-.94-12.48Z" transform="translate(-46.74 -6.98)"/><path class="cls-8" d="M103.07,131.57c-.64.41-6.75.33-8-.68" transform="translate(-46.74 -6.98)"/><path class="cls-9" d="M121.9,24.66c-6.88,14.28.94,18.17-.61,23.57s-21.13,1.72-20.9-1.61,2.65-10.11,1.89-13.38Z" transform="translate(-46.74 -6.98)"/><path class="cls-10" d="M115,38.94l-9.48-1.42c.47,3.33.41,6-1.87,6l4.83,5.17,5-.1,3.07-5.36C115.56,42.63,114.81,41.09,115,38.94Z" transform="translate(-46.74 -6.98)"/><path class="cls-11" d="M125.05,56.07c.84,5.72,3.57,24.43,5,29.31s-1.22,21.11-1.22,21.11l-8.07,11.33c-7.4,2-16.15,1.94-25.16-.44l-8.39-13.86L91.54,80.8l5.61-26.5a71.17,71.17,0,0,1,5-5.2,15.1,15.1,0,0,0,.53-2.39l7,.52h1.33l9.15-.33.24-.28c.64,1.33,1.18,2.29,1.18,2.29A58.6,58.6,0,0,0,125.05,56.07Z" transform="translate(-46.74 -6.98)"/><path class="cls-6" d="M122.7,115.07l-1,1.43a103.89,103.89,0,0,1-26.06-.14V91.26c9.27.28,18.32.31,27.08,0Z" transform="translate(-46.74 -6.98)"/><path class="cls-12" d="M122.7,111.92l-1,1a145.59,145.59,0,0,1-26.06-.11V95c9.27.21,18.32.23,27.08,0Z" transform="translate(-46.74 -6.98)"/><path class="cls-13" d="M122.7,108.74l-1,.59a246.51,246.51,0,0,1-26.06-.06V98.87c9.27.12,18.32.13,27.08,0Z" transform="translate(-46.74 -6.98)"/><path class="cls-14" d="M122.7,106l-1,.23c-8.39.18-17.12.14-26.06,0v-4c9.27,0,18.32,0,27.08,0Z" transform="translate(-46.74 -6.98)"/><path class="cls-5" d="M126.65,55.69c.29,2-.41,6.22-.11,10.36.11,1.48.32,3.23.54,4.72,2.38,3.77,5,17.49,5.67,20.62l-12.88,2.36-2.6-24.65L117.13,47l3.11-.12.24-.28c.64,1.33,3.9-.14,3.9-.14S126,49.19,126.65,55.69Z" transform="translate(-46.74 -6.98)"/><path class="cls-7" d="M161.32,58a57.11,57.11,0,0,1,6.47-.94c2.17-.07,3.19.47,2.8,1.19s-1.74.23-1.57,1,3.19,1.33,4,1.89,2.62,2.91-.34,4.47c-3.24,1.7-10.53-.86-12.63-2.06a28,28,0,0,0,1.14-5.35Z" transform="translate(-46.74 -6.98)"/><path class="cls-10" d="M97.57,31.23c1.37,13.94,24.75,13.4,25.36.67h0c-.78-3.38-1.48-7.19-3.21-9.61-3.89-5.43-14.52-6.72-18.9.07-1.59,2.47-2.16,5.78-3.25,8.87Z" transform="translate(-46.74 -6.98)"/><path class="cls-15" d="M109.42,33.44a2,2,0,0,0,1.93,0c.58-.41,0-1.11,0-1.11" transform="translate(-46.74 -6.98)"/><path class="cls-16" d="M113.35,29.2A6.2,6.2,0,0,1,119,28.11c-.26.19-.43.34-.59.48" transform="translate(-46.74 -6.98)"/><path class="cls-17" d="M116.07,28a.83.83,0,0,1,.88.78.83.83,0,0,1-1.66.1A.84.84,0,0,1,116.07,28Z" transform="translate(-46.74 -6.98)"/><path class="cls-18" d="M119.51,26.11A6.81,6.81,0,0,0,114,24.85" transform="translate(-46.74 -6.98)"/><path class="cls-19" d="M106.88,35.88a6.42,6.42,0,0,0,1.6,1.34,4.59,4.59,0,0,0,3.11.4c1-.15,2.28-1.61,2.28-1.61C113.27,36.76,107.52,36.76,106.88,35.88Z" transform="translate(-46.74 -6.98)"/><path class="cls-20" d="M115.78,28.37a.27.27,0,0,1,.29.25.26.26,0,0,1-.25.28.27.27,0,0,1-.29-.25A.26.26,0,0,1,115.78,28.37Z" transform="translate(-46.74 -6.98)"/><path class="cls-21" d="M117.29,31.07c.86-.19,1.67.15,1.8.77s-.45,1.26-1.31,1.44-1.67-.15-1.8-.76S116.43,31.26,117.29,31.07Z" transform="translate(-46.74 -6.98)"/><path class="cls-21" d="M102.83,31c.85.21,1.42.87,1.27,1.48s-1,.93-1.82.72-1.42-.88-1.27-1.49S102,30.83,102.83,31Z" transform="translate(-46.74 -6.98)"/><path class="cls-16" d="M107.37,29.19a6.19,6.19,0,0,0-5.64-1.06,6.06,6.06,0,0,1,.59.47" transform="translate(-46.74 -6.98)"/><path class="cls-22" d="M104.65,28a.83.83,0,1,0,.78.87A.81.81,0,0,0,104.65,28Z" transform="translate(-46.74 -6.98)"/><path class="cls-20" d="M104.4,28.33a.27.27,0,0,0-.28.26.26.26,0,0,0,.25.28.26.26,0,0,0,.28-.25A.27.27,0,0,0,104.4,28.33Z" transform="translate(-46.74 -6.98)"/><path class="cls-23" d="M116.34,103.09l1.16,16.67c7.67-.58,14.12-1.54,19.67-3.87L134.88,101l-15.44-.27Z" transform="translate(-46.74 -6.98)"/><path class="cls-6" d="M132.75,91.39c.67,3.24,1.67,6.83,2.13,9.57-4.37.87-17.8,2.2-18.54,2.13-1.52-15.57-2.3-36.23-2.77-52.22l4.39,0s1.47,17.95,1.85,22.72S122.2,93.1,122.2,93.1C125.66,92.55,129.76,91.71,132.75,91.39Z" transform="translate(-46.74 -6.98)"/><path class="cls-24" d="M115.94,43.43c-2.44,2.69-3.06,2-5.15,3.32-.4.25-.32,1.36-.07,2a6.3,6.3,0,0,0,4.76,3.5,6.28,6.28,0,0,0,5,.52,7.39,7.39,0,0,0,4.82-.35,5.72,5.72,0,0,0,4.14-2.4,3.17,3.17,0,0,0,1.71-1.86,1.58,1.58,0,0,0,.31-2.06c-1.14-2.43-5.83-3.5-7.32-3.87S117.3,41.81,115.94,43.43Z" transform="translate(-46.74 -6.98)"/><rect class="cls-25" x="114.78" y="53.66" width="2.45" height="2.45" transform="translate(-49.71 96.01) rotate(-47.34)"/><polygon class="cls-26" points="69.4 50.36 71.33 52.15 69.58 54.12 67.64 52.33 69.4 50.36"/><polygon class="cls-26" points="69.66 54.85 71.64 56.68 69.85 58.69 67.87 56.87 69.66 54.85"/><polygon class="cls-26" points="69.9 59.48 71.95 61.38 70.1 63.47 68.04 61.58 69.9 59.48"/><polygon class="cls-26" points="70.26 64.23 72.44 66.24 70.47 68.46 68.3 66.45 70.26 64.23"/><polygon class="cls-26" points="70.58 69.27 72.96 71.31 70.96 73.74 68.58 71.7 70.58 69.27"/><polygon class="cls-26" points="71.04 74.63 73.66 76.87 71.47 79.53 68.85 77.29 71.04 74.63"/><polygon class="cls-26" points="71.52 80.27 74.33 82.68 71.97 85.54 69.17 83.13 71.52 80.27"/><polygon class="cls-26" points="72.5 86.74 75.31 89.14 72.96 92 70.15 89.6 72.5 86.74"/><polygon class="cls-26" points="78.5 86.24 81.3 88.64 78.95 91.5 76.14 89.1 78.5 86.24"/><polygon class="cls-26" points="83.78 85.37 86.14 87.65 84.36 90.61 81.99 88.33 83.78 85.37"/><path class="cls-27" d="M116.11,100.57s13.09-1,18.29-2" transform="translate(-46.74 -6.98)"/><path class="cls-27" d="M116.23,101.93s13.09-1.05,18.29-2" transform="translate(-46.74 -6.98)"/><polygon class="cls-26" points="110.4 49.64 112.07 50.95 109.96 51.32 108.3 50 110.4 49.64"/><polygon class="cls-26" points="109.22 54.46 111.04 55.74 108.86 56.24 107.04 54.96 109.22 54.46"/><polygon class="cls-26" points="109.8 52 111.62 53.28 109.44 53.78 107.62 52.5 109.8 52"/><path class="cls-18" d="M101.33,26.11a6.83,6.83,0,0,1,5.55-1.26" transform="translate(-46.74 -6.98)"/><path class="cls-20" d="M122.62,20.71a20.51,20.51,0,0,0-12.17-4.84,18.5,18.5,0,0,0-11.92,4.24l-.07-.65a18.93,18.93,0,0,1,12-4.15,21,21,0,0,1,12.27,4.75Z" transform="translate(-46.74 -6.98)"/><rect class="cls-28" x="109.69" y="16.64" width="1.82" height="1.82" transform="translate(-28.3 74.19) rotate(-43.64)"/><polygon class="cls-26" points="66.97 9.65 67.84 11.15 66.58 12.19 65.7 10.69 66.97 9.65"/><polygon class="cls-26" points="69.48 10.37 70.28 11.74 69.12 12.69 68.32 11.32 69.48 10.37"/><polygon class="cls-26" points="71.63 11.38 72.43 12.75 71.28 13.7 70.48 12.33 71.63 11.38"/><polygon class="cls-26" points="73.72 12.42 74.52 13.79 73.37 14.74 72.57 13.37 73.72 12.42"/><polygon class="cls-26" points="60.72 9.48 59.85 10.94 61.11 12.03 61.98 10.56 60.72 9.48"/><polygon class="cls-26" points="58.21 10.1 57.41 11.44 58.56 12.43 59.37 11.09 58.21 10.1"/><polygon class="cls-26" points="56.05 11.03 55.25 12.37 56.41 13.36 57.21 12.02 56.05 11.03"/><polygon class="cls-26" points="53.96 11.99 53.16 13.33 54.32 14.33 55.12 12.98 53.96 11.99"/><path class="cls-29" d="M121.65,26.63c-3.08-4.27-13.14-5.32-19.68-2.73-1.91.76-3.08,1.93-3.36,3.37-.53,2.75-.06,8.38,2.3,10.83-5-1.92-10.06-9.33-9.23-14.64.21-1.37,2.87-.72,4-1.37,6.83-3.82,12.34-4.4,14.61-4.35A25.48,25.48,0,0,1,123,21.66c3.73,2.46,4.93.95,5.23,3,.37,2.58-3,12.06-8.72,14C124.07,34.93,121.72,26.36,121.65,26.63Z" transform="translate(-46.74 -6.98)"/><path class="cls-30" d="M120.44,25.33c.26,3.26.43,8.25.51,12.48a11,11,0,0,0,1.82-.68c-.18-1.22-.31-2.45-.43-3.61-.21-2.05-.58-6.07-.69-6.89A3.82,3.82,0,0,0,120.44,25.33Z" transform="translate(-46.74 -6.98)"/><path class="cls-8" d="M121.06,25.85s.45,6.15.87,11.66" transform="translate(-46.74 -6.98)"/><path class="cls-30" d="M100.11,25.33c-.26,3.26-.43,8.25-.51,12.48a11,11,0,0,1-1.82-.68c.18-1.22.31-2.45.43-3.61.21-2.05.59-6.07.69-6.89A3.92,3.92,0,0,1,100.11,25.33Z" transform="translate(-46.74 -6.98)"/><path class="cls-8" d="M99.49,25.85s-.44,6.15-.87,11.66" transform="translate(-46.74 -6.98)"/><path class="cls-6" d="M66.25,54.75l-5,1.64a31.46,31.46,0,0,0,1.65,7.15c1.49-.2,3.25-.47,5.19-.79C67.35,60.13,66.73,57.46,66.25,54.75Z" transform="translate(-46.74 -6.98)"/><path class="cls-5" d="M94.23,55.69c-.3,2,.4,6.22.1,10.36-.1,1.48-.31,3.23-.53,4.72-2.39,3.77-5,17.49-5.67,20.62L101,93.75l2.61-24.65L103.75,47l-3.12-.12-.24-.28c-.63,1.33-3.89-.14-3.89-.14S94.88,49.19,94.23,55.69Z" transform="translate(-46.74 -6.98)"/><path class="cls-23" d="M104.53,103.09l-1.15,16.67c-7.68-.58-14.13-1.54-19.67-3.87L86,101l15.44-.27Z" transform="translate(-46.74 -6.98)"/><path class="cls-6" d="M88.13,91.39c-.67,3.24-1.67,6.83-2.13,9.57,4.37.87,17.8,2.2,18.53,2.13,1.53-15.57,2.31-36.23,2.78-52.22l-4.39,0-1.86,22.72c-.38,4.77-2.38,19.56-2.38,19.56C95.21,92.55,91.12,91.71,88.13,91.39Z" transform="translate(-46.74 -6.98)"/><path class="cls-24" d="M104.94,43.43c2.43,2.69,3.06,2,5.15,3.32.39.25.31,1.36.07,2a6.32,6.32,0,0,1-4.77,3.5,6.25,6.25,0,0,1-5,.52,7.42,7.42,0,0,1-4.83-.35A5.74,5.74,0,0,1,91.46,50a3.2,3.2,0,0,1-1.71-1.86,1.6,1.6,0,0,1-.3-2.06c1.14-2.43,5.83-3.5,7.32-3.87S103.57,41.81,104.94,43.43Z" transform="translate(-46.74 -6.98)"/><rect class="cls-25" x="103.65" y="53.66" width="2.45" height="2.45" transform="translate(-56.18 78.62) rotate(-42.66)"/><polygon class="cls-26" points="58 50.36 56.06 52.15 57.81 54.12 59.75 52.33 58 50.36"/><polygon class="cls-26" points="57.73 54.85 55.76 56.68 57.55 58.69 59.52 56.87 57.73 54.85"/><polygon class="cls-26" points="57.5 59.48 55.44 61.38 57.3 63.47 59.35 61.58 57.5 59.48"/><polygon class="cls-26" points="57.13 64.23 54.96 66.24 56.93 68.46 59.1 66.45 57.13 64.23"/><polygon class="cls-26" points="56.82 69.27 54.44 71.31 56.43 73.74 58.82 71.7 56.82 69.27"/><polygon class="cls-26" points="56.36 74.63 53.74 76.87 55.93 79.53 58.55 77.29 56.36 74.63"/><polygon class="cls-26" points="55.88 80.27 53.07 82.68 55.42 85.54 58.23 83.13 55.88 80.27"/><polygon class="cls-26" points="54.89 86.74 52.08 89.14 54.44 92 57.24 89.6 54.89 86.74"/><polygon class="cls-26" points="48.9 86.24 46.09 88.64 48.44 91.5 51.25 89.1 48.9 86.24"/><polygon class="cls-26" points="43.62 85.37 41.26 87.65 43.04 90.61 45.41 88.33 43.62 85.37"/><path class="cls-27" d="M104.77,100.57s-13.09-1-18.29-2" transform="translate(-46.74 -6.98)"/><path class="cls-27" d="M104.64,101.93s-13.08-1.05-18.29-2" transform="translate(-46.74 -6.98)"/><polygon class="cls-26" points="17 49.16 15.33 50.47 17.43 50.84 19.1 49.52 17 49.16"/><polygon class="cls-26" points="18.18 53.98 16.36 55.26 18.54 55.76 20.36 54.48 18.18 53.98"/><polygon class="cls-26" points="17.6 51.52 15.78 52.8 17.96 53.3 19.78 52.02 17.6 51.52"/><path class="cls-31" d="M93.45,68a248,248,0,0,1,33.39,0l.36,2.88H93.45Z" transform="translate(-46.74 -6.98)"/></g></g></g></svg>